<svg width="65" height="56" viewBox="0 0 65 56" fill="none" xmlns="http://www.w3.org/2000/svg">
<path d="M40.2931 13.5938V23.7143C40.2931 24.2666 40.7408 24.7143 41.2931 24.7143H46.8949C47.1262 24.7143 47.3503 24.7944 47.5291 24.9411L52.0425 28.6435C52.6952 29.1789 53.6767 28.7146 53.6767 27.8703V25.7143C53.6767 25.162 54.1244 24.7143 54.6767 24.7143H56.9595C57.5118 24.7143 57.9595 24.2666 57.9595 23.7143V13.5937C57.9595 13.0415 57.5118 12.5938 56.9595 12.5938H41.2931C40.7408 12.5938 40.2931 13.0415 40.2931 13.5938Z" fill="#FE8604" fill-opacity="0.7"/>
<path d="M32.1923 19.4445H37.1517C37.704 19.4445 38.1517 19.8922 38.1517 20.4445V24.7143C38.1517 26.7498 39.8157 27.6387 40.7334 27.8555C40.7965 27.8704 40.8611 27.8762 40.926 27.8762H46.2526C46.8049 27.8762 47.2526 28.3239 47.2526 28.8762V28.9841C47.2526 29.5364 46.8049 29.9841 46.2526 29.9841H40.6724C40.428 29.9841 40.1921 30.0735 40.0092 30.2356L36.6028 33.2535C35.9575 33.8251 34.9397 33.367 34.9397 32.5049V30.9841C34.9397 30.4318 34.492 29.9841 33.9397 29.9841H32.1923C31.64 29.9841 31.1923 29.5364 31.1923 28.9841V20.4445C31.1923 19.8922 31.64 19.4445 32.1923 19.4445Z" fill="#FE8604" fill-opacity="0.7"/>
<path d="M37.348 47.7073C34.2401 50.6352 31.0546 49.2238 29.2715 47.6275C28.8354 47.237 28.1575 47.1999 27.7403 47.6105L24.9542 50.3531C24.8322 50.4732 24.7412 50.6226 24.7006 50.7889C24.054 53.4409 25.7039 54.8079 26.7599 55.2249C26.8584 55.2638 26.9635 55.2791 27.0694 55.2791H39.2224C42.554 55.2791 42.1061 52.2895 41.4226 50.6708C41.3846 50.5809 41.3312 50.4989 41.2671 50.4252L38.9236 47.7339C38.519 47.2691 37.7965 47.2847 37.348 47.7073Z" fill="#FE8604" fill-opacity="0.7"/>
<ellipse cx="33.3339" cy="41.5784" rx="5.35344" ry="5.26979" fill="#FE8604" fill-opacity="0.7"/>
<ellipse cx="55.8183" cy="41.5784" rx="5.35344" ry="5.26979" fill="#FE8604" fill-opacity="0.7"/>
<path d="M59.9074 47.4214C56.7671 49.625 53.5356 48.5793 51.7412 47.405C51.3033 47.1184 50.712 47.1316 50.339 47.4988L47.9046 49.8951C47.8277 49.9709 47.7618 50.0606 47.7151 50.158C46.1896 53.3387 48.397 54.85 49.813 55.2485C49.8905 55.2703 49.9705 55.2793 50.051 55.2793H62.7781C66.1372 55.2793 64.9679 51.9022 63.9118 50.1146C63.8701 50.0439 63.8192 49.9804 63.7607 49.9229L61.2982 47.4988C60.9251 47.1316 60.3358 47.1207 59.9074 47.4214Z" fill="#FE8604" fill-opacity="0.7"/>
<path d="M30.9805 8.37695H42.758" stroke="#30347B" stroke-width="1.5"/>
<path d="M30.9805 13.6484H42.758" stroke="#30347B" stroke-width="1.5"/>
<path d="M34.1914 18.3906H43.2923" stroke="#30347B" stroke-width="1.5"/>
<path d="M31.3 27.8762C31.3 35.8911 24.6962 42.4086 16.525 42.4086C8.3538 42.4086 1.75 35.8911 1.75 27.8762C1.75 19.8612 8.3538 13.3438 16.525 13.3438C24.6962 13.3438 31.3 19.8612 31.3 27.8762Z" stroke="#30347B" stroke-width="1.5"/>
<path d="M3.14119 34.1992L1.53516 42.1039L9.02997 39.996" stroke="#30347B" stroke-width="1.5"/>
<path d="M50.7841 12.6465C50.7841 14.438 51.2391 18.9169 47.1441 22.0521L49.4191 26.9789L43.0492 25.6352C41.5325 26.531 37.5892 28.0538 33.9492 26.9789" stroke="#30347B" stroke-width="1.5"/>
<path d="M23.4844 12.6451C23.4844 8.16796 27.1244 1.00172 37.1343 1" stroke="#30347B" stroke-width="1.5"/>
<path d="M50.7812 12.647C50.7812 8.16991 47.1413 1.00368 37.1313 1.00195" stroke="#30347B" stroke-width="1.5"/>
<path d="M10.7624 22.9029L11.6167 23.9371L10.9332 26.0055L9.56641 26.1779V28.2463L10.9332 28.591L11.6167 30.487L10.9332 31.6936L12.3001 32.9002L13.496 32.2107L15.3754 33.0725L15.5463 34.2791H17.7674L17.9382 32.9002L19.8176 32.2107L21.0136 33.0725L22.3805 31.5212L21.5262 30.3147L22.3805 28.4186L23.7473 28.2463V26.0055L22.2096 25.8331L21.5262 23.9371L22.3805 22.9029L20.8428 21.3516L19.6468 22.2134L17.7674 21.1792V19.9727H15.5463L15.3754 21.3516L13.3252 22.2134L12.3001 21.3516L10.7624 22.9029Z" stroke="#30347B" stroke-width="1.5"/>
<path d="M19.748 27.212C19.748 28.8983 18.3947 30.2541 16.7393 30.2541C15.0838 30.2541 13.7305 28.8983 13.7305 27.212C13.7305 25.5257 15.0838 24.1699 16.7393 24.1699C18.3947 24.1699 19.748 25.5257 19.748 27.212Z" stroke="#30347B" stroke-width="1.5"/>
</svg>
