<svg version="1.2" xmlns="http://www.w3.org/2000/svg" viewBox="0 0 650 380" width="650" height="380">
	<title>explore tango lap-svg</title>
	<style>
		tspan { white-space:pre } 
		.s0 { fill: #dfe7ff } 
		.s1 { fill: #0056c7 } 
		.s2 { fill: #0036af } 
		.s3 { fill: #0172d2 } 
		.s4 { fill: #d7e5ff } 
		.s5 { fill: #aec3ff } 
		.s6 { fill: #2d2f62 } 
		.s7 { fill: #001030 } 
		.s8 { fill: #ffffff } 
		.s9 { fill: #e8e8f9 } 
		.s10 { fill: #2e3062 } 
		.s11 { fill: #fe8604 } 
		.s12 { fill: #739af0 } 
		.s13 { fill: #f99746 } 
		.s14 { opacity: .5;fill: #ebf3fa } 
		.s15 { fill: #ffb27d } 
		.s16 { fill: #233862 } 
		.s17 { fill: #ed975d } 
		.s18 { fill: #6b5dff } 
		.s19 { fill: #542ada } 
		.s20 { fill: #542bda } 
		.s21 { fill: #fba691 } 
		.s22 { fill: #524e84 } 
		.s23 { fill: #6b5eff } 
		.s24 { fill: #fb876b } 
		.s25 { fill: #d45c48 } 
		.s26 { fill: #f88800 } 
		.s27 { opacity: .4;fill: #ffffff } 
		.s28 { fill: #ffaa01 } 
		.s29 { fill: #fcfcfc } 
		.s30 { fill: #fdcc50 } 
		.s31 { fill: #f6f6f6 } 
	</style>
	<g id="&lt;Group&gt;">
		<g id="&lt;Group&gt;">
			<path id="&lt;Path&gt;" class="s0" d="m292.5 99c-17.2-63.5-94.8-84-139.2-36.5q-1 1.1-1.9 2.1c-63.8 70.5-33.7 244.2 99.3 288.2 133 44.1 271.4-36.3 279.1-108.2 7.8-71.9-53.5-94.5-148.8-74.4-53.8 11.4-77.8-31.6-88.5-71.2z"/>
			<path id="&lt;Path&gt;" class="s0" d="m444.8 345.8c-15.6 9-14.8 25.8 2 31.6 5.5 2 12.7 2.6 21.9 0.8 35-6.9 47.1-28.3 26.9-42.6-12.5-8.8-35.2 1.2-50.8 10.2z"/>
			<path id="&lt;Path&gt;" class="s0" d="m498.2 315.3c-5.1 7.3-1.2 15.9 7.5 16.2 2.9 0.1 6.2-0.7 9.9-3.1 14.1-9.3 14.9-22.4 2.9-26.6-7.4-2.6-15.3 6.3-20.3 13.5z"/>
		</g>
	</g>
	<g id="Folder 1">
		<g id="&lt;Group&gt;">
			<g id="&lt;Group&gt;">
				<path id="&lt;Path&gt;" class="s1" d="m102 271.4c10.4 6.9 19.3-0.9 25.3 6.7 5.9 7.7 15.3 9.5 20.7 2.8 5.3-6.7 8.8-11.9 17.9-6.9 9.1 5 21.5 1 20.4-7.9-0.2-2.3-0.5-4.7-0.8-7q-0.2-1-0.3-1.9 0-0.3 0-0.5c-1.2-9.5-9.4-16.7-18.9-16.5-3.9 0.1-7.6 1.4-10 4.9-7.6 11.2-12.2-1.8-21.7-1.2-10.9 0.7-12.2 11.1-20.3 10.8-11.3-0.4-22.6 9.7-12.3 16.7z"/>
			</g>
			<g id="&lt;Group&gt;">
				<g id="&lt;Group&gt;">
					<path id="&lt;Path&gt;" class="s2" d="m117.2 265.5l68.3-6.4q-0.2-1-0.3-1.9l-68.1 6.4c-0.6 0.1-1 0.5-0.9 1.1 0 0.5 0.5 0.9 1 0.8z"/>
				</g>
			</g>
		</g>
		<g id="&lt;Group&gt;">
			<g id="&lt;Group&gt;">
				<path id="&lt;Path&gt;" class="s3" d="m92.2 206.6c4 13.5 17.5 13.1 17.2 24.1-0.3 11 6.6 19.3 16.1 17.3 9.5-2 16.4-4 20.7 6.9 4.3 10.9 18.1 16.4 23.6 7.7 1.3-2.1 2.8-4.4 4.2-6.7q0.6-0.9 1.2-1.9 0.1-0.2 0.3-0.4c5.7-9.2 3.8-21.3-4.7-28-3.4-2.7-7.6-4.3-12.2-2.9-14.7 4.3-9.4-10.4-18.1-16.7-10.1-7.1-18.7 1-25.6-5.1-9.6-8.6-26.7-7.8-22.7 5.7z"/>
			</g>
			<g id="&lt;Group&gt;">
				<g id="&lt;Group&gt;">
					<path id="&lt;Path&gt;" class="s1" d="m109.7 212.5l64.3 43.4q0.6-0.9 1.2-1.9l-64.3-43.4c-0.5-0.3-1.2-0.2-1.5 0.3-0.4 0.5-0.2 1.2 0.3 1.6z"/>
				</g>
			</g>
		</g>
	</g>
	<g id="Folder 1 copy">
		<g id="&lt;Group&gt;">
			<g id="&lt;Group&gt;">
				<path id="&lt;Path&gt;" class="s1" d="m532.2 228.2c-8.8 5.9-16.5-0.8-21.6 5.8-5.1 6.5-13.1 8-17.7 2.3-4.5-5.7-7.6-10.1-15.3-5.9-7.8 4.3-18.4 0.9-17.5-6.7 0.3-1.9 0.5-4 0.8-6q0.1-0.8 0.2-1.7 0-0.1 0-0.3c1.1-8.1 8-14.3 16.2-14.1 3.3 0 6.4 1.1 8.5 4.2 6.5 9.5 10.5-1.6 18.5-1.1 9.3 0.6 10.5 9.5 17.4 9.3 9.7-0.4 19.3 8.2 10.5 14.2z"/>
			</g>
			<g id="&lt;Group&gt;">
				<g id="&lt;Group&gt;">
					<path id="&lt;Path&gt;" class="s2" d="m519.2 223.2l-58.3-5.5q0.1-0.8 0.2-1.7l58.3 5.6c0.4 0 0.7 0.4 0.7 0.9 0 0.4-0.4 0.8-0.9 0.7z"/>
				</g>
			</g>
		</g>
		<g id="&lt;Group&gt;">
			<g id="&lt;Group&gt;">
				<path id="&lt;Path&gt;" class="s3" d="m540.6 172.8c-3.4 11.6-15 11.2-14.7 20.6 0.2 9.4-5.7 16.5-13.8 14.8-8.1-1.7-14-3.4-17.7 5.9-3.6 9.3-15.4 14-20.1 6.6-1.2-1.8-2.4-3.8-3.7-5.7q-0.5-0.8-1-1.6-0.1-0.2-0.2-0.4c-4.9-7.8-3.3-18.2 4-24 2.9-2.3 6.5-3.6 10.5-2.4 12.5 3.7 8-8.9 15.5-14.3 8.5-6.1 15.9 0.8 21.8-4.4 8.2-7.3 22.9-6.6 19.4 4.9z"/>
			</g>
			<g id="&lt;Group&gt;">
				<g id="&lt;Group&gt;">
					<path id="&lt;Path&gt;" class="s1" d="m525.7 177.8l-55.1 37.2q-0.5-0.8-1-1.6l55-37.1c0.5-0.3 1-0.2 1.3 0.2 0.3 0.5 0.2 1-0.2 1.3z"/>
				</g>
			</g>
		</g>
	</g>
	<g id="earth" style="opacity: .4">
		<path id="&lt;Path&gt;" class="s4" d="m551.7 79.8q0 5.3-0.9 10.5c-1.5 8.1-4.6 15.7-9.1 22.3-10.3 15.4-27.7 25.5-47.5 25.5-23.4 0-43.6-14.3-52.5-34.7q-1.8-4.1-2.9-8.4c-1.3-4.9-2-10-2-15.2 0-4.3 0.4-8.5 1.3-12.5q0 0 0-0.1c2.4-11 7.9-20.9 15.5-28.6q3.2-3.3 6.9-6.1 1.8-1.3 3.7-2.4c8.7-5.5 19-8.6 30-8.6q2.2 0 4.4 0.1 3 0.3 6 0.8c8.2 1.5 15.8 4.8 22.5 9.5 4.1 2.9 7.8 6.3 11 10.2q2.6 3.1 4.7 6.5 1.3 2.1 2.5 4.3c1.8 3.6 3.3 7.4 4.4 11.4 1.3 4.9 2 10.1 2 15.5z"/>
		<g id="&lt;Group&gt;">
			<path id="&lt;Path&gt;" class="s5" d="m474.7 53.7c-2.3 3.6 1 10-5.9 8.3-6.9-1.7-11.1-2.5-11.5 1.4-0.4 3.8 5.2 3.8 5.2 7.9 0 4.1-2.5 5.4-6.3 3.5-3.8-1.9-4.9-4.8-9.4-3-4.4 1.7-7 0.6-8-2.9q-0.3-0.9-0.7-1.6 0 0 0-0.1c2.4-11 7.9-20.9 15.5-28.6q3.2-3.3 6.9-6.1 1.8-1.3 3.7-2.4c1.8 0 3.9 0.7 5.7 3 4.1 5.1 6.7 2.5 5.8 8.3-1 5.9 0.6 6.6 3.8 6.4 3.2-0.2 7.1-0.2 7.5 2.4 0.3 2.5-10-0.2-12.3 3.5z"/>
			<path id="&lt;Path&gt;" class="s5" d="m498.5 88.6c0 0-5 1.6-6.4-2-1.3-3.6 0.2-4.3-4.3-5.4-4.5-1.1-4.9-4.2-7.7-3.8-2.9 0.4-1.5 1.6-4.8 4.1-3.3 2.5-6.4 1.3-6.3 6 0.1 4.6 5.1 5.4 6.1 8.4 1 3.1-0.8 4.4 1.4 6.7 2.1 2.3 6.2 1.3 4.3 4.5-1.9 3.2-4.7 5.7-3.3 10.6 1.4 5 0.4 5.3 2.9 8.8 2.4 3.4 7.1 4.6 7.8 2.3 0.8-2.3-3.3-5.4-2-7.7 1.3-2.4 3.5-0.8 4.3-4.2 0.9-3.5 4.4-3.5 4.7-6 0.3-2.4-4.2-6.1-2.5-7.6 1.7-1.6 5.2 2.8 7.8-1.1 2.7-3.9 0.9-7 3.7-10.6 2.7-3.7-3.8-5.2-5.7-3z"/>
			<path id="&lt;Path&gt;" class="s5" d="m551.7 79.8q0 5.3-0.9 10.5c-1.5 8.1-4.6 15.7-9.1 22.3-1.5 0.5-3 0.5-4.6-0.1-7.1-2.9-1.8-10.8 1-14.7 2.9-3.9-4.4-2.2-9.7-5.8-5.3-3.6 0.6-13.4-4.9-11.8-5.4 1.6-12 3.7-15.2-1.7-3.1-5.4 2.9-6.3 0.2-10.8-2.8-4.5 1.5-7.1 7-7.5 5.4-0.5 4.7-4.4 11.5-5 6.7-0.6 6.5 8.2 14 7.6 7.5-0.6 7.1 1.1 7.1 1.1q0.8 0 1.6 0.4c1.3 4.9 2 10.1 2 15.5z"/>
			<path id="&lt;Path&gt;" class="s5" d="m545.3 52.9c-6.2 3.1-8.7-5.2-14-2.7-5.3 2.5-4.4-2.4-8.6-5.5-4.2-3.1-12.6 2.6-12.2-2.3 0.3-4.8 6.7-3.5 8-7.4 1.3-3.8 7.4-2.9 7.4-2.9q0.6-0.2 1.2-0.2 0 0 0 0c4.1 2.9 7.8 6.3 11 10.2q2.6 3.1 4.7 6.5 1.3 2.1 2.5 4.3z"/>
			<path id="&lt;Path&gt;" class="s5" d="m493.1 36.2c0 0 3.2-4.7-1.9-6.1-5.2-1.4-5.1 0.4-9.1 0-4-0.5-5.6 2.7-2.6 6.1 3 3.5 5.4 10.1 8.2 6.5 2.7-3.5 2.2-6.1 5.4-6.5z"/>
		</g>
	</g>
	<g id="OBJECTS">
		<g id="&lt;Group&gt;">
			<g id="&lt;Group&gt;">
				<g id="&lt;Group&gt;">
					<g id="&lt;Group&gt;">
						<g id="&lt;Group&gt;">
						</g>
					</g>
				</g>
				<g id="&lt;Group&gt;">
					<g id="&lt;Group&gt;">
						<g id="&lt;Group&gt;">
						</g>
					</g>
				</g>
			</g>
			<g id="&lt;Group&gt;">
				<g id="&lt;Group&gt;">
					<g id="&lt;Group&gt;">
						<g id="&lt;Group&gt;">
						</g>
					</g>
				</g>
			</g>
			<g id="&lt;Group&gt;">
			</g>
			<g id="&lt;Group&gt;">
			</g>
		</g>
		<g id="&lt;Group&gt;">
			<path id="&lt;Path&gt;" class="s6" d="m497.1 92.9v242.1c0 2.2-1.8 4-4 4h-331.2c-1.1 0-2-0.4-2.7-1-0.9-0.7-1.4-1.8-1.4-3v-242.1c0-2.2 1.8-4 4.1-4h331.2c1.3 0 2.5 0.6 3.2 1.6 0.5 0.7 0.8 1.5 0.8 2.4z"/>
			<path id="&lt;Path&gt;" class="s7" d="m497.1 92.9v242.1c0 2.2-1.8 4-4 4h-331.2c-1.1 0-2-0.4-2.7-1l337.1-247.5c0.5 0.7 0.8 1.5 0.8 2.4z"/>
			<g id="&lt;Group&gt;">
				<path id="&lt;Path&gt;" class="s8" d="m167.5 107.7c0-5 4.1-9.2 9.2-9.2h301.5c5.1 0 9.3 4.2 9.3 9.2v212.5c0 5.1-4.2 9.2-9.3 9.2h-301.5c-5.1 0-9.2-4.1-9.2-9.2z"/>
			</g>
			<g id="&lt;Group&gt;">
				<path id="&lt;Path&gt;" class="s9" d="m487.5 103v15.6h-320v-15.6c0-2.5 2-4.5 4.4-4.5h311.1c2.5 0 4.5 2 4.5 4.5z"/>
				<g id="&lt;Group&gt;">
					<path id="&lt;Path&gt;" class="s8" d="m221.7 109.1c0 1.4 1.2 2.6 2.7 2.6h233.2c1.5 0 2.7-1.2 2.7-2.6 0-1.5-1.2-2.7-2.7-2.7h-233.2c-1.5 0-2.7 1.2-2.7 2.7z"/>
				</g>
				<path id="&lt;Path&gt;" class="s10" d="m185.3 109.1v1.9c0 0.6-0.7 1-1.1 0.7l-1.8-1-1.7-1c-0.5-0.3-0.5-1 0-1.3l1.7-1 1.8-0.9c0.4-0.3 1.1 0 1.1 0.6z"/>
				<path id="&lt;Path&gt;" class="s10" d="m194.1 109.1v1.9c0 0.6 0.6 1 1.1 0.7l1.7-1 1.8-1c0.4-0.3 0.4-1 0-1.3l-1.8-1-1.7-0.9c-0.5-0.3-1.1 0-1.1 0.6z"/>
			</g>
			<g id="&lt;Group&gt;">
				<path id="&lt;Path&gt;" class="s9" d="m438.1 139c0 6.4-5.2 11.5-11.5 11.5h-199c-6.3 0-11.5-5.1-11.5-11.5 0-6.3 5.2-11.5 11.5-11.5h199c6.3 0 11.5 5.2 11.5 11.5z"/>
				<g id="&lt;Group&gt;">
					<path id="&lt;Path&gt;" class="s11" d="m426.6 128h-31.6v23h31.6c6.3 0 11.5-5.2 11.5-11.5 0-6.3-5.2-11.5-11.5-11.5z"/>
				</g>
				<g id="&lt;Group&gt;">
					<g id="&lt;Group&gt;">
						<path id="&lt;Compound Path&gt;" fill-rule="evenodd" class="s8" d="m415.6 141.8c-2.1-2.1-2.3-5.5-0.3-7.7 2.1-2.2 5.5-2.3 7.7-0.3 2.2 2 2.3 5.5 0.3 7.7-2 2.2-5.5 2.3-7.7 0.3zm6.2-6.7c-1.5-1.3-3.8-1.2-5.1 0.2-1.4 1.5-1.3 3.8 0.2 5.2 1.4 1.3 3.7 1.2 5.1-0.2 1.3-1.5 1.2-3.8-0.2-5.2z"/>
					</g>
					<g id="&lt;Group&gt;">
						<path id="&lt;Path&gt;" class="s8" d="m409.7 148.2c-0.4-0.3-0.4-0.9-0.1-1.2l6-6.5c0.3-0.4 0.9-0.4 1.3 0 0.3 0.3 0.3 0.9 0 1.2l-6 6.5c-0.3 0.3-0.9 0.4-1.2 0z"/>
					</g>
				</g>
			</g>
			<g id="&lt;Group&gt;">
				<path id="&lt;Compound Path&gt;" fill-rule="evenodd" class="s9" d="m206.3 252.2q-0.7 1.3-1.7 2.5l2.5 3.8-4.1 2.8-2.5-3.6q-1.5 0.6-3.1 0.8l-1 5-4.9-0.9 0.9-4.7c-1.3-0.4-2.6-1.1-3.7-2.1l-3.8 2.6-2.7-4.2 3.6-2.4q-0.8-1.9-0.9-3.8l-4.2-0.8 1-4.9 4 0.7c0.6-1.3 1.4-2.6 2.5-3.7l-2.4-3.6 4.1-2.8 2.6 3.8q1.5-0.5 3-0.6l0.9-4.7 4.9 0.9-0.9 4.6c1.4 0.6 2.6 1.4 3.7 2.5l3.7-2.4 2.7 4.2-3.7 2.5q0.6 1.8 0.6 3.6l4.6 0.9-1 4.9zm-6.3-7.4c-1.4-2.1-4.3-2.6-6.4-1.2-2.1 1.4-2.7 4.2-1.3 6.3 1.5 2.1 4.3 2.7 6.4 1.3 2.1-1.4 2.7-4.3 1.3-6.4z"/>
				<path id="&lt;Compound Path&gt;" fill-rule="evenodd" class="s9" d="m465.6 146.9q-0.4 0.8-0.9 1.4l1.4 2.1-2.3 1.5-1.3-2q-0.9 0.4-1.8 0.5l-0.5 2.7-2.7-0.5 0.5-2.5q-1.1-0.4-2-1.2l-2.1 1.4-1.5-2.3 2-1.3q-0.4-1-0.5-2.1l-2.3-0.4 0.6-2.7 2.2 0.4q0.4-1.1 1.3-2l-1.3-2 2.3-1.5 1.4 2.1q0.8-0.3 1.6-0.4l0.5-2.5 2.7 0.5-0.5 2.5q1.1 0.5 2 1.4l2-1.4 1.5 2.3-2 1.4q0.3 1 0.3 2l2.5 0.5-0.5 2.6zm-3.5-4c-0.8-1.2-2.3-1.5-3.5-0.7-1.1 0.8-1.4 2.3-0.6 3.5 0.7 1.1 2.3 1.4 3.4 0.7 1.2-0.8 1.5-2.4 0.7-3.5z"/>
				<path id="&lt;Compound Path&gt;" fill-rule="evenodd" class="s9" d="m196.9 174.4q-0.3 0.8-0.9 1.4l1.4 2.1-2.2 1.5-1.4-2q-0.8 0.4-1.7 0.5l-0.5 2.7-2.7-0.5 0.5-2.5q-1.1-0.4-2-1.2l-2.1 1.4-1.5-2.3 2-1.3q-0.5-1-0.5-2.1l-2.3-0.4 0.5-2.7 2.2 0.4q0.5-1.1 1.4-2l-1.3-2 2.2-1.5 1.4 2.1q0.8-0.3 1.7-0.4l0.5-2.5 2.6 0.5-0.5 2.5q1.2 0.5 2.1 1.4l2-1.4 1.5 2.3-2.1 1.4q0.3 1 0.4 2l2.5 0.4-0.6 2.7zm-3.4-4c-0.8-1.2-2.4-1.5-3.5-0.7-1.1 0.8-1.5 2.3-0.7 3.5 0.8 1.1 2.3 1.4 3.5 0.7 1.1-0.8 1.4-2.4 0.7-3.5z"/>
			</g>
			<g id="lines">
				<path id="&lt;Path&gt;" class="s12" d="m217.4 196.2h-42c-1.4 0-2.6-1.3-2.6-2.9 0-1.6 1.2-2.9 2.6-2.9h42c1.5 0 2.6 1.3 2.6 2.9 0 1.6-1.1 2.9-2.6 2.9z"/>
				<g id="&lt;Group&gt;">
					<path id="&lt;Path&gt;" class="s12" d="m172.8 181.3c0-1.6 1.3-2.9 2.9-2.9h73.4c1.6 0 2.9 1.3 2.9 2.9 0 1.5-1.3 2.8-2.9 2.8h-73.4c-1.6 0-2.9-1.3-2.9-2.8z"/>
					<path id="&lt;Path&gt;" class="s12" d="m259.2 181.3c0-1.6 1.3-2.9 2.9-2.9h68.2c1.6 0 2.9 1.3 2.9 2.9 0 1.5-1.3 2.8-2.9 2.8h-68.2c-1.6 0-2.9-1.3-2.9-2.8z"/>
					<path id="&lt;Path&gt;" class="s12" d="m269.7 196.2h-41.9c-1.5 0-2.7-1.3-2.7-2.9 0-1.6 1.2-2.9 2.7-2.9h41.9c1.5 0 2.7 1.3 2.7 2.9 0 1.6-1.2 2.9-2.7 2.9z"/>
				</g>
				<path id="&lt;Path&gt;" class="s13" d="m276.4 163c0-2.3 1.8-4.2 4.2-4.2h83c2.3 0 4.2 1.9 4.2 4.2 0 2.3-1.9 4.2-4.2 4.2h-83c-2.4 0-4.2-1.9-4.2-4.2z"/>
				<path id="&lt;Path&gt;" class="s13" d="m172.8 163c0-2.3 1.9-4.2 4.2-4.2h83c2.4 0 4.3 1.9 4.3 4.2 0 2.3-1.9 4.2-4.3 4.2h-83c-2.3 0-4.2-1.9-4.2-4.2z"/>
			</g>
			<g id="lines copy 2">
				<path id="&lt;Path&gt;" class="s12" d="m218.9 304.9h-42c-1.5 0-2.7-1.3-2.7-2.9 0-1.6 1.2-2.9 2.7-2.9h42c1.4 0 2.6 1.3 2.6 2.9 0 1.6-1.2 2.9-2.6 2.9z"/>
				<g id="&lt;Group&gt;">
					<path id="&lt;Path&gt;" class="s12" d="m174.2 290c0-1.6 1.3-2.9 2.9-2.9h73.5c1.6 0 2.9 1.3 2.9 2.9 0 1.5-1.3 2.8-2.9 2.8h-73.5c-1.6 0-2.9-1.3-2.9-2.8z"/>
					<path id="&lt;Path&gt;" class="s12" d="m260.7 290c0-1.6 1.3-2.9 2.9-2.9h68.2c1.6 0 2.9 1.3 2.9 2.9 0 1.5-1.3 2.8-2.9 2.8h-68.2c-1.6 0-2.9-1.3-2.9-2.8z"/>
					<path id="&lt;Path&gt;" class="s12" d="m271.2 304.9h-42c-1.4 0-2.6-1.3-2.6-2.9 0-1.6 1.2-2.9 2.6-2.9h42c1.5 0 2.7 1.3 2.7 2.9 0 1.6-1.2 2.9-2.7 2.9z"/>
				</g>
				<path id="&lt;Path&gt;" class="s13" d="m277.8 271.7c0-2.3 1.9-4.2 4.2-4.2h83.1c2.3 0 4.2 1.9 4.2 4.2 0 2.3-1.9 4.2-4.2 4.2h-83.1c-2.3 0-4.2-1.9-4.2-4.2z"/>
				<path id="&lt;Path&gt;" class="s13" d="m174.2 271.7c0-2.3 1.9-4.2 4.3-4.2h83c2.3 0 4.2 1.9 4.2 4.2 0 2.3-1.9 4.2-4.2 4.2h-83c-2.4 0-4.3-1.9-4.3-4.2z"/>
			</g>
			<g id="lines copy">
				<path id="&lt;Path&gt;" class="s12" d="m215.9 250.5h-41.9c-1.5 0-2.7-1.3-2.7-2.8 0-1.6 1.2-2.9 2.7-2.9h41.9c1.5 0 2.7 1.3 2.7 2.9 0 1.5-1.2 2.8-2.7 2.8z"/>
				<g id="&lt;Group&gt;">
					<path id="&lt;Path&gt;" class="s12" d="m171.3 235.6c0-1.6 1.3-2.9 2.9-2.9h73.5c1.6 0 2.8 1.3 2.8 2.9 0 1.6-1.2 2.9-2.8 2.9h-73.5c-1.6 0-2.9-1.3-2.9-2.9z"/>
					<path id="&lt;Path&gt;" class="s12" d="m257.8 235.6c0-1.6 1.3-2.9 2.8-2.9h68.3c1.6 0 2.8 1.3 2.8 2.9 0 1.6-1.2 2.9-2.8 2.9h-68.3c-1.5 0-2.8-1.3-2.8-2.9z"/>
					<path id="&lt;Path&gt;" class="s12" d="m268.3 250.5h-42c-1.4 0-2.6-1.3-2.6-2.8 0-1.6 1.2-2.9 2.6-2.9h42c1.5 0 2.6 1.3 2.6 2.9 0 1.5-1.1 2.8-2.6 2.8z"/>
				</g>
				<path id="&lt;Path&gt;" class="s13" d="m274.9 217.4c0-2.4 1.9-4.3 4.2-4.3h83.1c2.3 0 4.2 1.9 4.2 4.3 0 2.3-1.9 4.2-4.2 4.2h-83.1c-2.3 0-4.2-1.9-4.2-4.2z"/>
				<path id="&lt;Path&gt;" class="s13" d="m171.3 217.4c0-2.4 1.9-4.3 4.2-4.3h83.1c2.3 0 4.2 1.9 4.2 4.3 0 2.3-1.9 4.2-4.2 4.2h-83.1c-2.3 0-4.2-1.9-4.2-4.2z"/>
			</g>
			<g id="videos">
				<path id="&lt;Path&gt;" class="s14" d="m377.1 158.8h55v29.1h-55z"/>
				<path id="&lt;Path&gt;" class="s12" d="m398.4 165.9v14.9l12.4-7.5z"/>
			</g>
			<g id="videos copy 2">
				<path id="&lt;Path&gt;" class="s14" d="m378.5 267.5h55.1v29.1h-55.1z"/>
				<path id="&lt;Path&gt;" class="s12" d="m399.8 274.6v14.9l12.5-7.5z"/>
			</g>
			<g id="videos copy">
				<path id="&lt;Path&gt;" class="s14" d="m379.5 216.5h55v29.2h-55z"/>
				<path id="&lt;Path&gt;" class="s12" d="m400.8 223.6v15l12.4-7.5z"/>
			</g>
		</g>
		<g id="&lt;Group&gt;">
			<g id="&lt;Group&gt;">
				<path id="&lt;Path&gt;" class="s15" d="m223.1 125.8c-0.5 0.5-0.6 1.1-0.3 1.7q0 0 0 0c0.4 1.2 1.8 2.4 3.4 3.7q0.3 0.2 0.6 0.4 0 0.1 0.1 0.1 0 0.1 0.1 0.1c1.5 1.3 0.9 1.7 3.7 4.4 3.1 3.1 5.2 3.2 5.8 2.9 0.5-0.3-0.5-1.9-1.7-3.8q-0.1-0.1-0.1-0.2-0.3-0.4-0.5-0.8c-1.4-2.2-1-3.3-0.7-6.6 0.3-2.7 4.4-15.1 4.4-15.1l-6-1c0 0-1.8 9.9-3.7 11.4-1.1 0.8-2.3 0.8-3.3 1.4q-0.1 0.1-0.2 0.2c-0.6 0.3-1.2 0.7-1.6 1.2z"/>
				<path id="&lt;Path&gt;" class="s16" d="m223.1 125.8c-0.5 0.5-0.6 1.1-0.3 1.7q0 0 0 0c0.5 1.2 1.9 2.4 3.4 3.7q0.3 0.2 0.6 0.4 0 0.1 0.1 0.1 0 0.1 0.1 0.1c1.5 1.3 0.9 1.7 3.7 4.4 3.1 3.1 5.2 3.2 5.8 2.9 0.5-0.3-0.5-1.9-1.7-3.8-0.6-0.2-3.4-1.3-5.5-3.9-1.8-2.2-3-5-4.3-6.8-0.1 0-0.2 0-0.3 0-0.6 0.3-1.2 0.7-1.6 1.2z"/>
				<path id="&lt;Path&gt;" class="s15" d="m271.1 122.3c0.3 1.7 3 1.4 5.9 0.7 2.9-0.6 2.2 0.2 6.4-0.3 4.1-0.4 5.4-1.9 5.5-2.5 0.1-0.5-1.9-0.7-4.1-1q-0.4 0-0.9-0.1c-2.4-0.3-4.3-1.8-6.5-3.1-2.2-1.2-5.4-6.1-5.4-6.1l-5.7 0.4c0 0 3 4.4 4.2 6.3 0.6 1.2 0.6 2.6 0.5 3.8 0 0.6-0.1 1.2 0.1 1.9z"/>
				<path id="&lt;Path&gt;" class="s16" d="m277 123c2.9-0.6 2.2 0.2 6.4-0.3 4.1-0.4 5.4-1.9 5.5-2.5 0.1-0.5-1.9-0.7-4.1-1v0.1c0 0-2.5 1.7-6 1.8-2.8 0-5.8-0.7-7.8-0.7 0 0.6-0.1 1.2 0.1 1.9 0.3 1.7 3 1.4 5.9 0.7z"/>
				<path id="&lt;Path&gt;" class="s6" d="m249.2 87.1l-5.4 13.8-6.9 18.1c0 0-1.9 0.2-3.7-0.3-1.7-0.5-3.6-1.7-3.6-1.7 0 0 1.9-19.4 5.5-30.5 1-2.9 2-5.2 3.2-6.5 5.6-6.4 10.9 7.1 10.9 7.1z"/>
				<path id="&lt;Path&gt;" class="s6" d="m243.8 65.1c-3.1-0.9-11 0-19.6 1.5-2.4 0.4-4.8-0.6-6-2.6l-21.7-1.6c0 0-7.1 15.2-3.2 24.9 0.6 1.4 1.8 2.3 3.8 2.4q0 0 0 0c0 0 13 0 17.2 0 10.8 0 22.8-7.1 24.4-7.4 2.5-0.5 3.5 4.4 6.1 9.5 2.5 5.2 23.9 22.8 23.9 22.8 0 0 3.3 0.1 4.6-0.4 1.5-0.6 2-1.2 2-1.2 0 0-23.6-45.4-31.5-47.9z"/>
				<path id="&lt;Compound Path&gt;" class="s16" d="m215.9 2.8c-1.6-0.9-3.2-1.1-4.1-1q-1 0-2-0.2c-8.3-1.1-13.3 10.4-13.6 13.9-0.5 6.4-4 7.4-9 11.4-9.9 8.1-7 17.4-1.6 20.9 3.3 2.1 9 0 9 0 0.1 0 15.7-8.4 23.5-12.5 11.5-1.6 2.4-29.8-2.2-32.5z"/>
				<path id="&lt;Path&gt;" class="s15" d="m211.6 31.8c0 0-3.8 1.3-6.4 0.2-2.4-1-4.2-4.8-4.1-4.8 1-0.1 2.2-1 3.2-7.1l0.4 0.2 7.9 2.7c0 0-0.6 2.4-1 4.7-0.3 2-0.4 3.8 0 4.1z"/>
				<path id="&lt;Path&gt;" class="s17" d="m212.6 23c0 0-0.3 1.3-0.8 3.8-4.5-0.8-6.4-4.2-7.1-6.5z"/>
				<path id="&lt;Path&gt;" class="s15" d="m213.7 25.4c0 0-10.7-1.4-9.7-7.8 1-6.4 0.3-10.9 7.2-10.3 6.9 0.6 7.8 3.3 8.1 5.5 0.2 2.2-2.7 12.8-5.6 12.6z"/>
				<path id="&lt;Path&gt;" class="s16" d="m218.9 9.3c0 0-6.9 5.7-11.6 6.1-4.7 0.5-6.4-1-6.4-1 0 0 2.7-2.2 4.4-5.7 0.5-1.1 1.5-1.8 2.7-1.9 3.3-0.2 9.7-0.4 10.9 2.5z"/>
				<path id="&lt;Path&gt;" class="s16" d="m214.6 8.8c0 0 2.3 2.1 3 3.7 0.7 1.5 0.9 5.2 0.3 6.6 0 0 3.6-6.7 1.6-9.9-2.2-3.5-4.9-0.4-4.9-0.4z"/>
				<path id="&lt;Path&gt;" class="s18" d="m220.6 47c-0.3 20.9-0.1 16.6-2.4 18.5-0.6 0.5-2.2 0.8-4.3 0.9-6.7 0.5-18.4-0.6-18.9-1.8-1.5-4.1-0.4-5.4-1.7-11.6q-0.2-1-0.5-2.2c-1-4.3-2.1-5.8 1.7-12.7 3.5-6.3 7-11.4 7.3-11.2 9.1 5.2 9.8 0.8 9.8 0.8 0 0 9.2 9.1 9 19.3z"/>
				<path id="&lt;Path&gt;" class="s16" d="m243.8 100.9l-6.9 18.1c0 0-1.9 0.2-3.7-0.3-1.7-0.5-3.6-1.7-3.6-1.7 0 0 1.9-19.4 5.5-30.5z"/>
				<path id="&lt;Path&gt;" class="s19" d="m211.6 27.7c0 0 9.4 1.6 10.5 5.4 1.1 3.9 4.7 27.4 4.7 27.4 0 0-2.7 2.5-4.9 0.3-2.2-2.1-6.8-21.9-6.8-21.9z"/>
				<path id="&lt;Path&gt;" class="s19" d="m213.9 66.4c-6.7 0.5-18.4-0.6-18.9-1.8-1.5-4.1-0.4-5.4-1.7-11.6l3.2-8.7c0 0-0.5 9.7 2.5 12.2 2.9 2.6 12.1 4.9 13.6 7.1 0.7 1 1.1 2 1.3 2.8z"/>
				<path id="&lt;Path&gt;" class="s15" d="m206.2 62.4c0 0 6.6-1.4 7.7-0.9 1 0.6 3.6 2.6 3.9 3.3 0.4 0.7-2.3-0.5-3.2-0.7-0.6-0.2-2.1 0.3-2.8 0.6-3.1 0.9-5 0.4-5 0.4z"/>
				<path id="&lt;Path&gt;" class="s19" d="m201.8 26.9c0 0-8.8 0.5-11.8 4.6-4.3 5.8-12.9 30.4-8 33.7 5.5 3.7 25.1 0.9 25.1 0.9 0 0 0.6-2.9-0.3-4.3-0.9-1.4-15.6-3.7-16.3-4.4-0.7-0.6 8.5-12.7 8.5-14.6 0-2 2.8-15.9 2.8-15.9z"/>
				<path id="&lt;Path&gt;" class="s15" d="m214.2 63.3c0 0 1.3 1.7 1.8 1.9 0.5 0.2 0.7 0.1 0.7 0.1l-0.9-1.6z"/>
				<path id="&lt;Path&gt;" class="s15" d="m213.9 61.5l4 1.9c0 0-0.2 0.3-0.7 0.2-0.5 0-1.7-0.4-1.7-0.4z"/>
			</g>
			<g id="&lt;Group&gt;">
				<path id="&lt;Path&gt;" class="s11" d="m248 65.9h-41.8v0.9h41.5z"/>
				<path id="&lt;Path&gt;" class="s11" d="m216 66.8h31.7l9.5-22.8h-31.6z"/>
				<path id="&lt;Path&gt;" class="s8" d="m239.7 55.4c0.2-0.8-0.3-1.4-1.1-1.4-0.8 0-1.7 0.6-1.9 1.4-0.3 0.8 0.2 1.5 1 1.5 0.9 0 1.7-0.7 2-1.5z"/>
			</g>
		</g>
		<g id="man">
			<path id="&lt;Path&gt;" class="s9" d="m162.1 372.3c-26.1 0-47.2-2.8-47.2-6.3 0-3.5 21.1-6.3 47.2-6.3 26.1 0 47.2 2.8 47.2 6.3 0 3.5-21.1 6.3-47.2 6.3z"/>
			<g id="&lt;Group&gt;">
				<g id="&lt;Group&gt;">
					<path id="&lt;Path&gt;" class="s20" d="m175.6 211.1c4.4 15.9 18.8 20.3 18.8 20.3 5.7-1.2 9.3-2.9 12.9-4.9-1.1-2.5-1.5-5.1-2.1-8.5-5.3 1.5-9.9 2.3-9.9 2.3-11.2-5.2-18-30.1-18-30.1-6.7 6.3-1.7 20.9-1.7 20.9z"/>
				</g>
				<g id="&lt;Group&gt;">
					<g id="&lt;Group&gt;">
						<path id="&lt;Path&gt;" class="s21" d="m137.9 338.9l-4.7 6.3c0 0 0.9 2.9 4.4 5l5.6-7.2z"/>
					</g>
					<g id="&lt;Group&gt;">
						<g id="&lt;Group&gt;">
							<g id="&lt;Group&gt;">
								<path id="&lt;Path&gt;" class="s11" d="m136.8 348.3c0 0 2.2-0.5 2.9 0.3 0.8 0.7 2.7 11.2 4.5 13.4 1.8 2.3 0 3.5-1.1 4-1.1 0.5-16.8-15.2-16.8-15.2 0 0 3.9-5.4 5.7-6.4 1.9-1.1 2.8 2.8 4.8 3.9z"/>
							</g>
						</g>
						<g id="&lt;Group&gt;">
							<g id="&lt;Group&gt;">
								<g id="&lt;Group&gt;">
									<path id="&lt;Path&gt;" class="s8" d="m137.1 354.4q-0.2-0.1-0.3-0.3c0-0.2 0-0.4 0.3-0.5 0 0 1.6-0.7 2.9-0.5 1.8 0.3 2.2 1.8 2.2 1.9 0.1 0.2 0 0.4-0.3 0.5-0.2 0-0.4-0.1-0.5-0.3 0 0-0.3-1.1-1.5-1.3-1.1-0.2-2.5 0.5-2.5 0.5q-0.2 0-0.3 0z"/>
								</g>
							</g>
							<g id="&lt;Group&gt;">
								<g id="&lt;Group&gt;">
									<path id="&lt;Path&gt;" class="s8" d="m136.8 352.7q-0.1-0.1-0.2-0.2c-0.1-0.2 0-0.5 0.2-0.6 0.1 0 1.7-0.7 3-0.5 1.7 0.4 2.1 1.8 2.2 1.9 0 0.2-0.1 0.4-0.3 0.5-0.2 0.1-0.5 0-0.5-0.3 0 0-0.3-1-1.6-1.3-1-0.1-2.5 0.5-2.5 0.5q-0.1 0.1-0.3 0z"/>
								</g>
							</g>
							<g id="&lt;Group&gt;">
								<g id="&lt;Group&gt;">
									<path id="&lt;Path&gt;" class="s8" d="m137.8 356.1q-0.2 0-0.2-0.2c-0.1-0.2 0-0.4 0.2-0.5 0-0.1 1.7-0.8 3-0.5 1.7 0.3 2.1 1.8 2.1 1.8 0.1 0.2 0 0.5-0.2 0.5-0.2 0.1-0.5 0-0.5-0.2 0-0.1-0.4-1.1-1.6-1.3-1-0.2-2.5 0.4-2.5 0.4q-0.2 0.1-0.3 0z"/>
								</g>
							</g>
						</g>
					</g>
				</g>
				<g id="&lt;Group&gt;">
					<g id="&lt;Group&gt;">
						<path id="&lt;Path&gt;" class="s21" d="m167 349.8l0.7 7.9c0 0 2.5 1.5 6.6 0.8l-0.6-9.3z"/>
					</g>
					<g id="&lt;Group&gt;">
						<g id="&lt;Group&gt;">
							<g id="&lt;Group&gt;">
								<path id="&lt;Path&gt;" class="s11" d="m172.9 357.4c0 0 1.4-2 2.5-1.9 1.1 0.1 9.9 6.8 12.9 7.4 2.9 0.5 2.4 2.7 1.9 3.8-0.6 1.1-23.6 0.5-23.6 0.5 0 0-0.9-7.5-0.1-9.6 0.7-2.1 4.1 0.3 6.4-0.2z"/>
							</g>
						</g>
						<g id="&lt;Group&gt;">
							<g id="&lt;Group&gt;">
								<g id="&lt;Group&gt;">
									<path id="&lt;Path&gt;" class="s8" d="m178.6 362.4q-0.2 0-0.3-0.1c-0.2-0.1-0.3-0.3-0.2-0.5 0-0.1 0.8-1.7 2-2.3 1.5-0.9 2.8 0 2.8 0 0.2 0.2 0.3 0.4 0.1 0.6-0.1 0.2-0.3 0.3-0.5 0.1-0.1 0-0.9-0.6-2 0-1 0.5-1.7 2-1.7 2q-0.1 0.1-0.2 0.2z"/>
								</g>
							</g>
							<g id="&lt;Group&gt;">
								<g id="&lt;Group&gt;">
									<path id="&lt;Path&gt;" class="s8" d="m177.3 361.3q-0.1 0-0.3-0.1c-0.2-0.1-0.3-0.3-0.2-0.5 0.1-0.1 0.9-1.7 2-2.3 1.5-0.9 2.8 0 2.9 0 0.2 0.2 0.2 0.4 0.1 0.6-0.1 0.2-0.4 0.2-0.6 0.1 0 0-0.9-0.6-2 0-0.9 0.5-1.6 1.9-1.7 2q0 0.1-0.2 0.2z"/>
								</g>
							</g>
							<g id="&lt;Group&gt;">
								<g id="&lt;Group&gt;">
									<path id="&lt;Path&gt;" class="s8" d="m180.3 363.3q-0.2 0-0.4-0.1c-0.2-0.1-0.2-0.3-0.1-0.5 0-0.1 0.8-1.7 1.9-2.3 1.6-0.9 2.9 0 2.9 0 0.2 0.2 0.2 0.4 0.1 0.6-0.1 0.2-0.4 0.2-0.5 0.1-0.1 0-1-0.6-2.1 0-0.9 0.5-1.6 2-1.6 2q-0.1 0.1-0.2 0.2z"/>
								</g>
							</g>
						</g>
					</g>
				</g>
				<g id="&lt;Group&gt;">
					<path id="&lt;Path&gt;" class="s7" d="m162.6 264.2l-4.8 39.6c0 0-4.3 5.9-8.4 13.3-3.4 6.3-12.6 22.5-12.6 22.5l5.5 4.2 30.4-31.4 8-48.6z"/>
					<path id="&lt;Path&gt;" class="s10" d="m143.7 343.7c-0.5 1.3-1.4 2.1-2.5 2.8l-6.4-5.4q0.8-1.7 2.2-3z"/>
				</g>
				<g id="&lt;Group&gt;">
					<path id="&lt;Path&gt;" class="s10" d="m138.1 265.9c0 0 8.5 21 19.6 37.3 0 0 1.7 16 4.5 24.4 1.3 3.8 3.7 21.4 3.7 21.4l8.4-0.4-2.2-49-8.9-35.4z"/>
					<path id="&lt;Path&gt;" class="s22" d="m175.1 348.3c0.5 1.5 0.4 2.9 0 4.4l-9.8 0.2q-0.6-2.1-0.4-4.2z"/>
				</g>
				<g id="&lt;Group&gt;">
					<g id="&lt;Group&gt;">
						<g id="&lt;Group&gt;">
							<g id="&lt;Group&gt;">
								<g id="&lt;Group&gt;">
									<path id="&lt;Path&gt;" class="s23" d="m177.3 190.2c1.3 1.6 3.8 17.8 4.2 34.1q0 0.6 0.1 1.2 0 2.6 0.1 5.2 0 2.6 0.1 5.1 0 4.2 0.1 8.2 0 0.4 0 0.9 0 3.9 0.1 7.3 0 0.5 0 0.9c0 3.5 0 6.6 0 9q0 0.6 0 1c0 1.8 0 3.1 0 4q-6.1 1.7-12.2 2.4-0.2 0-0.4 0.1-0.2 0-0.5 0-0.1 0-0.1 0-1.1 0.2-2.2 0.2-5.2 0.5-10.5 0.2-0.4 0-0.9 0-0.4 0-0.8-0.1-0.2 0-0.4 0-0.3 0-0.7 0-7.7-0.7-15.4-2.8c-0.1-2-0.1-6.1-0.1-11.4q0-0.5 0-0.9c0-5.9 0-13.1 0.1-20.6q0-0.8 0-1.7 0-1 0-2.1 0-0.2 0-0.3 0-0.3 0-0.5 0-0.5 0-1 0.1-0.7 0.1-1.4 0-0.5 0-1.1 0-1 0-2.1c0.3-14.7 0.8-28.3 1.7-31.7q0.1-0.5 0.3-0.7 0.1-0.2 0.3-0.5 0.3-0.3 0.7-0.6c1.5-1.5 4.3-3.1 7.1-4.7q0.4-0.3 0.9-0.6c0.1 0 7.6-2.6 7.6-2.6l7.9 0.6c0 0 10.9 4.7 12.8 7z"/>
								</g>
							</g>
						</g>
					</g>
					<g id="&lt;Group&gt;">
						<g id="&lt;Group&gt;">
							<path id="&lt;Path&gt;" class="s20" d="m145.6 211.5c0-0.4-0.4-0.6-0.7-0.3-3.1 4.2-5 8.7-6.2 12.3q-0.4 1.4-0.7 2.6 0 0.6 0 1.1 0 0.7-0.1 1.4 0 0.5 0 1 0 0.2 0 0.5 0 0.1 0 0.3c0.3-1.8 0.8-4.1 1.6-6.7 1.1-3.5 3-7.9 6.1-12q0-0.1 0-0.2z"/>
						</g>
					</g>
					<g id="&lt;Group&gt;">
						<g id="&lt;Group&gt;">
							<path id="&lt;Path&gt;" class="s20" d="m147.2 254.3q0 0 0 0c8.5 0 15.8-3.9 20.3-7.1 5-3.5 8-7.1 8-7.1 0.1-0.2 0.1-0.4 0-0.6-0.2-0.1-0.5-0.1-0.6 0.1 0 0-3 3.5-7.9 6.9-4.4 3.2-11.5 6.9-19.8 7-0.2 0-0.4 0.2-0.4 0.4 0 0.2 0.2 0.4 0.4 0.4z"/>
						</g>
					</g>
					<g id="&lt;Group&gt;">
						<g id="&lt;Group&gt;">
							<path id="&lt;Path&gt;" class="s20" d="m156.1 257.2c7.3 0 14.7-4.2 15-4.4 0.2-0.1 0.3-0.4 0.1-0.6-0.1-0.2-0.3-0.2-0.5-0.1-0.1 0-8.7 5-16.4 4.2-0.2-0.1-0.4 0.1-0.4 0.3 0 0.3 0.1 0.5 0.3 0.5q1 0.1 1.9 0.1z"/>
						</g>
					</g>
					<g id="&lt;Group&gt;">
						<g id="&lt;Group&gt;">
							<path id="&lt;Path&gt;" class="s20" d="m154 196c7.1-1.9 13-7.9 13.3-8.2 0.1-0.1 0.1-0.4 0-0.6-0.2-0.1-0.5-0.1-0.6 0-0.1 0.1-7.1 7.2-14.7 8.4-0.2 0.1-0.3 0.3-0.3 0.5 0 0.2 0.3 0.4 0.5 0.4q0.9-0.2 1.8-0.5z"/>
						</g>
					</g>
				</g>
				<g id="&lt;Group&gt;">
					<g id="&lt;Group&gt;">
						<path id="&lt;Path&gt;" class="s10" d="m148 163c0 7.1 4.4 12.1 11.6 12.1 7.2 0 12.2-5.3 12.2-12.5 0-7.2-4.3-12.6-11.4-12.6-8.6 0-12.4 5.8-12.4 13z"/>
						<path id="&lt;Path&gt;" class="s10" d="m148.2 164.9c0 0-2.5-3.8-1.2-6.7 1.4-3.1 0.7-2.4 1-4.7 0.4-2.2 2-3.2 4-3.5 2-0.3 0.6-2.6 3.4-3.4 2.7-0.8 4.9 2 6.7 0.8 1.7-1.3 6.1-2 7.3 0 1.2 1.9 2.3 1.9 3.6 1.8 1.6-0.1 3.6 2.4 2.2 4.6-1.4 2.3-3.8 1.4-3.4 3 0.3 1.5 2.3 4.3-0.4 7.8-0.8 1-23.2 0.3-23.2 0.3z"/>
						<g id="&lt;Group&gt;">
							<g id="&lt;Group&gt;">
								<path id="&lt;Path&gt;" class="s24" d="m149.6 166.1c0 0-1.9-2.7-3.4-0.5-1.5 2.2 0.6 8.7 4.2 7.1z"/>
							</g>
							<g id="&lt;Group&gt;">
								<g id="&lt;Group&gt;">
									<path id="&lt;Path&gt;" class="s25" d="m149.6 170.7c-0.1 0-0.2-0.1-0.3-0.2-0.5-2-2.6-2.8-2.6-2.9-0.2 0-0.3-0.2-0.2-0.3 0.1-0.2 0.2-0.3 0.4-0.2 0.1 0 2.4 0.9 3 3.2 0.1 0.2 0 0.3-0.2 0.4q0 0-0.1 0z"/>
								</g>
							</g>
							<g id="&lt;Group&gt;">
								<g id="&lt;Group&gt;">
									<path id="&lt;Path&gt;" class="s25" d="m147.5 169.7q-0.1 0-0.1-0.1c-0.2-0.1-0.2-0.2-0.1-0.4 0 0 0.4-0.6 1.1-0.9 0.2-0.1 0.4 0 0.4 0.1 0.1 0.2 0 0.4-0.1 0.4-0.6 0.3-0.9 0.7-0.9 0.7q-0.1 0.2-0.3 0.2z"/>
								</g>
							</g>
						</g>
						<g id="&lt;Group&gt;">
							<g id="&lt;Group&gt;">
								<path id="&lt;Path&gt;" class="s24" d="m170.2 166.1c0 0 2-2.7 3.4-0.5 1.5 2.2-0.6 8.7-4.2 7.1z"/>
							</g>
							<g id="&lt;Group&gt;">
								<g id="&lt;Group&gt;">
									<g id="&lt;Group&gt;">
										<path id="&lt;Path&gt;" class="s25" d="m170.2 170.7c0.1 0 0.2-0.1 0.3-0.2 0.5-2 2.6-2.8 2.6-2.9 0.2 0 0.3-0.2 0.2-0.3 0-0.2-0.2-0.3-0.4-0.2-0.1 0-2.4 0.9-3 3.2-0.1 0.2 0 0.3 0.2 0.4q0 0 0.1 0z"/>
									</g>
								</g>
							</g>
							<g id="&lt;Group&gt;">
								<g id="&lt;Group&gt;">
									<path id="&lt;Path&gt;" class="s25" d="m172.3 169.7q0.1 0 0.1-0.1c0.2-0.1 0.2-0.2 0.1-0.4 0 0-0.3-0.6-1.1-0.9-0.2-0.1-0.3 0-0.4 0.1-0.1 0.2 0 0.4 0.1 0.4 0.6 0.3 0.9 0.7 0.9 0.7q0.1 0.2 0.3 0.2z"/>
								</g>
							</g>
						</g>
						<g id="&lt;Group&gt;">
							<path id="&lt;Path&gt;" class="s21" d="m164.8 178.2v6.8c0 0-1.1 1.6-3.2 1.9-3 0.3-6.2-2.9-6.2-2.9v-5.4z"/>
						</g>
						<g id="&lt;Group&gt;">
							<path id="&lt;Path&gt;" class="s24" d="m164.8 178.2v2.9c-1.7 1.9-4.8 2.4-9.4 1.7v-4.2z"/>
						</g>
						<g id="&lt;Group&gt;">
							<path id="&lt;Path&gt;" class="s21" d="m148.6 165.9q0 0.6 0.1 1.2 0.1 1.4 0.4 2.9 0 0.1 0 0.1c0.9 4.8 2.8 9.4 7 10.9 9.5 3.4 12.9-4.7 14.3-9.5q0.2-0.8 0.4-1.7 0-0.1 0-0.1 0.2-1.1 0.3-2.2 0.1-0.9 0.2-1.8c0.1-1.4 0.2-2.8 0.3-4.1 0.1-2.8-1.6-5.5-4.3-6.5-3.9-1.5-9.8-2.7-15.4 0.5-2.1 1.1-3.4 3.3-3.4 5.7-0.1 1.3 0 2.9 0.1 4.6z"/>
						</g>
						<path id="&lt;Compound Path&gt;" fill-rule="evenodd" class="s10" d="m149.8 166.1c0 0 0.8 3.7 1.8 6.2 2.1-2.2 8.3 0 8.3 0 0 0 6.9-2.5 8.2 0.6 0.8-1.5 1.4-4.6 1.8-6.8l1.4-0.4q-0.1 0.9-0.2 1.8-0.1 1.1-0.3 2.2 0 0 0 0.1-0.2 0.9-0.4 1.7c-1.4 4.8-4.8 12.9-14.3 9.5-4.2-1.5-6.1-6.1-7-10.9q0 0 0-0.1-0.3-1.5-0.4-2.9-0.1-0.6-0.1-1.2zm4.4 10.4c2.6 2 6 2 7.7 1.6 1.4-0.3 2.9-1.1 4.3-2.6-0.2-1.4-1.5-2.7-6.5-2-6-1.5-5.7 1.8-5.5 3z"/>
						<path id="&lt;Path&gt;" class="s10" d="m155.9 167.7c-0.5 0-0.8-0.6-0.8-1.3 0-0.7 0.3-1.2 0.8-1.2 0.4 0 0.8 0.5 0.8 1.2 0 0.7-0.4 1.3-0.8 1.3z"/>
						<path id="&lt;Path&gt;" class="s10" d="m165.1 167.7c-0.5 0-0.8-0.6-0.8-1.3 0-0.7 0.3-1.2 0.8-1.2 0.4 0 0.8 0.5 0.8 1.2 0 0.7-0.4 1.3-0.8 1.3z"/>
						<path id="&lt;Path&gt;" class="s10" d="m167.3 162.2c0 0-2.5-1-4.4-0.2l0.2 1.1c0 0 2.8-0.3 4.2 0.3 0.2-0.4 0.2-0.8 0-1.2z"/>
						<path id="&lt;Path&gt;" class="s10" d="m152.8 162.2c0 0 2.5-1 4.4-0.2l-0.2 1.1c0 0-2.8-0.3-4.3 0.3-0.1-0.4-0.1-0.8 0.1-1.2z"/>
						<g id="&lt;Group&gt;">
							<g id="&lt;Group&gt;">
								<path id="&lt;Path&gt;" class="s24" d="m160.2 171.8c-0.5 0.1-1 0-1.1-0.1-0.2 0-0.3-0.2-0.2-0.3 0-0.2 0.2-0.3 0.3-0.2 0.3 0 1 0.1 1.3-0.1 0 0 0.1-0.1 0.1-0.3 0-1.1-0.7-4.6-0.8-4.6 0-0.2 0.1-0.3 0.3-0.4 0.1 0 0.3 0.1 0.3 0.3 0.1 0.1 0.8 3.6 0.8 4.7 0 0.4-0.2 0.7-0.3 0.8q-0.3 0.2-0.7 0.2z"/>
							</g>
						</g>
						<path id="&lt;Path&gt;" class="s8" d="m156 173.7c0.3 1.2 1.1 3.6 3.9 3.6 2.8 0 3.6-2.2 3.9-3.6z"/>
						<path id="&lt;Path&gt;" class="s10" d="m171.3 166.1h-1.4c0.1-1.4-0.4-3.1-0.8-4.2-0.9-2.5 1.1-3.7-0.5-4.9-1.7-1.3-5.7-0.8-8.6-0.8-2.8-0.1-7.4-0.1-8.5 0.2-1.1 0.2-0.5 2.1-0.1 3.5 0.4 1.4-1.3 3-1.6 4.5-0.1 0.4-0.1 1 0 1.7h-1.2c-0.1-1.8-0.2-3.5-0.1-4.8 0-2.4 1.3-4.6 3.4-5.7 5.6-3.2 11.5-2 15.4-0.5 2.7 1 4.4 3.7 4.3 6.5-0.1 1.4-0.2 3-0.3 4.5z"/>
						<g id="&lt;Group&gt;">
							<g id="&lt;Group&gt;">
								<path id="&lt;Compound Path&gt;" fill-rule="evenodd" class="s8" d="m165.1 170.7c-2.1 0-3.7-1.6-3.7-3.6 0-2.1 1.6-3.7 3.7-3.7 2 0 3.6 1.6 3.6 3.7 0 2-1.6 3.6-3.6 3.6zm3-3.6c0-1.7-1.3-3.1-3-3.1-1.7 0-3.1 1.4-3.1 3.1 0 1.7 1.4 3 3.1 3 1.7 0 3-1.3 3-3z"/>
							</g>
							<g id="&lt;Group&gt;">
								<path id="&lt;Compound Path&gt;" fill-rule="evenodd" class="s8" d="m155.1 170.7c-2 0-3.7-1.6-3.7-3.6 0-2.1 1.7-3.7 3.7-3.7 2 0 3.6 1.6 3.6 3.7 0 2-1.6 3.6-3.6 3.6zm3.1-3.6c0-1.7-1.4-3.1-3.1-3.1-1.7 0-3.1 1.4-3.1 3.1 0 1.7 1.4 3 3.1 3 1.7 0 3.1-1.3 3.1-3z"/>
							</g>
							<g id="&lt;Group&gt;">
								<path id="&lt;Path&gt;" class="s8" d="m168.1 165.9q0.1 0 0.2-0.1c0 0 1.7-1.6 3.8-1.1 0.2 0 0.4-0.1 0.4-0.2 0-0.2-0.1-0.3-0.2-0.4-2.5-0.6-4.3 1.2-4.4 1.3-0.1 0.1-0.1 0.3 0 0.4q0.1 0.1 0.2 0.1z"/>
							</g>
							<g id="&lt;Group&gt;">
								<path id="&lt;Path&gt;" class="s8" d="m152 165.9q0.1 0 0.2-0.1c0.1-0.2 0.1-0.4-0.1-0.4-0.1-0.1-2.6-1.8-4.8-1.4-0.2 0-0.3 0.2-0.3 0.3 0.1 0.2 0.2 0.3 0.4 0.2 1.9-0.3 4.4 1.3 4.4 1.3q0.1 0.1 0.2 0.1z"/>
							</g>
							<g id="&lt;Group&gt;">
								<path id="&lt;Path&gt;" class="s8" d="m158.5 166.2c0 0 0.7-0.9 1.6-0.9 0.9 0 1.5 0.9 1.5 0.9l0.5-0.3c0 0-0.8-1.2-2-1.2-1.2 0-2 1.2-2 1.2z"/>
							</g>
						</g>
					</g>
				</g>
				<g id="&lt;Group&gt;">
					<g id="&lt;Group&gt;">
						<path id="&lt;Path&gt;" class="s11" d="m194.5 229.5l8.1 6.2c1.1 0.8 2.5 0.6 3.3-0.4l15.8-20.6 6.6-8.5-11.9-9.1-3.9 5-18.4 24.1c-0.8 1-0.6 2.5 0.4 3.3z"/>
					</g>
					<g id="&lt;Group&gt;">
						<path id="&lt;Path&gt;" class="s26" d="m212.5 202.1c1.7 3.9 4.5 8.8 9.2 12.6l6.6-8.5-11.9-9.1z"/>
					</g>
					<path id="&lt;Path&gt;" class="s10" d="m170.3 268.9l0.5 0.4c1.9 1.5 4.6 1.1 6.1-0.8l25.4-33.1-7.4-5.6-25.4 33.1c-1.4 1.9-1.1 4.6 0.8 6z"/>
					<g id="&lt;Group&gt;">
						<path id="&lt;Compound Path&gt;" fill-rule="evenodd" class="s10" d="m271.1 138.4c18.3 14.2 21.6 40.6 7.4 58.9-14.2 18.4-40.5 21.7-58.9 7.5-18.3-14.2-21.6-40.6-7.4-58.9 14.2-18.3 40.5-21.7 58.9-7.5zm-47.5 61.3c15.5 12 37.8 9.2 49.8-6.3 12.1-15.5 9.2-37.9-6.3-49.9-15.5-12-37.8-9.2-49.8 6.3-12.1 15.5-9.2 37.9 6.3 49.9z"/>
						<path id="&lt;Path&gt;" class="s27" d="m211 162.4c-5.1 19 6.2 38.5 25.2 43.5q2.4 0.7 4.9 1c4.2 0.5 8.3 0.3 12.3-0.7 4.2-1 8.1-2.7 11.6-5 5.5-3.7 10.1-8.9 12.9-15.2q1.1-2.5 1.8-5.2c5.1-19-6.2-38.5-25.2-43.5q-2.7-0.8-5.4-1.1c-6.9-0.7-13.7 0.6-19.6 3.6-3.8 1.9-7.2 4.4-10.1 7.6-2.8 2.9-5.1 6.4-6.8 10.3q-0.9 2.3-1.6 4.7z"/>
						<path id="&lt;Path&gt;" class="s27" d="m229.5 139.8l35.5 61.4c5.5-3.7 10.1-8.9 12.9-15.2l-28.8-49.8c-6.9-0.7-13.7 0.6-19.6 3.6z"/>
						<path id="&lt;Path&gt;" class="s27" d="m212.6 157.7l28.5 49.2c4.2 0.5 8.3 0.3 12.3-0.7l-34-58.8c-2.8 2.9-5.1 6.4-6.8 10.3z"/>
					</g>
				</g>
				<g id="&lt;Group&gt;">
					<g id="&lt;Group&gt;">
						<path id="&lt;Path&gt;" class="s21" d="m177.2 247.2h1.5c1.3 0 2.2-0.8 2.8-1.9 0.3-0.5 0.6-1.5 0.8-1.8 0.7-0.9 2.5-2.4 3.2-2.4 0.7-0.1 0.6 1.2 0.1 1.8-0.5 0.5-1.3 1.2-1.7 2-0.4 0.8 3.4 2.4 4.9 2.8 1.5 0.4 4.2-0.5 4.5 0.8 0.2 1.3-1.8 1.5-1.8 1.5 0 0 0.6 1.1-1.1 2 0 0 0.3 1.2-0.7 1.7 0 0 0.1 1.5-1.2 1.8-1.2 0.4-5.1 1.5-12.8-3.1z"/>
					</g>
					<g id="&lt;Group&gt;">
						<g id="&lt;Group&gt;">
							<g id="&lt;Group&gt;">
								<g id="&lt;Group&gt;">
									<g id="&lt;Group&gt;">
										<path id="&lt;Path&gt;" class="s20" d="m151 214.7c2.9 10.9 5.7 15.7 5.7 15.7 0 0 3.2 5 9.9 9.7 4.6 3.2 12.1 7.1 12.1 7.1-1.3 1.6-2.2 4.9-1.7 5.9-15.5 0-29-14.6-29-14.6-10.8-18.9-11.5-34.2-11.3-39.8 0-1.9 0.6-3.9 1.7-5.5 0.5-0.9 1.2-1.6 2.1-2 0 0 4.6 1.7 6.2 7.1 1.6 5.5 4.3 16.4 4.3 16.4z"/>
									</g>
								</g>
							</g>
						</g>
					</g>
				</g>
				<g id="&lt;Group&gt;">
					<path id="&lt;Path&gt;" class="s21" d="m221 216.5c0 0-3.4-1.2-5-0.6-1.6 0.7 2.8 3.1 2.8 3.1 0 0-5.3-2.9-6.2-1.7-1 1.1 4.1 4 4.1 4 0 0-3.9-1.4-4.7-0.5-0.7 0.8 2.9 3 2.9 3 0 0-3.2-0.8-3.9-0.2-0.6 0.5 2.2 2.8 4 3.4 1.8 0.6 2.1-1.9 2.1-1.9 0 0 1.7-1.5 1.4-2.5 0 0 1.8-1.2 1.9-2.4 0 0 2.5-2.2 0.6-3.7z"/>
				</g>
			</g>
		</g>
		<g id="&lt;Group&gt;">
			<g id="&lt;Group&gt;">
				<g id="&lt;Group&gt;">
					<filter id="f0">
						<feFlood flood-color="#2d2f62" flood-opacity="1" />
						<feBlend mode="normal" in2="SourceGraphic"/>
						<feComposite in2="SourceAlpha" operator="in" />
					</filter>
					<g id="&lt;Group&gt;" filter="url(#f0)">
						<path id="&lt;Compound Path&gt;" fill-rule="evenodd" class="s23" d="m524 98.3c-2.9 0-5.2-2.4-5.2-5.3 0-2.9 2.3-5.2 5.2-5.2 2.9 0 5.3 2.3 5.3 5.2 0 2.9-2.4 5.3-5.3 5.3zm3.6-5.3c0-2-1.6-3.6-3.6-3.6-2 0-3.6 1.6-3.6 3.6 0 2 1.6 3.6 3.6 3.6 2 0 3.6-1.6 3.6-3.6z"/>
					</g>
				</g>
				<g id="&lt;Group&gt;">
					<g id="&lt;Group&gt;">
						<g id="&lt;Group&gt;">
							<path id="&lt;Compound Path&gt;" fill-rule="evenodd" class="s11" d="m505.1 79.8c-2.9 0-5.3-2.3-5.3-5.2 0-2.9 2.4-5.3 5.3-5.3 2.9 0 5.3 2.4 5.3 5.3 0 2.9-2.4 5.2-5.3 5.2zm3.6-5.2c0-2-1.6-3.6-3.6-3.6-2 0-3.6 1.6-3.6 3.6 0 2 1.6 3.6 3.6 3.6 2 0 3.6-1.6 3.6-3.6z"/>
						</g>
					</g>
				</g>
				<filter id="f1">
					<feFlood flood-color="#2d2f62" flood-opacity="1" />
					<feBlend mode="normal" in2="SourceGraphic"/>
					<feComposite in2="SourceAlpha" operator="in" />
				</filter>
				<g id="&lt;Group&gt;" filter="url(#f1)">
					<g id="&lt;Group&gt;">
						<g id="&lt;Group&gt;">
							<g id="&lt;Group&gt;">
								<path id="&lt;Path&gt;" class="s23" d="m498.6 52.2c0.5 0 0.8 0.4 0.8 0.9v3.6c0 0.5-0.3 0.8-0.8 0.8-0.4 0-0.8-0.3-0.8-0.8v-3.6c0-0.5 0.4-0.9 0.8-0.9z"/>
							</g>
						</g>
						<g id="&lt;Group&gt;">
							<g id="&lt;Group&gt;">
								<path id="&lt;Path&gt;" class="s23" d="m498.6 45.9c0.5 0 0.8 0.3 0.8 0.8v3.6c0 0.5-0.3 0.9-0.8 0.9-0.4 0-0.8-0.4-0.8-0.9v-3.6c0-0.5 0.4-0.8 0.8-0.8z"/>
							</g>
						</g>
					</g>
					<g id="&lt;Group&gt;">
						<g id="&lt;Group&gt;">
							<g id="&lt;Group&gt;">
								<path id="&lt;Path&gt;" class="s23" d="m493.5 50.9h3.3c0.4 0 0.8 0.3 0.8 0.8 0 0.5-0.4 0.8-0.8 0.8h-3.3c-0.5 0-0.8-0.3-0.8-0.8 0-0.5 0.3-0.8 0.8-0.8z"/>
							</g>
						</g>
						<g id="&lt;Group&gt;">
							<g id="&lt;Group&gt;">
								<path id="&lt;Path&gt;" class="s23" d="m500.4 50.9h3.3c0.5 0 0.8 0.3 0.8 0.8 0 0.5-0.3 0.8-0.8 0.8h-3.3c-0.4 0-0.8-0.3-0.8-0.8 0-0.5 0.4-0.8 0.8-0.8z"/>
							</g>
						</g>
					</g>
				</g>
				<filter id="f2">
					<feFlood flood-color="#fe8604" flood-opacity="1" />
					<feBlend mode="normal" in2="SourceGraphic"/>
					<feComposite in2="SourceAlpha" operator="in" />
				</filter>
				<g id="&lt;Group&gt;" filter="url(#f2)">
					<g id="&lt;Group&gt;">
						<g id="&lt;Group&gt;">
							<g id="&lt;Group&gt;">
								<g id="&lt;Group&gt;">
									<path id="&lt;Path&gt;" class="s28" d="m527.6 72.6c0.5 0 0.9 0.4 0.9 0.8v3.7c0 0.4-0.4 0.8-0.9 0.8-0.4 0-0.8-0.4-0.8-0.8v-3.7c0-0.4 0.4-0.8 0.8-0.8z"/>
								</g>
							</g>
							<g id="&lt;Group&gt;">
								<g id="&lt;Group&gt;">
									<path id="&lt;Path&gt;" class="s28" d="m527.6 66.3c0.5 0 0.9 0.3 0.9 0.8v3.6c0 0.5-0.4 0.8-0.9 0.8-0.4 0-0.8-0.3-0.8-0.8v-3.6c0-0.5 0.4-0.8 0.8-0.8z"/>
								</g>
							</g>
						</g>
						<g id="&lt;Group&gt;">
							<g id="&lt;Group&gt;">
								<g id="&lt;Group&gt;">
									<path id="&lt;Path&gt;" class="s28" d="m522.5 71.3h3.3c0.5 0 0.8 0.3 0.8 0.8 0 0.4-0.3 0.8-0.8 0.8h-3.3c-0.4 0-0.8-0.4-0.8-0.8 0-0.5 0.4-0.8 0.8-0.8z"/>
								</g>
							</g>
							<g id="&lt;Group&gt;">
								<g id="&lt;Group&gt;">
									<path id="&lt;Path&gt;" class="s28" d="m529.5 71.3h3.3c0.4 0 0.8 0.3 0.8 0.8 0 0.4-0.4 0.8-0.8 0.8h-3.3c-0.5 0-0.8-0.4-0.8-0.8 0-0.5 0.3-0.8 0.8-0.8z"/>
								</g>
							</g>
						</g>
					</g>
				</g>
			</g>
			<g id="&lt;Group&gt;">
				<g id="&lt;Group&gt;">
					<g id="&lt;Group&gt;">
						<g id="&lt;Group&gt;">
							<path id="&lt;Compound Path&gt;" fill-rule="evenodd" class="s6" d="m247.1 22.5c-2.9 0-5.3-2.4-5.3-5.3 0-2.9 2.4-5.2 5.3-5.2 2.9 0 5.3 2.3 5.3 5.2 0 2.9-2.4 5.3-5.3 5.3zm3.6-5.3c0-2-1.6-3.6-3.6-3.6-2 0-3.6 1.6-3.6 3.6 0 2 1.6 3.6 3.6 3.6 2 0 3.6-1.6 3.6-3.6z"/>
						</g>
					</g>
				</g>
				<g id="&lt;Group&gt;">
					<g id="&lt;Group&gt;">
						<g id="&lt;Group&gt;">
							<g id="&lt;Group&gt;">
								<path id="&lt;Compound Path&gt;" fill-rule="evenodd" class="s28" d="m269.2 27c-3 0-5.3-2.4-5.3-5.3 0-2.9 2.3-5.3 5.3-5.3 2.9 0 5.2 2.4 5.2 5.3 0 2.9-2.3 5.3-5.2 5.3zm3.6-5.3c0-2-1.6-3.6-3.6-3.6-2 0-3.7 1.6-3.7 3.6 0 2 1.7 3.6 3.7 3.6 2 0 3.6-1.6 3.6-3.6z"/>
							</g>
						</g>
					</g>
				</g>
				<g id="&lt;Group&gt;">
					<g id="&lt;Group&gt;">
						<g id="&lt;Group&gt;">
							<g id="&lt;Group&gt;">
								<g id="&lt;Group&gt;">
									<path id="&lt;Path&gt;" class="s28" d="m254.7 32.7c0 0.5-0.3 0.9-0.8 0.9h-3.6c-0.5 0-0.8-0.4-0.8-0.9 0-0.4 0.3-0.8 0.8-0.8h3.6c0.5 0 0.8 0.4 0.8 0.8z"/>
								</g>
							</g>
							<g id="&lt;Group&gt;">
								<g id="&lt;Group&gt;">
									<g id="&lt;Group&gt;">
										<path id="&lt;Path&gt;" class="s28" d="m261.1 32.7c0 0.5-0.4 0.9-0.8 0.9h-3.7c-0.4 0-0.8-0.4-0.8-0.9 0-0.4 0.4-0.8 0.8-0.8h3.7c0.4 0 0.8 0.4 0.8 0.8z"/>
									</g>
								</g>
							</g>
						</g>
						<g id="&lt;Group&gt;">
							<g id="&lt;Group&gt;">
								<g id="&lt;Group&gt;">
									<path id="&lt;Path&gt;" class="s28" d="m256.1 27.6v3.3c0 0.4-0.4 0.8-0.8 0.8-0.5 0-0.8-0.4-0.8-0.8v-3.3c0-0.4 0.3-0.8 0.8-0.8 0.4 0 0.8 0.4 0.8 0.8z"/>
								</g>
							</g>
							<g id="&lt;Group&gt;">
								<g id="&lt;Group&gt;">
									<path id="&lt;Path&gt;" class="s28" d="m256.1 34.6v3.2c0 0.5-0.4 0.9-0.8 0.9-0.5 0-0.8-0.4-0.8-0.9v-3.2c0-0.5 0.3-0.9 0.8-0.9 0.4 0 0.8 0.4 0.8 0.9z"/>
								</g>
							</g>
						</g>
					</g>
				</g>
			</g>
			<g id="&lt;Group&gt;">
				<g id="&lt;Group&gt;">
					<g id="&lt;Group&gt;">
						<g id="&lt;Group&gt;">
							<path id="&lt;Path&gt;" class="s11" d="m113.1 168.7c0-6.4 5.2-11.6 11.6-11.6 6.4 0 11.6 5.2 11.6 11.6 0 6.4-5.2 11.6-11.6 11.6-6.4 0-11.6-5.2-11.6-11.6z"/>
						</g>
					</g>
				</g>
				<g id="&lt;Group&gt;">
					<g id="&lt;Group&gt;">
						<path id="&lt;Compound Path&gt;" fill-rule="evenodd" class="s8" d="m123.4 169.5c-2-1.9-2.1-5.1-0.2-7.1 1.8-2 5-2.2 7-0.3 2 1.9 2.2 5 0.3 7.1-1.9 2-5 2.1-7.1 0.3zm5.7-6.2c-1.4-1.2-3.5-1.1-4.7 0.2-1.3 1.4-1.2 3.5 0.2 4.7 1.3 1.3 3.4 1.2 4.7-0.1 1.2-1.4 1.2-3.5-0.2-4.8z"/>
					</g>
					<g id="&lt;Group&gt;">
						<path id="&lt;Path&gt;" class="s8" d="m117.9 175.4c-0.3-0.3-0.3-0.8 0-1.1l5.5-6c0.3-0.3 0.8-0.4 1.2-0.1 0.3 0.3 0.3 0.9 0 1.2l-5.5 6c-0.3 0.3-0.8 0.3-1.2 0z"/>
					</g>
				</g>
			</g>
			<g id="&lt;Group&gt;">
				<g id="&lt;Group&gt;">
					<g id="&lt;Group&gt;">
						<g id="&lt;Group&gt;">
							<g id="&lt;Group&gt;">
								<path id="&lt;Path&gt;" class="s11" d="m507.9 128c0-6.4 5.2-11.6 11.6-11.6 6.4 0 11.6 5.2 11.6 11.6 0 6.4-5.2 11.6-11.6 11.6-6.4 0-11.6-5.2-11.6-11.6z"/>
							</g>
						</g>
					</g>
				</g>
				<path id="&lt;Path&gt;" class="s8" d="m515 128.1v-4.4c0-0.6 0.6-1 1.1-0.7l4.4 2.3 4.1 2.2c0.6 0.2 0.6 1 0 1.3l-4.1 2.2-4.4 2.2c-0.5 0.3-1.1-0.1-1.1-0.6z"/>
			</g>
			<g id="&lt;Group&gt;">
				<g id="&lt;Group&gt;">
					<g id="&lt;Group&gt;">
						<g id="&lt;Group&gt;">
							<path id="&lt;Path&gt;" class="s11" d="m349.6 66.6c0-6.7 5.5-12.2 12.3-12.2h88.5c6.7 0 12.2 5.5 12.2 12.2 0 6.8-5.5 12.3-12.2 12.3h-88.5c-6.8 0-12.3-5.5-12.3-12.3z"/>
						</g>
					</g>
					<g id="&lt;Group&gt;">
						<g id="&lt;Group&gt;">
							<path id="&lt;Compound Path&gt;" fill-rule="evenodd" class="s29" d="m450.5 73.9c-4 0-7.3-3.3-7.3-7.3 0-4 3.3-7.3 7.3-7.3 4.1 0 7.3 3.3 7.3 7.3 0 4-3.2 7.3-7.3 7.3zm3.2-4.6q0.4-1.2 0.4-2.5h-3.3v2.5zm-1.7 3.9c1.9-0.5 3.4-1.6 4.4-3.3h-2.3q-0.4 1.3-1.2 2.3-0.4 0.5-0.9 1zm-1.2-3.3v3.4c0.2-0.1 0.9-0.6 1.6-1.5q0.7-0.8 1.1-1.9zm2.6-6.9c-0.8-1.7-2-2.7-2.3-3.1q-0.1 0-0.3 0v3.1zm2.8 0c-0.9-1.4-2.4-2.5-4-2.9q0.5 0.5 0.9 1.1 0.6 0.9 1 1.8zm-2.1 3.2q-0.1-1.3-0.5-2.6h-2.8v2.6zm3.1 0q-0.1-1.4-0.7-2.6h-2.3q0.4 1.3 0.5 2.6zm-2.5 0.6q-0.1 1.3-0.4 2.5h2.3q0.6-1.2 0.6-2.5zm-8.3 0h-2.6q0.1 1.3 0.6 2.5h2.4q-0.3-1.2-0.4-2.5zm3.8-3.8v-3.1q-0.1 0-0.1 0c-0.3 0.3-0.9 0.8-1.5 1.7q-0.5 0.7-0.8 1.4zm-2.8 0.6q-0.4 1.3-0.5 2.6h3.3v-2.6zm-0.4-0.6q0.4-0.9 0.9-1.8 0.5-0.6 1-1.1c-1.7 0.4-3.2 1.4-4.2 2.9zm-0.1 3.8q0 1.3 0.4 2.5h2.8v-2.5zm-0.6-0.6q0.1-1.3 0.5-2.6h-2.3q-0.6 1.2-0.7 2.6zm-1.8 3.7c1 1.7 2.6 2.9 4.5 3.3q-0.5-0.5-0.9-1-0.8-1-1.3-2.3zm2.9 0c0.8 2.1 2.2 3.1 2.7 3.4v-3.4z"/>
						</g>
					</g>
				</g>
				<g id="&lt;Group&gt;">
					<path id="&lt;Compound Path&gt;" fill-rule="evenodd" class="s29" d="m439.8 66.5c0 4.3-3.5 7.7-7.7 7.7h-70c-4.2 0-7.6-3.4-7.6-7.7 0-4.2 3.4-7.6 7.6-7.6h70c4.2 0 7.7 3.4 7.7 7.6zm-77.7-6.9c-3.8 0-6.9 3.1-6.9 6.9 0 3.9 3.1 7 6.9 7h70c3.8 0 7-3.1 7-7 0-3.8-3.2-6.9-7-6.9z"/>
				</g>
			</g>
		</g>
		<g id="&lt;Group&gt;">
			<path id="&lt;Path&gt;" class="s9" d="m459.6 376.5c-27.3 0-49.4-3-49.4-6.6 0-3.6 22.1-6.6 49.4-6.6 27.2 0 49.3 3 49.3 6.6 0 3.6-22.1 6.6-49.3 6.6z"/>
			<g id="&lt;Group&gt;">
				<g id="&lt;Group&gt;">
					<g id="&lt;Group&gt;">
						<path id="&lt;Path&gt;" class="s20" d="m475.2 361.4h-0.1c0 0-8.8-1.1-8.8-8.3v-49.4h-8.2v49.4c0 7.2-8.8 8.3-8.8 8.3h-0.1c-2.1 0-4 0.9-5.4 2.3-1.4 1.3-2.2 3.3-2.2 5.4h41.2c0-4.3-3.4-7.7-7.6-7.7z"/>
					</g>
					<g id="&lt;Group&gt;">
						<path id="&lt;Path&gt;" class="s23" d="m501.9 303.7h-79.4c1.3-7.3 7.7-12.5 15-12.5l24.7 0.1 24.7-0.1c7.3 0 13.6 5.2 15 12.5z"/>
					</g>
				</g>
				<g id="&lt;Group&gt;">
					<g id="&lt;Group&gt;">
						<path id="&lt;Path&gt;" class="s20" d="m443.8 213.1c0 0-12.1 16.1-13.7 30.1-1.1 9.9 13.7 24.7 13.7 24.7l5.1-2.6-5.1-11.4c-1.8-5.6-4-7.8-2.4-13.4l3.7-7.9z"/>
					</g>
					<g id="&lt;Group&gt;">
						<path id="&lt;Path&gt;" class="s20" d="m481.8 212.9c0 0 11.9 17.1 12.8 31.2 0.9 12.1-13.7 23.8-13.7 23.8l-4.2-2.1 5.8-11.6c1.9-5.5 2.7-8.9 0.3-15l-3.2-6.6z"/>
					</g>
					<g id="&lt;Group&gt;">
						<g id="&lt;Group&gt;">
							<path id="&lt;Path&gt;" class="s23" d="m446.2 249.7l-7.9 25.4c0 0 34.5 4.4 45.1 1.6l-5.4-27.7 3.8-36.1c-5.2-2.2-10.7-3.6-16.3-4-8.2-0.6-13.3 0.7-21.7 4.2z"/>
						</g>
						<g id="&lt;Group&gt;">
							<g id="&lt;Group&gt;">
								<path id="&lt;Path&gt;" class="s20" d="m454.9 220.8c7.6-0.9 14.7-6.2 15-6.4 0.2-0.1 0.3-0.4 0.1-0.6-0.1-0.2-0.4-0.2-0.6-0.1-0.1 0.1-8.4 6.2-16.4 6.3-0.3 0-0.5 0.2-0.5 0.5 0 0.2 0.2 0.4 0.5 0.4q0.9 0 1.9-0.1z"/>
							</g>
						</g>
					</g>
					<g id="&lt;Group&gt;">
						<g id="&lt;Group&gt;">
							<path id="&lt;Path&gt;" class="s21" d="m461 356.9l0.7 5.6 5.9 0.1 0.5-4.6z"/>
						</g>
						<g id="&lt;Group&gt;">
							<path id="&lt;Path&gt;" class="s7" d="m460.1 268c0 0-15.4-0.9-20.7 3.4-5.2 4.3-4.2 16.6 1.2 19.9 5.3 3.4 14.4 10 14.4 10l5.8 57.4 7.6 0.3c0 0 7-57.7 3.5-68.9-3.6-11.2-11.8-22.1-11.8-22.1z"/>
							<path id="&lt;Path&gt;" class="s10" d="m469.1 356.1c0.4 1.4 0.2 2.7-0.2 4l-8.8-0.2q-0.4-1.9-0.1-3.9z"/>
						</g>
					</g>
					<g id="&lt;Group&gt;">
						<g id="&lt;Group&gt;">
							<path id="&lt;Path&gt;" class="s11" d="m482 267.5h-40.6l-3.7-21.9c-0.4-1.9 1.1-3.6 3-3.6h42c1.9 0 3.3 1.7 3 3.6z"/>
						</g>
						<path id="&lt;Path&gt;" class="s26" d="m478.5 272.3h-33.6c-1.9 0-3.5-1.6-3.5-3.5v-1.3h40.6v1.3c0 1.9-1.6 3.5-3.5 3.5z"/>
						<g id="&lt;Group&gt;">
							<path id="&lt;Path&gt;" class="s30" d="m461.8 259.2c-2 0-3.5-1.6-3.5-3.5 0-2 1.5-3.6 3.5-3.6 1.9 0 3.5 1.6 3.5 3.6 0 1.9-1.6 3.5-3.5 3.5z"/>
						</g>
					</g>
					<g id="&lt;Group&gt;">
						<g id="&lt;Group&gt;">
							<path id="&lt;Path&gt;" class="s21" d="m435.7 341.1l-1.3 5.6 5.3 1 2.2-4.9z"/>
						</g>
						<g id="&lt;Group&gt;">
							<path id="&lt;Path&gt;" class="s10" d="m468 267c0 0-10.4-3.6-16.5 3.9-6 7.5-16.2 70.8-16.2 70.8l7 2.8 22.4-56.1c0 0 18.2 10.4 20.4-4.4 1.7-11.7-17.1-17-17.1-17z"/>
							<path id="&lt;Path&gt;" class="s22" d="m443.9 341.6c-0.1 1.5-0.7 2.7-1.5 3.8l-8.6-3q0.2-2 1.1-3.8z"/>
						</g>
					</g>
					<g id="&lt;Group&gt;">
						<path id="&lt;Path&gt;" class="s11" d="m438.5 345.8c0 0-3.3-1.7-4.2-1.9-1-0.2-8.9 5.4-11.1 5.4-4.1-0.1-5.4 5.8-3.1 6.6 6.7 2.4 19 2.1 19 2.1 0 0 2.8-7.4 2.8-9.9 0.1-2.5-1.7-1.2-3.4-2.3z"/>
						<g id="&lt;Group&gt;">
							<g id="&lt;Group&gt;">
								<g id="&lt;Group&gt;">
									<path id="&lt;Path&gt;" class="s8" d="m431.4 351q0.2 0.1 0.4 0.1c0.2-0.1 0.3-0.4 0.2-0.7 0 0-0.8-2-2.1-2.9-1.8-1.2-3.4-0.3-3.4-0.3-0.3 0.1-0.4 0.4-0.2 0.6 0.1 0.3 0.4 0.4 0.6 0.2 0.1 0 1.2-0.5 2.4 0.3 1.1 0.7 1.8 2.5 1.8 2.5q0.1 0.2 0.3 0.2z"/>
								</g>
							</g>
							<g id="&lt;Group&gt;">
								<g id="&lt;Group&gt;">
									<path id="&lt;Path&gt;" class="s8" d="m433 349.9q0.2 0.1 0.4 0c0.2-0.1 0.3-0.3 0.2-0.6 0-0.1-0.8-2-2.1-2.9-1.8-1.2-3.4-0.4-3.4-0.3-0.3 0.1-0.3 0.4-0.2 0.6 0.1 0.3 0.4 0.3 0.6 0.2 0.1 0 1.2-0.6 2.4 0.3 1.1 0.7 1.8 2.4 1.8 2.5q0.1 0.1 0.3 0.2z"/>
								</g>
							</g>
							<g id="&lt;Group&gt;">
								<g id="&lt;Group&gt;">
									<path id="&lt;Path&gt;" class="s8" d="m429.3 351.8q0.2 0.1 0.4 0.1c0.2-0.1 0.3-0.4 0.2-0.7 0 0-0.8-2-2.1-2.9-1.8-1.2-3.4-0.3-3.4-0.3-0.3 0.1-0.4 0.4-0.2 0.6 0.1 0.3 0.4 0.4 0.6 0.2 0.1 0 1.2-0.5 2.4 0.3 1.1 0.7 1.8 2.5 1.8 2.5q0.1 0.2 0.3 0.2z"/>
								</g>
							</g>
						</g>
					</g>
					<g id="&lt;Group&gt;">
						<path id="&lt;Path&gt;" class="s11" d="m464 362.3c0 0 3.3-1 4.2-1.1 0.9 0 7.4 6.6 9.5 6.9 3.9 0.6 4.1 6.4 1.8 6.8-6.7 1.1-18.2-1.2-18.2-1.2 0 0-1.3-7.5-1-9.8 0.4-2.4 1.8-0.9 3.7-1.6z"/>
						<g id="&lt;Group&gt;">
							<g id="&lt;Group&gt;">
								<g id="&lt;Group&gt;">
									<path id="&lt;Path&gt;" class="s8" d="m469.7 368.4q-0.1 0.1-0.3 0c-0.2-0.2-0.3-0.4-0.2-0.7 0.1 0 1.1-1.7 2.5-2.3 1.9-0.9 3.2 0.2 3.3 0.2 0.2 0.2 0.2 0.5 0.1 0.7-0.2 0.2-0.5 0.2-0.7 0 0 0-1-0.7-2.3-0.1-1.1 0.5-2.1 2-2.1 2q-0.1 0.2-0.3 0.2z"/>
								</g>
							</g>
							<g id="&lt;Group&gt;">
								<g id="&lt;Group&gt;">
									<path id="&lt;Path&gt;" class="s8" d="m468.4 367.1q-0.2 0-0.4-0.1c-0.2-0.1-0.2-0.4-0.1-0.6 0-0.1 1.1-1.7 2.5-2.4 1.8-0.8 3.2 0.3 3.3 0.3 0.2 0.2 0.2 0.4 0 0.6-0.1 0.2-0.4 0.3-0.6 0.1 0 0-1-0.7-2.3-0.1-1.1 0.5-2.1 2-2.1 2q-0.1 0.2-0.3 0.2z"/>
								</g>
							</g>
							<g id="&lt;Group&gt;">
								<g id="&lt;Group&gt;">
									<path id="&lt;Path&gt;" class="s8" d="m471.6 369.5q-0.2 0.1-0.4 0c-0.2-0.2-0.3-0.4-0.1-0.7 0 0 1.1-1.7 2.5-2.3 1.8-0.9 3.2 0.2 3.2 0.2 0.2 0.2 0.3 0.5 0.1 0.7-0.2 0.2-0.4 0.2-0.6 0-0.1 0-1-0.7-2.4-0.1-1.1 0.5-2 2-2 2q-0.2 0.2-0.3 0.2z"/>
								</g>
							</g>
						</g>
					</g>
					<g id="&lt;Group&gt;">
						<path id="&lt;Path&gt;" class="s10" d="m450.4 192.9c0 0-5-8.5-0.8-15.1 4.2-6.5 13.1-5.9 15.4-5.4 2.3 0.5 15.5 6.8 7.5 21.8z"/>
						<g id="&lt;Group&gt;">
							<g id="&lt;Group&gt;">
								<path id="&lt;Path&gt;" class="s24" d="m451.2 190.5c0 0-2-2.7-3.5-0.5-1.5 2.2 0.6 8.8 4.3 7.2z"/>
							</g>
							<g id="&lt;Group&gt;">
								<g id="&lt;Group&gt;">
									<path id="&lt;Path&gt;" class="s25" d="m451.2 195.1c-0.2 0-0.3 0-0.3-0.2-0.6-2-2.7-2.8-2.7-2.8-0.2-0.1-0.2-0.3-0.2-0.4 0.1-0.2 0.3-0.3 0.4-0.2 0.1 0 2.4 0.9 3.1 3.3 0 0.1-0.1 0.3-0.2 0.3q-0.1 0-0.1 0z"/>
								</g>
							</g>
							<g id="&lt;Group&gt;">
								<g id="&lt;Group&gt;">
									<path id="&lt;Path&gt;" class="s25" d="m449.1 194.1q-0.1 0-0.2 0c-0.1-0.1-0.2-0.3-0.1-0.4 0-0.1 0.4-0.6 1.2-1 0.1 0 0.3 0 0.4 0.2 0 0.1 0 0.3-0.2 0.4-0.6 0.3-0.9 0.7-0.9 0.7q-0.1 0.1-0.2 0.1z"/>
								</g>
							</g>
						</g>
						<g id="&lt;Group&gt;">
							<g id="&lt;Group&gt;">
								<path id="&lt;Path&gt;" class="s24" d="m471.9 190.5c0 0 2-2.7 3.5-0.5 1.5 2.2-0.6 8.8-4.3 7.2z"/>
							</g>
							<g id="&lt;Group&gt;">
								<g id="&lt;Group&gt;">
									<g id="&lt;Group&gt;">
										<path id="&lt;Path&gt;" class="s25" d="m471.9 195.1c0.2 0 0.3 0 0.3-0.2 0.6-2 2.7-2.8 2.7-2.8 0.2-0.1 0.2-0.3 0.2-0.4-0.1-0.2-0.3-0.3-0.4-0.2-0.1 0-2.4 0.9-3.1 3.3 0 0.1 0.1 0.3 0.2 0.3q0.1 0 0.1 0z"/>
									</g>
								</g>
							</g>
							<g id="&lt;Group&gt;">
								<g id="&lt;Group&gt;">
									<g id="&lt;Group&gt;">
										<path id="&lt;Path&gt;" class="s25" d="m474 194.1q0.1 0 0.2 0c0.1-0.1 0.2-0.3 0.1-0.4 0-0.1-0.4-0.6-1.2-1-0.1 0-0.3 0-0.4 0.2-0.1 0.1 0 0.3 0.2 0.4 0.6 0.3 0.9 0.7 0.9 0.7q0.1 0.1 0.2 0.1z"/>
									</g>
								</g>
							</g>
						</g>
						<g id="&lt;Group&gt;">
							<path id="&lt;Path&gt;" class="s21" d="m466.5 202.7v6.5c0 0-2 3.3-4.6 3.6-2.6 0.2-4.9-2.9-4.9-2.9v-6.7z"/>
						</g>
						<g id="&lt;Group&gt;">
							<path id="&lt;Path&gt;" class="s24" d="m466.5 202.7v2.9c-1.8 2-4.9 2.4-9.5 1.8v-4.2z"/>
						</g>
						<g id="&lt;Group&gt;">
							<path id="&lt;Path&gt;" class="s21" d="m473.3 186c-0.1 2.5-0.3 5.7-0.8 8.2q-0.2 1-0.4 1.8c-1.4 4.8-4.8 13-14.4 9.6-4.2-1.5-6.2-6.3-7-11-0.6-3.3-0.7-6.6-0.7-8.9 0.1-2.4 1.4-4.6 3.5-5.8 5.6-3.2 11.6-2 15.5-0.5 2.7 1 4.5 3.7 4.3 6.6z"/>
						</g>
						<path id="&lt;Path&gt;" class="s10" d="m459 176.8c0 0 12.6 20.2 14.3 12.8 2.5-10.5-5-17.1-14.3-12.8z"/>
						<path id="&lt;Path&gt;" class="s10" d="m458.4 176.8c-8.4 0-12.6 9.6-8.7 10.7 5.5 1.6 10.2-6.1 11.6-8.8-0.9-0.6-1.9-1.2-2.9-1.9z"/>
						<path id="&lt;Path&gt;" class="s10" d="m465.4 180.5c-4.6 0-8.3-3.7-8.3-8.3 0-4.6 3.7-8.3 8.3-8.3 4.6 0 8.4 3.7 8.4 8.3 0 4.6-3.8 8.3-8.4 8.3z"/>
						<path id="&lt;Path&gt;" class="s10" d="m451.5 186.6c0 0 0.6 2.5-0.3 4.3-0.9 1.7-0.4 4.6 0 7.9 0 0-1.4-2-1.5-5.2 0-3.2 0.5-5.9 0-7.2z"/>
						<path id="&lt;Path&gt;" class="s10" d="m471.3 186.6c0 0-0.6 2.5 0.3 4.3 0.9 1.7 0.4 4.6 0 7.9 0 0 1.4-2 1.5-5.2 0.1-3.2-0.5-5.9 0-7.2z"/>
						<path id="&lt;Path&gt;" class="s10" d="m456.5 192.7c-0.4 0-0.8-0.5-0.8-1.2 0-0.7 0.4-1.3 0.8-1.3 0.5 0 0.8 0.6 0.8 1.3 0 0.7-0.3 1.2-0.8 1.2z"/>
						<path id="&lt;Path&gt;" class="s10" d="m466.4 192.7c-0.4 0-0.8-0.5-0.8-1.2 0-0.7 0.4-1.3 0.8-1.3 0.4 0 0.8 0.6 0.8 1.3 0 0.7-0.4 1.2-0.8 1.2z"/>
						<path id="&lt;Path&gt;" class="s10" d="m454.9 187.1c0.7-0.2 2-0.5 3.5-0.5 0.3 0 0.6 0.3 0.6 0.7-0.1 0.3-0.4 0.5-0.7 0.5-0.9 0-3.4 0.1-4.6 0.6-0.1-0.2 0.1-0.5 0.2-0.7 0.3-0.3 0.7-0.5 1-0.6z"/>
						<path id="&lt;Path&gt;" class="s10" d="m467.9 187.1c-0.7-0.1-2.1-0.5-3.5-0.5-0.3 0-0.6 0.4-0.6 0.7 0.1 0.3 0.4 0.5 0.7 0.5 0.9 0 3.4 0.1 4.6 0.6 0.1-0.2-0.1-0.4-0.2-0.6-0.3-0.3-0.7-0.5-1-0.7z"/>
						<g id="&lt;Group&gt;">
							<g id="&lt;Group&gt;">
								<g id="&lt;Group&gt;">
									<path id="&lt;Path&gt;" class="s24" d="m461.7 196.6q-0.4 0-0.7-0.2c-0.2-0.1-0.4-0.3-0.5-0.7-0.1-1.2 0.2-4.7 0.2-4.9 0-0.1 0.2-0.3 0.3-0.2 0.2 0 0.3 0.1 0.3 0.3 0 0-0.3 3.6-0.2 4.7 0.1 0.2 0.1 0.3 0.2 0.3 0.3 0.2 1 0 1.2-0.1 0.2-0.1 0.4 0 0.4 0.2 0.1 0.1 0 0.3-0.1 0.4-0.1 0-0.6 0.2-1.1 0.2z"/>
								</g>
							</g>
						</g>
						<path id="&lt;Path&gt;" class="s31" d="m457.7 198.5c0.3 1.2 1 3.4 3.7 3.4 2.6 0 3.3-2 3.6-3.4z"/>
						<g id="&lt;Group&gt;">
							<g id="&lt;Group&gt;">
								<path id="&lt;Path&gt;" class="s24" d="m461.3 203.7c-0.7 0-1.4-0.4-1.4-0.4-0.2-0.1-0.2-0.3-0.1-0.5 0.1-0.1 0.2-0.2 0.4-0.1 0 0 0.5 0.4 1.1 0.4 0.6 0 1.2-0.4 1.2-0.4 0.1-0.1 0.3 0 0.4 0.1 0.1 0.2 0.1 0.4-0.1 0.5 0 0-0.7 0.4-1.5 0.4z"/>
							</g>
						</g>
					</g>
				</g>
			</g>
		</g>
	</g>
</svg>