<svg width="108" height="90" viewBox="0 0 108 90" fill="none" xmlns="http://www.w3.org/2000/svg">
<path d="M72.4118 68.0432C69.7848 67.4389 68.938 68.7513 68.8048 69.9901C68.7421 70.5733 69.0326 71.1196 69.4242 71.5564L76.7674 79.7477C79.4141 81.2667 81.4018 80.3807 82.0648 79.7477L89.9901 69.6211C90.5199 69.1147 90.6213 68.3552 91.3145 68.9881L100.606 81.0136C102.195 84.0516 99.502 85.233 97.9569 85.444H86.2997C85.2808 85.444 84.1784 85.7912 83.8477 86.7549C83.608 87.4536 83.6697 88.1615 84.0328 88.6771C84.3718 89.1585 85.0168 89.2409 85.6056 89.2445C90.7665 89.2762 100.32 89.5433 101.268 89.2415C103.254 88.6086 105.22 87.9757 106.544 85.444C107.342 83.9194 107.347 82.6533 107.153 81.6893C106.892 80.3968 106.131 79.1804 105.329 78.1335L86.7 53.7981L82.0648 56.9627C83.3891 58.6505 86.8324 62.7855 87.3622 63.2919C87.8919 63.7982 87.5829 64.3467 87.3622 64.5577L79.9489 74.0515C78.8895 75.0641 79.1643 75.1063 78.7229 74.6844L74.1571 69.1945C73.7001 68.6449 73.1083 68.2034 72.4118 68.0432Z" fill="#003F7D"/>
<path d="M35.6133 32.9116L40.9106 36.7091L51.5054 23.4178C53.6243 21.8988 55.3353 22.7849 56.2182 23.4178L67.1102 35.97C67.5337 36.4581 68.0427 36.8821 68.6499 37.1034C71.2111 38.0365 72.2591 36.6376 72.5792 35.2432C72.7346 34.5661 72.4511 33.8862 72.0052 33.3535L60.7114 19.8599C59.878 18.8641 58.8914 17.9775 57.6847 17.4981C54.2424 16.1307 51.3108 16.7014 49.511 17.5477C48.5782 17.9863 47.8556 18.7465 47.1816 19.5264L35.6133 32.9116Z" fill="#003F7D"/>
<path d="M34.3669 35.4435C31.6714 34.3393 30.5777 35.6207 30.351 37.0513C30.1892 38.0716 30.7486 39.0368 31.5052 39.7403C36.014 43.9322 44.7784 46.8008 49.5117 47.9247C50.0228 48.046 50.5597 48.0281 51.046 47.8294C54.1291 46.5697 53.1981 44.809 51.8441 43.6719C51.2895 43.2061 50.5832 42.9768 49.8734 42.8324C40.2583 40.8764 38.84 37.2758 34.3669 35.4435Z" fill="#FF8E01"/>
<path d="M22.7036 33.5419C23.8476 33.7802 24.6494 34.4949 24.4441 36.0597C24.292 37.2191 23.5118 38.1759 22.6665 38.9839C21.3548 40.2377 20.3076 41.9516 20.7556 43.71C21.1198 45.1391 22.0854 46.8345 24.4345 48.5185C24.8759 48.7295 25.5374 49.0248 26.5969 48.5185L27.8528 47.6402C28.2625 47.3537 28.6854 47.0684 29.1676 46.9365C29.8096 46.7609 30.259 46.9116 31.0166 47.3629C31.5201 47.6628 31.9067 48.1242 32.1465 48.659L33.2186 51.0502C33.4393 51.4722 34.2821 51.8992 37.3205 52.316H46.7573C47.4423 52.316 48.1607 52.3365 48.714 52.7402C49.7436 53.4914 50.5395 55.067 48.5488 56.3388C48.07 56.6447 47.4925 56.7465 46.9243 56.7465H38.5159C38.2952 56.7465 37.6779 56.9868 38.3274 58.2283C38.8224 59.1748 43.7905 65.5392 46.4203 68.951C46.7642 69.3971 47.2279 69.813 47.7186 69.5365C48.2353 69.2453 48.9513 68.6499 49.901 68.0447C49.901 68.0447 49.901 68.0447 49.901 68.0447C52.6714 66.1356 57.9304 62.6148 60.8412 60.76L77.375 51.8992L80.3036 49.7645C82.0139 48.5179 83.544 47.0411 84.8505 45.3761L85.2986 44.8051C86.2937 43.5369 86.8086 41.887 86.1927 40.3972C85.5819 38.9195 84.5314 37.4414 82.8814 37.126C80.2327 36.6197 79.5705 37.337 79.5705 37.7589L79.1614 40.8876C78.9946 42.1625 78.5927 43.4087 77.9146 44.5012C76.8378 46.2361 75.0509 48.5978 71.6245 50.4173C66.8569 52.9489 61.2505 54.4258 59.0432 54.8477C57.0032 55.2377 53.002 54.9068 54.9282 51.527C55.2711 50.9253 55.8933 50.5446 56.5664 50.3821L58.2337 49.9797C58.7715 49.8499 59.2966 49.5725 59.0776 49.0644C58.9559 48.782 58.739 48.3988 58.3811 47.8856C57.3679 46.4329 52.6402 40.6195 50.1057 37.5313C49.8865 37.2642 49.728 36.947 49.7281 36.6015C49.7283 35.4178 50.409 33.9266 53.1277 34.4495C53.5327 34.5274 53.8869 34.765 54.1495 35.083L63.6784 46.6198C64.3406 47.2527 65.0028 48.7717 67.6515 47.2527C69.7717 46.0367 71.7505 44.3341 72.5689 43.3785C72.862 43.0363 73.0764 42.6335 73.2756 42.2294C73.9303 40.9013 74.7233 38.4416 74.2732 35.8601C73.611 33.7504 71.6245 28.6449 68.9758 25.1005C66.8007 22.1899 64.4767 19.6492 63.104 18.2495C62.6248 17.7608 62.266 17.1295 62.3532 16.4506C62.5433 14.971 63.6017 13.3731 66.8112 14.1093C67.3661 14.2366 67.8455 14.5727 68.2109 15.0093L69.7921 16.8986C70.13 17.3022 70.4272 17.7382 70.6794 18.2003L78.2462 32.0627C78.4669 32.2737 80.5903 31.8766 82.1675 32.0627C83.9988 32.2787 87.3903 33.4318 88.6523 34.8104C90.1974 36.4982 92.5491 40.0375 91.4897 44.0881C90.4302 48.1388 84.2057 53.3709 81.5571 54.8477L66.9893 63.0757L62.3541 65.6073L56.796 68.988L50.435 73.8353L45.6811 78.8841C44.8784 79.7365 44.1392 80.6466 43.4694 81.6069L43.1719 82.0335C42.2872 83.3019 41.1128 84.4762 39.5683 84.551C38.0324 84.6255 36.5123 84.0077 36.9808 81.601C37.0855 81.0631 37.3785 80.5851 37.7407 80.1738L43.3217 73.8353C43.5424 73.4133 43.6809 72.9492 43.1511 71.9365L37.1916 64.3415C36.9709 64.1305 36.397 63.8352 35.8673 64.3415C35.3375 64.8478 27.259 75.945 23.286 81.4303H17.3265L33.2186 60.544C33.4393 59.7001 32.9537 57.506 29.2455 55.4807L23.5473 53.33C23.2563 53.2202 22.9742 53.0879 22.7037 52.9343L22.0955 52.589C19.8332 51.3046 17.8186 49.5483 16.5162 47.2963C15.6514 45.8008 15.1648 44.4548 15.1641 42.4054C15.1635 40.7755 15.838 39.0546 16.6169 37.535C17.8189 35.1902 20.1241 33.0046 22.7036 33.5419Z" fill="#FF8E01"/>
<path d="M19.6771 60.7778C19.2672 58.8562 17.623 58.231 16.068 58.3959C15.4525 58.4611 14.938 58.856 14.5643 59.3494L3.63674 73.7762C2.12443 75.7728 0.240655 78.1148 0.0583815 80.6129C0.0225741 81.1036 0.00147491 81.6568 2.22034e-05 82.2796C-0.0104152 86.755 3.66142 88.7604 5.86824 88.9713H23.4263C24.9452 88.9713 26.7577 88.8476 27.4752 87.5088C27.9534 86.6165 27.5875 85.7115 26.9109 85.0719C26.2423 84.4399 25.2642 84.3483 24.3442 84.3483H17.2149H8.60745C5.38742 84.1556 5.29683 81.8373 5.959 80.5715L19.192 62.5482C19.57 62.0334 19.8103 61.4025 19.6771 60.7778Z" fill="#003F7D"/>
<ellipse cx="52.8731" cy="5.69626" rx="5.959" ry="5.69626" fill="#003F7D"/>
<ellipse cx="83.2774" cy="25.3168" rx="3.97267" ry="3.79751" fill="#FF8E01"/>
<ellipse cx="30.3047" cy="25.3167" rx="6.62112" ry="6.32918" fill="#FF8E01"/>
</svg>
