<svg width="80" height="35" viewBox="0 0 80 35" fill="none" xmlns="http://www.w3.org/2000/svg">
<path d="M68.1118 5.35447L68.112 5.35481L68.124 5.34792L71.5912 3.3667L75.9789 2.39166L78.3189 3.32768L79.1781 5.04615L53.3918 22.4023L48.4838 23.8747L27.5411 20.3843L27.4492 20.3689L27.3696 20.4175L18.5186 25.8265C18.4999 25.8043 18.4786 25.7769 18.4548 25.7435C18.3624 25.6143 18.2454 25.4149 18.1039 25.1281C17.8214 24.5555 17.4535 23.6593 16.9989 22.3371C16.0963 19.7116 14.859 15.4271 13.2753 8.70914L13.6278 8.3566L15.5606 7.87339L15.6278 7.8566L15.6768 7.80764L17.6642 5.8202L19.6397 4.3386L22.1204 2.85017L24.0873 1.86674L26.0308 1.38086H29H31.4752L33.9181 1.86944L35.8882 2.85447L37.8882 3.85447L37.9127 3.86674L37.9394 3.87339L39.9394 4.37339L39.9692 4.38086H40H43.5H47H51H51.0692L51.1286 4.34523L51.8354 3.92116L56.8163 6.81329L58.6882 10.0891L57.8964 10.8809H55.5H52.5H49H46H43.5V11.3809H46H49H52.5H55.5H58H58.1036L58.1768 11.3076L59.1593 10.3251L60.6315 9.34365L64.118 7.35137L68.1118 5.35447ZM18.2178 26.2365C18.2374 26.2554 18.2591 26.2746 18.2827 26.2926L20.1798 33.8809H3.72336L0.279814 3.38086H9.42431L10.8197 4.31114L11.7734 5.74168L12.2628 7.20992L12.7592 8.69917C14.359 15.4969 15.6103 19.8359 16.5261 22.4996C16.984 23.8316 17.3598 24.7499 17.6555 25.3493C17.803 25.6483 17.9337 25.8742 18.048 26.0342C18.1051 26.1141 18.1616 26.1825 18.2178 26.2365ZM56.9223 6.29667L52.3251 3.62733L52.7953 3.34523L52.8109 3.33587L52.825 3.32435L54.6442 1.83587L57.0692 0.380859H59.441L63.191 2.25586L60.8882 3.40725L57.8882 4.90725L57.8288 4.93694L57.792 4.99218L56.9223 6.29667ZM64.1118 2.35447L66.059 1.38086H67.9336L70.9961 3.13086L67.882 4.91035L63.8882 6.90725L63.888 6.90691L63.876 6.9138L60.376 8.9138L60.3685 8.91807L60.3613 8.92285L59.0842 9.77428L57.2937 6.64098L58.1712 5.32478L61.1118 3.85447L64.059 2.38086L64.1118 2.35447Z" fill="#FE8604" stroke="#FFF5DC" stroke-width="0.5"/>
</svg>
