<svg width="68" height="56" viewBox="0 0 68 56" fill="none" xmlns="http://www.w3.org/2000/svg">
<path d="M41.4154 11L21.4769 20.7297L41.4154 31.2703L61.3538 20.3243L41.4154 11Z" fill="#FE8604" fill-opacity="0.7"/>
<path d="M38.5077 33.2973L18.1538 22.7568L14 28.8378L33.5231 39.3784L38.5077 33.2973Z" fill="#FE8604" fill-opacity="0.7"/>
<path d="M63.8462 22.3514L43.4923 33.2973L48.8923 39.3784L68 28.8378L63.8462 22.3514Z" fill="#FE8604" fill-opacity="0.7"/>
<path d="M34.3538 43.4324L19.4 35.3243V45.4595L39.3385 55.5946V37.7568L34.3538 43.4324Z" fill="#FE8604" fill-opacity="0.7"/>
<path d="M47.6462 43.4324L42.6615 37.3514V56L63.0154 44.6486V34.9189L47.6462 43.4324Z" fill="#FE8604" fill-opacity="0.7"/>
<path d="M11.0703 15.2072L18.5268 10.8574C20.0594 9.96334 21.9511 9.94851 23.4976 10.8184L26.1502 12.3106M11.0703 15.2072V24.2313C11.0703 26.0376 12.0446 27.7035 13.6189 28.5891L21.3688 32.9485M11.0703 15.2072L16.0357 18.2848M21.3688 32.9485L28.9336 28.2598C30.4046 27.3481 31.2995 25.7405 31.2995 24.0099V18.1314C31.2995 16.325 30.3252 14.6591 28.7508 13.7735L26.1502 12.3106M21.3688 32.9485L21.001 21.3623M21.001 21.3623L28.7248 17.0175M21.001 21.3623L16.0357 18.2848M16.0357 18.2848L26.1502 12.3106M16.0357 18.2848V22.4485" stroke="#30347B" stroke-width="1.5"/>
<path d="M25.0469 4.34375L33.8741 9.41272" stroke="#30347B" stroke-width="1.5"/>
<path d="M8.125 33.3105L16.9523 38.3795" stroke="#30347B" stroke-width="1.5"/>
<path d="M37.5469 16.3301L37.5515 26.3901" stroke="#30347B" stroke-width="1.5"/>
<path d="M4.44531 16.3301L4.44989 26.3901" stroke="#30347B" stroke-width="1.5"/>
<path d="M34.1836 32.8086L25.4053 37.9592" stroke="#30347B" stroke-width="1.5"/>
<path d="M16.9023 4.62695L8.12401 9.77761" stroke="#30347B" stroke-width="1.5"/>
<path d="M22.825 2.53448C22.825 3.50896 22.0193 4.31897 21.0004 4.31897C19.9815 4.31897 19.1758 3.50896 19.1758 2.53448C19.1758 1.56001 19.9815 0.75 21.0004 0.75C22.0193 0.75 22.825 1.56001 22.825 2.53448Z" stroke="#30347B" stroke-width="1.5"/>
<path d="M39.0086 11.9485C39.0086 12.923 38.2029 13.733 37.184 13.733C36.1651 13.733 35.3594 12.923 35.3594 11.9485C35.3594 10.9741 36.1651 10.1641 37.184 10.1641C38.2029 10.1641 39.0086 10.9741 39.0086 11.9485Z" stroke="#30347B" stroke-width="1.5"/>
<path d="M39.0086 30.0501C39.0086 31.0246 38.2029 31.8346 37.184 31.8346C36.1651 31.8346 35.3594 31.0246 35.3594 30.0501C35.3594 29.0756 36.1651 28.2656 37.184 28.2656C38.2029 28.2656 39.0086 29.0756 39.0086 30.0501Z" stroke="#30347B" stroke-width="1.5"/>
<path d="M22.825 39.4642C22.825 40.4386 22.0193 41.2487 21.0004 41.2487C19.9815 41.2487 19.1758 40.4386 19.1758 39.4642C19.1758 38.4897 19.9815 37.6797 21.0004 37.6797C22.0193 37.6797 22.825 38.4897 22.825 39.4642Z" stroke="#30347B" stroke-width="1.5"/>
<path d="M6.64143 30.0501C6.64143 31.0246 5.83567 31.8346 4.81681 31.8346C3.79794 31.8346 2.99219 31.0246 2.99219 30.0501C2.99219 29.0756 3.79794 28.2656 4.81681 28.2656C5.83567 28.2656 6.64143 29.0756 6.64143 30.0501Z" stroke="#30347B" stroke-width="1.5"/>
<path d="M6.64143 11.9485C6.64143 12.923 5.83567 13.733 4.81681 13.733C3.79794 13.733 2.99219 12.923 2.99219 11.9485C2.99219 10.9741 3.79794 10.1641 4.81681 10.1641C5.83567 10.1641 6.64143 10.9741 6.64143 11.9485Z" stroke="#30347B" stroke-width="1.5"/>
</svg>
