<svg width="37" height="33" viewBox="0 0 37 33" fill="none" xmlns="http://www.w3.org/2000/svg">
<path d="M32.893 23.5909V2C32.893 1.44772 32.4453 1 31.893 1H4.65775C4.10547 1 3.65775 1.44772 3.65775 2V23.5909M32.893 23.5909H3.65775M32.893 23.5909L35.5508 29.7923M3.65775 23.5909L1 29.7923M1 29.7923V31.4501C1 32.0024 1.44771 32.4501 2 32.4501H34.5508C35.1031 32.4501 35.5508 32.0024 35.5508 31.4501V29.7923M1 29.7923H12.074M35.5508 29.7923H24.9198M12.074 29.7923L13.5489 27.5799C13.7344 27.3017 14.0466 27.1346 14.381 27.1346H22.6128C22.9471 27.1346 23.2593 27.3017 23.4448 27.5799L24.9198 29.7923M12.074 29.7923H24.9198M6.87255 20.9331H29.6782C30.2305 20.9331 30.6782 20.4854 30.6782 19.9331V4.65775C30.6782 4.10547 30.2305 3.65775 29.6782 3.65775H6.87255C6.32026 3.65775 5.87255 4.10547 5.87255 4.65775V19.9331C5.87255 20.4854 6.32026 20.9331 6.87255 20.9331Z" stroke="white"/>
<path d="M12.9578 6.31445L11.6289 8.97221" stroke="white"/>
<path d="M14.2891 6.31445L15.6179 7.64333L14.2891 8.97221" stroke="white"/>
<path d="M10.3008 6.31445L8.97191 7.64333L10.3008 8.97221" stroke="white"/>
<path d="M8.52734 11.1875C10.2992 11.1875 10.7421 11.1875 10.7421 11.1875" stroke="white"/>
<path d="M12.5156 11.1875H18.2741" stroke="white"/>
<path d="M9.85938 13.8457H15.1749" stroke="white"/>
<path d="M9.85938 16.0605H13.403" stroke="white"/>
<path d="M15.1758 16.0605H23.149" stroke="white"/>
<path d="M24.9219 16.0605H27.1367" stroke="white"/>
<path d="M9.41406 18.2754H11.6289" stroke="white"/>
<path d="M12.957 18.2754H18.2725" stroke="white"/>
<path d="M19.6055 18.2754H27.5787" stroke="white"/>
</svg>
