<svg width="44" height="37" viewBox="0 0 44 37" fill="none" xmlns="http://www.w3.org/2000/svg">
<path d="M5.36719 20.4255V4.04858H38.2953V5.44237" stroke="white"/>
<path d="M38.3008 7.18463V8.40419" stroke="white"/>
<path d="M38.2961 9.97217V27.7429H5.01953V24.9553" stroke="white"/>
<path d="M5.19531 21.6452V22.8648" stroke="white"/>
<path d="M2.40636 30.3563V3.17748C2.40636 0.947415 4.14859 0.854504 5.01971 1.08681H38.4705C40.9793 0.808051 41.2581 2.36444 41.0839 3.17748V30.3563M2.40636 30.3563H41.0839M2.40636 30.3563H1.01258C0.896427 31.9243 1.53525 35.1997 5.01971 35.7572H38.4705C39.9804 35.3507 43 33.7014 43 30.3563H41.0839" stroke="white"/>
<path d="M29.5335 11.0465H31.0076C31.3067 11.0037 31.8921 11.1362 31.8408 12.0079V16.4944C31.8836 16.8149 31.7767 17.4558 31.0076 17.4558H29.5335M29.5335 11.0465H21.3295C20.5091 11.0465 20.4322 11.6874 20.4963 12.0079V16.879C20.4963 17.443 21.0517 17.4986 21.3295 17.4558H29.5335M29.5335 11.0465V9.79664M29.5335 17.4558V24.6343C29.5976 25.0402 29.4822 25.8521 28.508 25.8521H16.3943C16.0311 25.8948 15.3303 25.7624 15.4329 24.8907M15.4329 24.8907H14.5995C14.2133 24.8266 14.0355 24.519 14.0868 24.0575V22.1347C14.0659 21.9638 14.1393 21.6091 14.5995 21.5578H15.4329M15.4329 24.8907H18.764C19.2767 24.8907 19.3622 24.3352 19.3408 24.0575V22.1347C19.3408 21.7245 18.9563 21.5792 18.764 21.5578H15.4329M15.4329 21.5578V20.276M15.4329 20.276H14.7261C14.513 20.2973 14.0868 20.2119 14.0868 19.6991C14.0868 19.1864 14.0868 14.358 14.0868 12.0079C14.0643 11.7515 14.1606 11.2516 14.7261 11.3028H15.4329M15.4329 20.276H18.764C19.2254 20.276 19.3408 19.8914 19.3408 19.6991V12.0079C19.3408 11.3413 18.8281 11.2601 18.5717 11.3028H15.4329M15.4329 11.3028V9.79664M15.4329 9.79664V8.29044C15.4121 7.99133 15.5753 7.39312 16.3943 7.39312H18.764M15.4329 9.79664L18.764 9.79664M29.5335 9.79664V8.54681C29.5335 7.36749 28.508 7.2863 27.9952 7.39312H18.764M29.5335 9.79664L18.764 9.79664M18.764 7.39312V9.79664M14.9824 14.4434H17.0975" stroke="white" stroke-width="0.6"/>
<path d="M17.6719 14.4434H18.2487" stroke="white" stroke-width="0.6"/>
<path d="M14.918 15.6612H17.674" stroke="white" stroke-width="0.6"/>
<path d="M14.8555 16.6226H16.586" stroke="white" stroke-width="0.6"/>
<path d="M14.918 12.4565H17.674" stroke="white" stroke-width="0.6"/>
<path d="M14.8555 13.4179H16.586" stroke="white" stroke-width="0.6"/>
<path d="M15.1094 22.4551H18.3141" stroke="white" stroke-width="0.6"/>
<path d="M14.9844 23.6729H17.3558" stroke="white" stroke-width="0.6"/>
<path d="M22.1636 19.3786C22.0141 19.4213 21.715 19.5709 21.715 19.8273V20.7246C21.7577 20.8741 21.9073 21.1604 22.1636 21.1091M21.1381 18.6736H24.5351C24.8128 18.6309 25.3683 18.712 25.3683 19.3786V21.1732C25.411 21.451 25.3042 21.9936 24.5351 21.9424H21.1381C20.8818 21.8996 20.4075 21.686 20.5613 21.1732V19.3786C20.5186 19.1436 20.5741 18.6736 21.1381 18.6736Z" stroke="white" stroke-width="0.6"/>
<path d="M21.7189 20.2118H21.3984" stroke="white" stroke-width="0.6"/>
<path d="M22.4805 20.7246L23.4419 19.8273" stroke="white" stroke-width="0.6"/>
<path d="M23.7656 19.4428C23.9152 19.4214 24.2143 19.4556 24.2143 19.7632V20.7246C24.2143 20.8528 24.1374 21.1092 23.8297 21.1092" stroke="white" stroke-width="0.6"/>
<path d="M24.2148 20.2118H24.5994" stroke="white" stroke-width="0.6"/>
<path d="M22.8622 23.2243H21.1957C20.6829 23.2243 20.5547 23.6089 20.5548 23.8011V24.3139C20.5035 24.7241 20.9607 24.8694 21.1957 24.8907H22.8622M22.8622 23.2243H27.3487C27.541 23.2457 27.9127 23.3909 27.8614 23.8011V24.3139C27.8614 24.4848 27.7589 24.8395 27.3487 24.8907H22.8622M22.8622 23.2243C23.6954 23.2243 23.6313 24.8907 22.8622 24.8907" stroke="white" stroke-width="0.6"/>
<path d="M14.8555 17.8405H17.9961" stroke="white" stroke-width="0.6"/>
<path d="M14.793 19.0582H18.5104" stroke="white" stroke-width="0.6"/>
<path d="M25.6881 15.3738C24.5973 14.8166 25.377 12.5083 27.0527 13.7421" stroke="white" stroke-width="0.5"/>
<path d="M25.9219 15.732V16.7668L26.8966 16.528M25.9219 15.732L27.4271 13.8615M25.9219 15.732L26.4092 16.13M26.8966 16.528L28.4291 14.6973M26.8966 16.528L26.4092 16.13M27.4271 13.8615L27.7153 13.5033C27.7933 13.3972 28.0038 13.2486 28.2221 13.5033L28.768 13.9809C28.8199 14.034 28.8849 14.1799 28.729 14.3391L28.4291 14.6973M27.4271 13.8615L27.9281 14.2794M28.4291 14.6973L27.9281 14.2794M26.4092 16.13L27.9281 14.2794" stroke="white" stroke-width="0.5"/>
<path d="M25.293 12.9063C25.3969 12.84 25.6439 12.7073 25.7998 12.7073V12.19C25.8778 11.8716 26.3924 11.7124 26.5796 12.19V12.7073C26.6965 12.7073 26.9772 12.7471 27.1644 12.9063L27.5153 12.5879C27.7102 12.5084 28.0611 12.5879 28.0611 12.9859" stroke="white" stroke-width="0.5"/>
<path d="M25.2969 12.9063L24.868 12.5481C24.6731 12.5216 24.291 12.5799 24.3222 13.0257L24.7121 13.4635C24.6211 13.5829 24.447 13.8694 24.4781 14.0605H24.0103C23.7374 14.0605 23.5113 14.6256 24.0103 14.8166H24.4781C24.4782 14.9626 24.525 15.2862 24.7121 15.4136L24.3612 15.8514C24.3092 16.0769 24.3377 16.4961 24.868 16.3688L25.2579 16.0106L25.5308 16.13" stroke="white" stroke-width="0.5"/>
</svg>
