<svg width="60" height="58" viewBox="0 0 60 58" fill="none" xmlns="http://www.w3.org/2000/svg">
<path d="M18.9766 20.7465L20.4345 22.155L23.8363 19.3381L22.3784 17.9297L18.9766 20.7465Z" fill="#FE8604" fill-opacity="0.4" stroke="#FE8604" stroke-opacity="0.7"/>
<path d="M27.236 16.0527V17.9306H31.1238V16.0527H27.236Z" fill="#FE8604" fill-opacity="0.4"/>
<path d="M27.236 17.9306V16.0527H31.1238V17.9306H26.75" stroke="#FE8604" stroke-opacity="0.7"/>
<path d="M37.3712 28.7276C37.3712 33.3339 33.6805 37.0256 29.1798 37.0256C24.679 37.0256 20.9883 33.3339 20.9883 28.7276C20.9883 24.1214 24.679 20.4297 29.1798 20.4297C33.6805 20.4297 37.3712 24.1214 37.3712 28.7276Z" stroke="#FE8604" stroke-opacity="0.7" stroke-width="5"/>
<path d="M36.4712 17.4609L34.5273 19.3388L37.9292 22.6252L39.8731 20.7473L36.4712 17.4609Z" fill="#FE8604" fill-opacity="0.4" stroke="#FE8604" stroke-opacity="0.7"/>
<path d="M41.8169 24.5039L39.3871 24.9734L39.873 29.1987L42.7889 28.7292L41.8169 24.5039Z" fill="#FE8604" fill-opacity="0.4"/>
<path d="M41.8169 33.4239L39.3871 32.0155L37.4431 35.7713L39.873 37.1798L41.8169 33.4239Z" fill="#FE8604" fill-opacity="0.4"/>
<path d="M31.6114 41.8745L30.6395 39.5271L35.0133 38.1187L35.9852 39.9966L31.6114 41.8745Z" fill="#FE8604" fill-opacity="0.4"/>
<path d="M27.7236 39.5271L23.3498 38.1187L22.8639 40.4661L26.7517 41.8745L27.7236 39.5271Z" fill="#FE8604" fill-opacity="0.4"/>
<path d="M18.9761 32.0155L16.5462 33.4239L18.9761 37.1798L20.92 35.7713L18.9761 32.0155Z" fill="#FE8604" fill-opacity="0.4"/>
<path d="M18.9761 24.9734L16.5462 24.5039L15.5742 28.7292L18.4901 29.1987L18.9761 24.9734Z" fill="#FE8604" fill-opacity="0.4"/>
<path d="M41.8169 24.5039L39.3871 24.9734L39.873 29.1987L42.7889 28.7292L41.8169 24.5039Z" stroke="#FE8604" stroke-opacity="0.7"/>
<path d="M41.8169 33.4239L39.3871 32.0155L37.4431 35.7713L39.873 37.1798L41.8169 33.4239Z" stroke="#FE8604" stroke-opacity="0.7"/>
<path d="M31.6114 41.8745L30.6395 39.5271L35.0133 38.1187L35.9852 39.9966L31.6114 41.8745Z" stroke="#FE8604" stroke-opacity="0.7"/>
<path d="M27.7236 39.5271L23.3498 38.1187L22.8639 40.4661L26.7517 41.8745L27.7236 39.5271Z" stroke="#FE8604" stroke-opacity="0.7"/>
<path d="M18.9761 32.0155L16.5462 33.4239L18.9761 37.1798L20.92 35.7713L18.9761 32.0155Z" stroke="#FE8604" stroke-opacity="0.7"/>
<path d="M18.9761 24.9734L16.5462 24.5039L15.5742 28.7292L18.4901 29.1987L18.9761 24.9734Z" stroke="#FE8604" stroke-opacity="0.7"/>
<path d="M45.8303 38.6354L45.7394 39.8058L48.3494 40.1911L48.4403 39.0207L45.8303 38.6354Z" fill="#FE8604" fill-opacity="0.4" stroke="#FE8604" stroke-opacity="0.7"/>
<path d="M51.1751 40.3972L50.3067 41.119L51.801 42.7966L52.6693 42.0749L51.1751 40.3972Z" fill="#FE8604" fill-opacity="0.4"/>
<path d="M50.0699 41.3158L51.1751 40.3972L52.6693 42.0749L51.801 42.7966L50.12 40.9093" stroke="#FE8604" stroke-opacity="0.7"/>
<path d="M49.1693 49.6028C46.9943 51.4107 43.8909 51.1783 42.2185 49.3006C40.5461 47.4229 40.7713 44.4238 42.9463 42.6159C45.1212 40.8081 48.2247 41.0404 49.897 42.9181C51.5694 44.7958 51.3442 47.795 49.1693 49.6028Z" stroke="#FE8604" stroke-opacity="0.7" stroke-width="3"/>
<path d="M54.0752 44.9228L52.4598 44.8057L52.2477 47.5368L53.8632 47.6538L54.0752 44.9228Z" fill="#FE8604" fill-opacity="0.4" stroke="#FE8604" stroke-opacity="0.7"/>
<path d="M52.8713 49.9336L51.7203 49.0655L49.9534 50.8992L51.2911 51.977L52.8713 49.9336Z" fill="#FE8604" fill-opacity="0.4"/>
<path d="M48.7468 53.362L48.4641 51.7721L45.9804 52.3768L46.263 53.9666L48.7468 53.362Z" fill="#FE8604" fill-opacity="0.4"/>
<path d="M40.917 52.206L41.6288 50.8844L43.9611 52.2304L43.4663 53.3716L40.917 52.206Z" fill="#FE8604" fill-opacity="0.4"/>
<path d="M40.5081 49.6261L39.4784 47.1974L38.2062 47.8899L39.0492 50.1089L40.5081 49.6261Z" fill="#FE8604" fill-opacity="0.4"/>
<path d="M40.6194 42.9643L39.0342 42.4571L38.2315 44.9492L39.6298 45.2467L40.6194 42.9643Z" fill="#FE8604" fill-opacity="0.4"/>
<path d="M43.8755 40.2578L43.1587 39.0288L40.8314 40.2333L41.735 41.672L43.8755 40.2578Z" fill="#FE8604" fill-opacity="0.4"/>
<path d="M52.8713 49.9336L51.7203 49.0655L49.9534 50.8992L51.2911 51.977L52.8713 49.9336Z" stroke="#FE8604" stroke-opacity="0.7"/>
<path d="M48.7468 53.362L48.4641 51.7721L45.9804 52.3768L46.263 53.9666L48.7468 53.362Z" stroke="#FE8604" stroke-opacity="0.7"/>
<path d="M40.917 52.206L41.6288 50.8844L43.9611 52.2304L43.4663 53.3716L40.917 52.206Z" stroke="#FE8604" stroke-opacity="0.7"/>
<path d="M40.5081 49.6261L39.4784 47.1974L38.2062 47.8899L39.0492 50.1089L40.5081 49.6261Z" stroke="#FE8604" stroke-opacity="0.7"/>
<path d="M40.6194 42.9643L39.0342 42.4571L38.2315 44.9492L39.6298 45.2467L40.6194 42.9643Z" stroke="#FE8604" stroke-opacity="0.7"/>
<path d="M43.8755 40.2578L43.1587 39.0288L40.8314 40.2333L41.735 41.672L43.8755 40.2578Z" stroke="#FE8604" stroke-opacity="0.7"/>
<path d="M51.8054 23.6004L51.6995 24.4634L53.6172 24.829L53.7232 23.9661L51.8054 23.6004Z" fill="#FE8604" fill-opacity="0.4" stroke="#FE8604" stroke-opacity="0.7"/>
<path d="M55.7054 25.0691L55.0393 25.5761L56.089 26.8632L56.7552 26.3562L55.7054 25.0691Z" fill="#FE8604" fill-opacity="0.4"/>
<path d="M54.8576 25.7144L55.7054 25.0691L56.7552 26.3562L56.089 26.8632L54.908 25.4152" stroke="#FE8604" stroke-opacity="0.7"/>
<path d="M53.6712 31.5141C52.1545 32.6685 50.1188 32.4004 49.0941 31.1439C48.0693 29.8874 48.2758 27.9126 49.7925 26.7583C51.3091 25.6039 53.3448 25.872 54.3696 27.1285C55.3944 28.385 55.1879 30.3597 53.6712 31.5141Z" stroke="#FE8604" stroke-opacity="0.7" stroke-width="3"/>
<path d="M57.7006 28.5088L56.5096 28.3723L56.2623 30.3858L57.4534 30.5223L57.7006 28.5088Z" fill="#FE8604" fill-opacity="0.4" stroke="#FE8604" stroke-opacity="0.7"/>
<path d="M56.642 32.1802L55.8191 31.5023L54.4512 32.8044L55.4052 33.6431L56.642 32.1802Z" fill="#FE8604" fill-opacity="0.4"/>
<path d="M53.4769 34.5892L53.3204 33.4042L51.4628 33.7748L51.6193 34.9598L53.4769 34.5892Z" fill="#FE8604" fill-opacity="0.4"/>
<path d="M47.7223 33.492L48.2927 32.5362L49.9737 33.6041L49.5698 34.4331L47.7223 33.492Z" fill="#FE8604" fill-opacity="0.4"/>
<path d="M47.5052 31.5706L46.8238 29.7419L45.8596 30.215L46.4099 31.8827L47.5052 31.5706Z" fill="#FE8604" fill-opacity="0.4"/>
<path d="M47.8081 26.6453L46.6521 26.2211L45.9757 28.04L47.0005 28.3034L47.8081 26.6453Z" fill="#FE8604" fill-opacity="0.4"/>
<path d="M50.3068 24.7435L49.8172 23.8121L48.0555 24.6313L48.6764 25.7237L50.3068 24.7435Z" fill="#FE8604" fill-opacity="0.4"/>
<path d="M56.642 32.1802L55.8191 31.5023L54.4512 32.8044L55.4052 33.6431L56.642 32.1802Z" stroke="#FE8604" stroke-opacity="0.7"/>
<path d="M53.4769 34.5892L53.3204 33.4042L51.4628 33.7748L51.6193 34.9598L53.4769 34.5892Z" stroke="#FE8604" stroke-opacity="0.7"/>
<path d="M47.7223 33.492L48.2927 32.5362L49.9737 33.6041L49.5698 34.4331L47.7223 33.492Z" stroke="#FE8604" stroke-opacity="0.7"/>
<path d="M47.5052 31.5706L46.8238 29.7419L45.8596 30.215L46.4099 31.8827L47.5052 31.5706Z" stroke="#FE8604" stroke-opacity="0.7"/>
<path d="M47.8081 26.6453L46.6521 26.2211L45.9757 28.04L47.0005 28.3034L47.8081 26.6453Z" stroke="#FE8604" stroke-opacity="0.7"/>
<path d="M50.3068 24.7435L49.8172 23.8121L48.0555 24.6313L48.6764 25.7237L50.3068 24.7435Z" stroke="#FE8604" stroke-opacity="0.7"/>
<path d="M37.2124 5.7411C37.2124 6.86616 36.2609 7.82204 35.032 7.82204C33.8031 7.82204 32.8516 6.86616 32.8516 5.7411C32.8516 4.61603 33.8031 3.66016 35.032 3.66016C36.2609 3.66016 37.2124 4.61603 37.2124 5.7411Z" stroke="#30347B" stroke-width="1.5"/>
<path d="M10.0015 33.9091C10.0015 35.0341 9.04991 35.99 7.82106 35.99C6.59221 35.99 5.64062 35.0341 5.64062 33.9091C5.64062 32.784 6.59221 31.8281 7.82106 31.8281C9.04991 31.8281 10.0015 32.784 10.0015 33.9091Z" stroke="#30347B" stroke-width="1.5"/>
<path d="M4.78431 31.6562C-2.50533 22.2667 -1.0474 -0.737591 25.1953 1.14031" stroke="#30347B" stroke-width="1.5"/>
<path d="M36.9618 8.54297C44.2514 17.9325 42.7935 40.9368 16.5508 39.0589" stroke="#30347B" stroke-width="1.5"/>
<mask id="path-23-inside-1_1058_17146" fill="white">
<ellipse cx="28.2141" cy="1.9702" rx="0.971953" ry="0.938952"/>
</mask>
<ellipse cx="28.2141" cy="1.9702" rx="0.971953" ry="0.938952" fill="black"/>
<path d="M27.6861 1.9702C27.6861 1.61193 27.9718 1.40915 28.2141 1.40915V4.40915C29.5301 4.40915 30.6861 3.36561 30.6861 1.9702H27.6861ZM28.2141 1.40915C28.4565 1.40915 28.7422 1.61193 28.7422 1.9702H25.7422C25.7422 3.36561 26.8982 4.40915 28.2141 4.40915V1.40915ZM28.7422 1.9702C28.7422 2.32848 28.4565 2.53125 28.2141 2.53125V-0.46875C26.8982 -0.46875 25.7422 0.574789 25.7422 1.9702H28.7422ZM28.2141 2.53125C27.9718 2.53125 27.6861 2.32848 27.6861 1.9702H30.6861C30.6861 0.574789 29.5301 -0.46875 28.2141 -0.46875V2.53125Z" fill="#30347B" mask="url(#path-23-inside-1_1058_17146)"/>
<mask id="path-25-inside-2_1058_17146" fill="white">
<ellipse cx="13.6321" cy="37.6499" rx="0.971953" ry="0.938952"/>
</mask>
<ellipse cx="13.6321" cy="37.6499" rx="0.971953" ry="0.938952" fill="black"/>
<path d="M13.1041 37.6499C13.1041 37.2916 13.3897 37.0888 13.6321 37.0888V40.0888C14.9481 40.0888 16.1041 39.0453 16.1041 37.6499H13.1041ZM13.6321 37.0888C13.8745 37.0888 14.1602 37.2916 14.1602 37.6499H11.1602C11.1602 39.0453 12.3161 40.0888 13.6321 40.0888V37.0888ZM14.1602 37.6499C14.1602 38.0082 13.8745 38.2109 13.6321 38.2109V35.2109C12.3161 35.2109 11.1602 36.2545 11.1602 37.6499H14.1602ZM13.6321 38.2109C13.3897 38.2109 13.1041 38.0082 13.1041 37.6499H16.1041C16.1041 36.2545 14.9481 35.2109 13.6321 35.2109V38.2109Z" fill="#30347B" mask="url(#path-25-inside-2_1058_17146)"/>
<path d="M9.74859 12.2997L11.2065 13.7082L9.74859 17.464H7.80469V22.6282H9.74859L11.6925 26.384L10.2346 28.2619L13.6364 31.5482L15.0943 30.1398L18.9821 31.5482V33.4261H23.8419V31.5482L28.2157 30.1398L29.6736 31.5482L33.0755 28.2619L31.6175 26.384L33.0755 22.6282H35.0194V17.464H33.0755L31.6175 13.7082L33.0755 12.2997L29.6736 9.0134L28.2157 10.4218L23.8419 8.54392V6.66602H18.9821V8.54392L15.0943 10.4218L13.1504 9.0134L9.74859 12.2997Z" stroke="#30347B" stroke-width="1.5"/>
<path d="M26.4955 19.8114C26.4955 22.4844 24.2449 24.6952 21.4137 24.6952C18.5826 24.6952 16.332 22.4844 16.332 19.8114C16.332 17.1385 18.5826 14.9277 21.4137 14.9277C24.2449 14.9277 26.4955 17.1385 26.4955 19.8114Z" stroke="#30347B" stroke-width="1.5"/>
</svg>
