<svg width="33" height="30" viewBox="0 0 33 30" fill="none" xmlns="http://www.w3.org/2000/svg">
<path d="M3.70312 4.29429L4.72682 5.28323L7.11546 3.30535L6.09176 2.31641L3.70312 4.29429Z" fill="white" stroke="white"/>
<path d="M9.5053 1V2.31859H12.2352V1H9.5053Z" fill="white"/>
<path d="M9.5053 2.31859V1H12.2352V2.31859H9.16406" stroke="white"/>
<path d="M15.8775 9.8983C15.8775 12.7284 13.6125 14.9802 10.8704 14.9802C8.12835 14.9802 5.86328 12.7284 5.86328 9.8983C5.86328 7.06823 8.12835 4.81641 10.8704 4.81641C13.6125 4.81641 15.8775 7.06823 15.8775 9.8983Z" stroke="white" stroke-width="5"/>
<path d="M15.9899 1.98828L14.625 3.30687L17.0136 5.6144L18.3786 4.29581L15.9899 1.98828Z" fill="white" stroke="white"/>
<path d="M19.743 6.93359L18.0368 7.26324L18.3781 10.2301L20.4255 9.90042L19.743 6.93359Z" fill="white"/>
<path d="M19.743 13.1969L18.0368 12.208L16.6719 14.8451L18.3781 15.8341L19.743 13.1969Z" fill="white"/>
<path d="M12.5771 19.1305L11.8946 17.4823L14.9657 16.4934L15.6482 17.812L12.5771 19.1305Z" fill="white"/>
<path d="M9.84724 17.4823L6.77614 16.4934L6.43491 18.1416L9.16477 19.1305L9.84724 17.4823Z" fill="white"/>
<path d="M3.70504 12.208L1.99887 13.1969L3.70504 15.8341L5.06997 14.8451L3.70504 12.208Z" fill="white"/>
<path d="M3.70504 7.26324L1.99887 6.93359L1.31641 9.90042L3.36381 10.2301L3.70504 7.26324Z" fill="white"/>
<path d="M19.743 6.93359L18.0368 7.26324L18.3781 10.2301L20.4255 9.90042L19.743 6.93359Z" stroke="white"/>
<path d="M19.743 13.1969L18.0368 12.208L16.6719 14.8451L18.3781 15.8341L19.743 13.1969Z" stroke="white"/>
<path d="M12.5771 19.1305L11.8946 17.4823L14.9657 16.4934L15.6482 17.812L12.5771 19.1305Z" stroke="white"/>
<path d="M9.84724 17.4823L6.77614 16.4934L6.43491 18.1416L9.16477 19.1305L9.84724 17.4823Z" stroke="white"/>
<path d="M3.70504 12.208L1.99887 13.1969L3.70504 15.8341L5.06997 14.8451L3.70504 12.208Z" stroke="white"/>
<path d="M3.70504 7.26324L1.99887 6.93359L1.31641 9.90042L3.36381 10.2301L3.70504 7.26324Z" stroke="white"/>
<path d="M22.562 16.8578L22.4982 17.6797L24.3308 17.9502L24.3946 17.1284L22.562 16.8578Z" fill="white" stroke="white" stroke-width="1.3"/>
<path d="M26.3108 18.0945L25.7011 18.6013L26.7503 19.7793L27.36 19.2725L26.3108 18.0945Z" fill="white"/>
<path d="M25.5348 18.7395L26.3108 18.0945L27.36 19.2725L26.7503 19.7793L25.57 18.4541" stroke="white" stroke-width="1.3"/>
<path d="M25.1724 24.8607C23.4886 26.2603 21.0483 26.1038 19.7135 24.6052C18.3787 23.1065 18.5826 20.7521 20.2664 19.3525C21.9502 17.953 24.3905 18.1095 25.7253 19.6081C27.0601 21.1067 26.8561 23.4611 25.1724 24.8607Z" stroke="white" stroke-width="1.3"/>
<path d="M28.3488 21.2726L27.2145 21.1904L27.0656 23.108L28.1999 23.1902L28.3488 21.2726Z" fill="white" stroke="white" stroke-width="1.3"/>
<path d="M27.504 24.7913L26.6958 24.1817L25.4551 25.4693L26.3944 26.2261L27.504 24.7913Z" fill="white"/>
<path d="M24.6079 27.1985L24.4094 26.0822L22.6654 26.5068L22.8639 27.6231L24.6079 27.1985Z" fill="white"/>
<path d="M19.1101 26.3868L19.6099 25.4589L21.2476 26.404L20.9002 27.2053L19.1101 26.3868Z" fill="white"/>
<path d="M18.823 24.5754L18.1 22.87L17.2067 23.3563L17.7986 24.9143L18.823 24.5754Z" fill="white"/>
<path d="M18.9011 19.8977L17.7881 19.5416L17.2245 21.2914L18.2063 21.5003L18.9011 19.8977Z" fill="white"/>
<path d="M21.1875 17.9973L20.6842 17.1343L19.0501 17.9801L19.6845 18.9903L21.1875 17.9973Z" fill="white"/>
<path d="M27.504 24.7913L26.6958 24.1817L25.4551 25.4693L26.3944 26.2261L27.504 24.7913Z" stroke="white" stroke-width="1.3"/>
<path d="M24.6079 27.1985L24.4094 26.0822L22.6654 26.5068L22.8639 27.6231L24.6079 27.1985Z" stroke="white" stroke-width="1.3"/>
<path d="M19.1101 26.3868L19.6099 25.4589L21.2476 26.404L20.9002 27.2053L19.1101 26.3868Z" stroke="white" stroke-width="1.3"/>
<path d="M18.823 24.5754L18.1 22.87L17.2067 23.3563L17.7986 24.9143L18.823 24.5754Z" stroke="white" stroke-width="1.3"/>
<path d="M18.9011 19.8977L17.7881 19.5416L17.2245 21.2914L18.2063 21.5003L18.9011 19.8977Z" stroke="white" stroke-width="1.3"/>
<path d="M21.1875 17.9973L20.6842 17.1343L19.0501 17.9801L19.6845 18.9903L21.1875 17.9973Z" stroke="white" stroke-width="1.3"/>
<path d="M26.7593 6.29771L26.6849 6.90364L28.0315 7.16038L28.1059 6.55446L26.7593 6.29771Z" fill="white" stroke="white"/>
<path d="M29.4984 7.32781L29.0306 7.68384L29.7677 8.58759L30.2355 8.23157L29.4984 7.32781Z" fill="white"/>
<path d="M28.903 7.78094L29.4984 7.32781L30.2355 8.23157L29.7677 8.58759L28.9385 7.57087" stroke="white"/>
<path d="M28.4197 12.2843C27.1337 13.2631 25.3457 13.0706 24.4159 11.9306C23.4862 10.7906 23.7109 9.06623 24.9969 8.08743C26.2829 7.10862 28.0709 7.30106 29.0007 8.44106C29.9304 9.58106 29.7057 11.3055 28.4197 12.2843Z" stroke="white"/>
<path d="M30.8998 9.74485L30.0635 9.64899L29.8899 11.0628L30.7262 11.1587L30.8998 9.74485Z" fill="white" stroke="white"/>
<path d="M30.1561 12.3224L29.5783 11.8465L28.6178 12.7607L29.2877 13.3497L30.1561 12.3224Z" fill="white"/>
<path d="M27.9337 14.0139L27.8238 13.1819L26.5195 13.4421L26.6294 14.2742L27.9337 14.0139Z" fill="white"/>
<path d="M23.8931 13.2435L24.2936 12.5724L25.4739 13.3223L25.1903 13.9044L23.8931 13.2435Z" fill="white"/>
<path d="M23.7407 11.8944L23.2622 10.6104L22.5852 10.9425L22.9715 12.1136L23.7407 11.8944Z" fill="white"/>
<path d="M23.9533 8.43609L23.1416 8.1382L22.6667 9.41539L23.3862 9.60029L23.9533 8.43609Z" fill="white"/>
<path d="M25.7078 7.10069L25.364 6.44669L24.127 7.02194L24.563 7.78894L25.7078 7.10069Z" fill="white"/>
<path d="M30.1561 12.3224L29.5783 11.8465L28.6178 12.7607L29.2877 13.3497L30.1561 12.3224Z" stroke="white"/>
<path d="M27.9337 14.0139L27.8238 13.1819L26.5195 13.4421L26.6294 14.2742L27.9337 14.0139Z" stroke="white"/>
<path d="M23.8931 13.2435L24.2936 12.5724L25.4739 13.3223L25.1903 13.9044L23.8931 13.2435Z" stroke="white"/>
<path d="M23.7407 11.8944L23.2622 10.6104L22.5852 10.9425L22.9715 12.1136L23.7407 11.8944Z" stroke="white"/>
<path d="M23.9533 8.43609L23.1416 8.1382L22.6667 9.41539L23.3862 9.60029L23.9533 8.43609Z" stroke="white"/>
<path d="M25.7078 7.10069L25.364 6.44669L24.127 7.02194L24.563 7.78894L25.7078 7.10069Z" stroke="white"/>
</svg>
