<svg width="40" height="33" viewBox="0 0 40 33" fill="none" xmlns="http://www.w3.org/2000/svg">
<path d="M19.7595 5.32911L5.17285 1.35094C4.52955 1.17549 3.89798 1.66686 3.90989 2.33356L3.95479 4.8481M19.7595 5.32911L34.3698 1.34449C35.0059 1.17099 35.6329 1.64988 35.6329 2.30925V4.8481M19.7595 5.32911V32.2658M19.7595 32.2658L34.896 28.1377C35.3311 28.019 35.6329 27.6239 35.6329 27.1729V4.8481M19.7595 32.2658L5.08291 28.138C4.65799 28.0185 4.36169 27.6346 4.35381 27.1932L3.95479 4.8481M19.7595 32.2658H2C1.44772 32.2658 1 31.8181 1 31.2658V5.8481C1 5.29582 1.44771 4.8481 2 4.8481H3.95479M19.7595 32.2658H38C38.5523 32.2658 39 31.8181 39 31.2658V5.8481C39 5.29582 38.5523 4.8481 38 4.8481H35.6329" stroke="#049507"/>
<path d="M25.7061 10.7011L27.1258 8.22536C27.5021 7.56898 28.4429 7.55219 28.8425 8.19473L30.3129 10.5594M25.7061 10.7011L25.8947 19.5139M25.7061 10.7011L27.862 10.9962M30.3129 10.5594L30.487 19.3583M30.3129 10.5594L27.862 10.9962M30.5382 21.9463L30.5734 23.7255C30.5771 23.9156 30.5301 24.1049 30.4156 24.2568C29.752 25.1368 28.2844 26.1219 26.4774 24.6243C26.2839 24.4639 26.1764 24.2231 26.1614 23.9722L26.036 21.8761M30.5382 21.9463L26.036 21.8761M30.5382 21.9463L30.487 19.3583M26.036 21.8761L25.8947 19.5139M25.8947 19.5139L28.1908 19.4361M30.487 19.3583L28.1908 19.4361M27.862 10.9962L28.1908 19.4361" stroke="#049507"/>
<path d="M5.80859 10.6211H8.69467" stroke="#049507" stroke-width="0.7"/>
<path d="M9.66016 10.6211H15.4323" stroke="#049507" stroke-width="0.7"/>
<path d="M16.3906 10.6211H18.3147" stroke="#049507" stroke-width="0.7"/>
<path d="M5.80859 12.5449H7.73264" stroke="#049507" stroke-width="0.7"/>
<path d="M8.69531 12.5449H11.5814" stroke="#049507" stroke-width="0.7"/>
<path d="M13.5078 12.5449H18.3179" stroke="#049507" stroke-width="0.7"/>
<path d="M5.80859 14.4688H9.6567" stroke="#049507" stroke-width="0.7"/>
<path d="M10.6211 14.4688H15.4312" stroke="#049507" stroke-width="0.7"/>
<path d="M16.3906 14.4688H18.3147" stroke="#049507" stroke-width="0.7"/>
<path d="M5.80859 16.3926H6.77062" stroke="#049507" stroke-width="0.7"/>
<path d="M7.73438 16.3926H13.5065" stroke="#049507" stroke-width="0.7"/>
<path d="M14.4688 16.3926H18.3169" stroke="#049507" stroke-width="0.7"/>
<path d="M5.80859 18.3164H8.69467" stroke="#049507" stroke-width="0.7"/>
<path d="M9.66016 18.3164H15.4323" stroke="#049507" stroke-width="0.7"/>
<path d="M16.3906 18.3164H18.3147" stroke="#049507" stroke-width="0.7"/>
<path d="M5.80859 20.2402H7.73264" stroke="#049507" stroke-width="0.7"/>
<path d="M8.69531 20.2402H11.5814" stroke="#049507" stroke-width="0.7"/>
<path d="M13.5078 20.2402H18.3179" stroke="#049507" stroke-width="0.7"/>
<path d="M5.80859 22.1641H9.6567" stroke="#049507" stroke-width="0.7"/>
<path d="M10.6211 22.1641H15.4312" stroke="#049507" stroke-width="0.7"/>
<path d="M16.3906 22.1641H18.3147" stroke="#049507" stroke-width="0.7"/>
<path d="M5.80859 24.0879H6.77062" stroke="#049507" stroke-width="0.7"/>
<path d="M7.73438 24.0879H13.5065" stroke="#049507" stroke-width="0.7"/>
<path d="M14.4688 24.0879H18.3169" stroke="#049507" stroke-width="0.7"/>
</svg>
