<svg width="45" height="42" viewBox="0 0 45 42" fill="none" xmlns="http://www.w3.org/2000/svg">
<path d="M40.4936 29.6964V2.35547C40.4936 1.80318 40.0459 1.35547 39.4936 1.35547H5.29113C4.73885 1.35547 4.29113 1.80318 4.29113 2.35547V29.6964M40.4936 29.6964H4.29113M40.4936 29.6964L43.7847 37.4763M4.29113 29.6964L1 37.4763M1 37.4763V39.8105C1 40.3628 1.44771 40.8105 2 40.8105H42.7847C43.337 40.8105 43.7847 40.3628 43.7847 39.8105V37.4763M1 37.4763H14.7131M43.7847 37.4763H30.6202M14.7131 37.4763L16.6108 34.5923C16.7958 34.3112 17.1097 34.142 17.4462 34.142H27.8871C28.2236 34.142 28.5375 34.3112 28.7224 34.5923L30.6202 37.4763M14.7131 37.4763H30.6202M8.03375 26.3622H36.751C37.3033 26.3622 37.751 25.9145 37.751 25.3622V5.6897C37.751 5.13741 37.3033 4.6897 36.751 4.6897H8.03375C7.48146 4.6897 7.03375 5.13741 7.03375 5.68969V25.3622C7.03375 25.9145 7.48146 26.3622 8.03375 26.3622Z" stroke="#EF8208"/>
<path d="M15.8057 8.02539L14.1602 11.3596" stroke="#EF8208"/>
<path d="M17.457 8.02539L19.1026 9.6925L17.457 11.3596" stroke="#EF8208"/>
<path d="M12.5234 8.02539L10.8779 9.6925L12.5234 11.3596" stroke="#EF8208"/>
<path d="M10.3242 14.1348C12.5183 14.1348 13.0668 14.1348 13.0668 14.1348" stroke="#EF8208"/>
<path d="M15.2578 14.1348H22.3886" stroke="#EF8208"/>
<path d="M11.9727 17.4707H18.5549" stroke="#EF8208"/>
<path d="M11.9727 20.25H16.3608" stroke="#EF8208"/>
<path d="M18.5547 20.25H28.4281" stroke="#EF8208"/>
<path d="M30.625 20.25H33.3676" stroke="#EF8208"/>
<path d="M11.4219 23.0273H14.1645" stroke="#EF8208"/>
<path d="M15.8047 23.0273H22.387" stroke="#EF8208"/>
<path d="M24.0352 23.0273H33.9086" stroke="#EF8208"/>
</svg>
