<svg width="49" height="40" viewBox="0 0 49 40" fill="none" xmlns="http://www.w3.org/2000/svg">
<path d="M24.1504 5.76096L5.617 0.706406C4.97369 0.530961 4.34213 1.02233 4.35404 1.68902L4.41603 5.16035M24.1504 5.76096L42.7074 0.699956C43.3435 0.526463 43.9705 1.00535 43.9705 1.66472V5.16035M24.1504 5.76096V39.3951M24.1504 39.3951L43.2336 34.1906C43.6687 34.072 43.9705 33.6768 43.9705 33.2258V5.16035M24.1504 39.3951L5.64665 34.191C5.22174 34.0715 4.92544 33.6875 4.91756 33.2462L4.41603 5.16035M24.1504 39.3951H1.72656C1.17428 39.3951 0.726562 38.9474 0.726562 38.3951V6.16035C0.726562 5.60807 1.17428 5.16035 1.72656 5.16035H4.41603M24.1504 39.3951H47.1748C47.7271 39.3951 48.1748 38.9474 48.1748 38.3951V6.16035C48.1748 5.60807 47.7271 5.16035 47.1748 5.16035H43.9705" stroke="#EF8208"/>
<path d="M31.5767 12.4691L33.5563 9.01674C33.9327 8.36036 34.8735 8.34357 35.273 8.98611L37.3288 12.2922M31.5767 12.4691L31.8121 23.4731M31.5767 12.4691L34.2686 12.8376M37.3288 12.2922L37.5462 23.2789M37.3288 12.2922L34.2686 12.8376M37.6102 26.5103L37.6555 28.8042C37.6593 28.9944 37.6116 29.1834 37.4999 29.3373C36.6841 30.4619 34.7952 31.7855 32.4647 29.791C32.2737 29.6275 32.166 29.3878 32.151 29.1369L31.9886 26.4226M37.6102 26.5103L31.9886 26.4226M37.6102 26.5103L37.5462 23.2789M31.9886 26.4226L31.8121 23.4731M31.8121 23.4731L34.6792 23.376M37.5462 23.2789L34.6792 23.376M34.2686 12.8376L34.6792 23.376" stroke="#EF8208"/>
<path d="M6.73047 12.3691H10.3341" stroke="#EF8208" stroke-width="0.7"/>
<path d="M11.5391 12.3691H18.7464" stroke="#EF8208" stroke-width="0.7"/>
<path d="M19.9453 12.3691H22.3478" stroke="#EF8208" stroke-width="0.7"/>
<path d="M6.73047 14.7695H9.13291" stroke="#EF8208" stroke-width="0.7"/>
<path d="M10.332 14.7695H13.9357" stroke="#EF8208" stroke-width="0.7"/>
<path d="M16.3438 14.7695H22.3499" stroke="#EF8208" stroke-width="0.7"/>
<path d="M6.73047 17.1738H11.5354" stroke="#EF8208" stroke-width="0.7"/>
<path d="M12.7383 17.1738H18.7444" stroke="#EF8208" stroke-width="0.7"/>
<path d="M19.9453 17.1738H22.3478" stroke="#EF8208" stroke-width="0.7"/>
<path d="M6.73047 19.5762H7.93169" stroke="#EF8208" stroke-width="0.7"/>
<path d="M9.13281 19.5762H16.3401" stroke="#EF8208" stroke-width="0.7"/>
<path d="M17.543 19.5762H22.3479" stroke="#EF8208" stroke-width="0.7"/>
<path d="M6.73047 21.9766H10.3341" stroke="#EF8208" stroke-width="0.7"/>
<path d="M11.5391 21.9766H18.7464" stroke="#EF8208" stroke-width="0.7"/>
<path d="M19.9453 21.9766H22.3478" stroke="#EF8208" stroke-width="0.7"/>
<path d="M6.73047 24.3789H9.13291" stroke="#EF8208" stroke-width="0.7"/>
<path d="M10.332 24.3789H13.9357" stroke="#EF8208" stroke-width="0.7"/>
<path d="M16.3438 24.3789H22.3499" stroke="#EF8208" stroke-width="0.7"/>
<path d="M6.73047 26.7832H11.5354" stroke="#EF8208" stroke-width="0.7"/>
<path d="M12.7383 26.7832H18.7444" stroke="#EF8208" stroke-width="0.7"/>
<path d="M19.9453 26.7832H22.3478" stroke="#EF8208" stroke-width="0.7"/>
<path d="M6.73047 29.1836H7.93169" stroke="#EF8208" stroke-width="0.7"/>
<path d="M9.13281 29.1836H16.3401" stroke="#EF8208" stroke-width="0.7"/>
<path d="M17.543 29.1836H22.3479" stroke="#EF8208" stroke-width="0.7"/>
</svg>
