<svg width="50" height="42" viewBox="0 0 50 42" fill="none" xmlns="http://www.w3.org/2000/svg">
<path d="M8.45167 17.2715V3.07751C8.45167 2.62221 8.14548 2.21916 7.69572 2.14841C5.34287 1.77828 1.6583 2.20628 1.26172 6.33402V35.6919C1.44459 37.4049 2.57071 40.903 5.61173 40.5099C5.66055 40.5036 5.71102 40.4995 5.76024 40.4995H25.5969" stroke="#EF8208"/>
<path d="M8.45167 21.3008V29.8591C8.45167 30.6444 7.55756 31.1535 6.79238 30.977C4.81397 30.5207 2.26658 31.16 1.26172 35.6922" stroke="#EF8208"/>
<path d="M8.45312 10.9403H37.3191C37.8713 10.9403 38.3191 10.4926 38.3191 9.94034V3.28369C38.3191 3.0254 38.4155 2.77436 38.6103 2.60474C39.8244 1.54748 42.3046 0.425761 44.6676 2.59876C44.8578 2.77359 44.9559 3.0254 44.9559 3.28369V16.6958" stroke="#EF8208"/>
<path d="M38.3164 9.99023V30.8587C38.3164 31.0087 38.3501 31.1566 38.415 31.2918L40.7335 36.118C41.0966 36.874 42.1731 36.874 42.5362 36.118L44.8547 31.2918C44.9196 31.1566 44.9533 31.0087 44.9533 30.8587V19.5734" stroke="#EF8208"/>
<path d="M41.6367 10.9375V27.0559" stroke="#EF8208"/>
<path d="M38.8672 6.91016H44.951" stroke="#EF8208"/>
<path d="M44.9548 10.9375H48.3794C48.9317 10.9375 49.3794 11.3852 49.3794 11.9375V39.4984C49.3794 40.0507 48.9317 40.4984 48.3794 40.4984H28.3633" stroke="#EF8208"/>
<path d="M23.9381 21.8322L21.8364 20.7632L23.9381 18.625L26.0398 20.7632L23.9381 21.8322ZM23.9381 21.8322V23.9704M23.9381 23.9704L21.8364 26.1085M23.9381 23.9704L26.0398 26.1085M21.8364 26.1085L23.9381 28.2467L26.0398 26.1085M21.8364 26.1085H16.5822V28.2467M26.0398 26.1085H32.3448V28.2467M16.5822 28.2467H14.4805L13.4297 30.3848H15.5314M16.5822 28.2467H18.6839L17.633 30.3848H15.5314M15.5314 30.3848V32.523H21.8364M21.8364 32.523V31.4539H26.0398V32.523M21.8364 32.523V33.5921H26.0398V32.523M26.0398 32.523H32.3448V30.3848M32.3448 30.3848H29.1923L30.2431 28.2467H32.3448M32.3448 30.3848H33.3956L34.4465 28.2467H32.3448" stroke="#EF8208"/>
<path d="M17.1602 17.8491L18.8892 16.4072L17.1725 14.8887" fill="white"/>
<path d="M17.1602 17.8491L18.8892 16.4072L17.1725 14.8887" stroke="#EF8208" stroke-width="0.8" stroke-linecap="round" stroke-linejoin="round"/>
<path d="M12.9578 14.8887L11.2227 16.3243L12.9455 17.8491" fill="white"/>
<path d="M12.9578 14.8887L11.2227 16.3243L12.9455 17.8491" stroke="#EF8208" stroke-width="0.8" stroke-linecap="round" stroke-linejoin="round"/>
<path d="M14.2422 18.7091C14.2669 18.6389 16.107 14.0195 16.107 14.0195" stroke="#EF8208" stroke-width="0.8" stroke-miterlimit="10" stroke-linecap="round"/>
</svg>
