<svg version="1.2" xmlns="http://www.w3.org/2000/svg" viewBox="0 0 3710 3710" width="3710" height="3710">
	<title>Tango code</title>
	<defs>
		<linearGradient id="g1" x2="1" gradientUnits="userSpaceOnUse" gradientTransform="matrix(328.69,1670.393,-1490.338,293.26,957.874,-126.279)">
			<stop offset="0" stop-color="#ffc444"/>
			<stop offset=".996" stop-color="#f36f56"/>
		</linearGradient>
		<linearGradient id="g2" x2="1" gradientUnits="userSpaceOnUse" gradientTransform="matrix(323.649,1644.774,-1566.242,308.196,1875.825,-162.975)">
			<stop offset="0" stop-color="#ffc444"/>
			<stop offset=".996" stop-color="#f36f56"/>
		</linearGradient>
		<linearGradient id="g3" x2="1" gradientUnits="userSpaceOnUse" gradientTransform="matrix(368.009,1870.213,-2322.077,456.924,1114.162,-85.47)">
			<stop offset="0" stop-color="#ffc444"/>
			<stop offset=".996" stop-color="#f36f56"/>
		</linearGradient>
		<linearGradient id="g4" x2="1" gradientUnits="userSpaceOnUse" gradientTransform="matrix(318.471,1618.458,-931.464,183.288,955.811,-45.159)">
			<stop offset="0" stop-color="#ffc444"/>
			<stop offset=".996" stop-color="#f36f56"/>
		</linearGradient>
		<linearGradient id="g5" x2="1" gradientUnits="userSpaceOnUse" gradientTransform="matrix(299.065,1519.838,-1168.111,229.854,2004.915,-189.456)">
			<stop offset="0" stop-color="#ffc444"/>
			<stop offset=".996" stop-color="#f36f56"/>
		</linearGradient>
		<linearGradient id="g6" x2="1" gradientUnits="userSpaceOnUse" gradientTransform="matrix(350.458,1781.019,-1953.504,384.399,1737.962,-369.669)">
			<stop offset="0" stop-color="#ffc444"/>
			<stop offset=".996" stop-color="#f36f56"/>
		</linearGradient>
		<linearGradient id="g7" x2="1" gradientUnits="userSpaceOnUse" gradientTransform="matrix(304.528,1547.601,-964.124,189.715,2007.436,-193.114)">
			<stop offset="0" stop-color="#ffc444"/>
			<stop offset=".996" stop-color="#f36f56"/>
		</linearGradient>
		<linearGradient id="g8" x2="1" gradientUnits="userSpaceOnUse" gradientTransform="matrix(305.859,1554.366,-1947.872,383.291,1107.049,-80.954)">
			<stop offset="0" stop-color="#ffc444"/>
			<stop offset=".996" stop-color="#f36f56"/>
		</linearGradient>
		<linearGradient id="g9" x2="1" gradientUnits="userSpaceOnUse" gradientTransform="matrix(431.082,2190.747,-4030.681,793.134,1322.311,-686.382)">
			<stop offset="0" stop-color="#ffc444"/>
			<stop offset=".996" stop-color="#f36f56"/>
		</linearGradient>
		<linearGradient id="g10" x2="1" gradientUnits="userSpaceOnUse" gradientTransform="matrix(413.299,2100.372,-3756.812,739.243,1303.842,-119.585)">
			<stop offset="0" stop-color="#ffc444"/>
			<stop offset=".996" stop-color="#f36f56"/>
		</linearGradient>
		<linearGradient id="g11" x2="1" gradientUnits="userSpaceOnUse" gradientTransform="matrix(325.075,1652.019,-1524.947,300.07,988.435,-45.698)">
			<stop offset="0" stop-color="#ffc444"/>
			<stop offset=".996" stop-color="#f36f56"/>
		</linearGradient>
		<linearGradient id="g12" x2="1" gradientUnits="userSpaceOnUse" gradientTransform="matrix(313.035,1590.835,-1886.916,371.296,1631.05,-90.418)">
			<stop offset="0" stop-color="#ffc444"/>
			<stop offset=".996" stop-color="#f36f56"/>
		</linearGradient>
		<linearGradient id="g13" x2="1" gradientUnits="userSpaceOnUse" gradientTransform="matrix(-124.717,724.914,-754.349,-129.781,830.279,804.99)">
			<stop offset="0" stop-color="#ffc444"/>
			<stop offset=".996" stop-color="#f36f56"/>
		</linearGradient>
		<linearGradient id="g14" x2="1" gradientUnits="userSpaceOnUse" gradientTransform="matrix(-187.643,78.81,-35.115,-83.606,2041.02,2969.865)">
			<stop offset="0" stop-color="#40447e"/>
			<stop offset=".996" stop-color="#3c3b6b"/>
		</linearGradient>
		<linearGradient id="g15" x2="1" gradientUnits="userSpaceOnUse" gradientTransform="matrix(-191.743,80.532,-68.571,-163.264,2045.819,2792.369)">
			<stop offset="0" stop-color="#40447e"/>
			<stop offset=".996" stop-color="#3c3b6b"/>
		</linearGradient>
		<linearGradient id="g16" x2="1" gradientUnits="userSpaceOnUse" gradientTransform="matrix(1849.975,0,0,1458.34,838.957,1339.66)">
			<stop offset="0" stop-color="#40447e"/>
			<stop offset=".996" stop-color="#3c3b6b"/>
		</linearGradient>
		<linearGradient id="g17" x2="1" gradientUnits="userSpaceOnUse" gradientTransform="matrix(1776.954,-1446.998,1336.874,1641.718,557.176,2038.543)">
			<stop offset="0" stop-color="#ffc444"/>
			<stop offset=".996" stop-color="#f36f56"/>
		</linearGradient>
		<linearGradient id="g18" x2="1" gradientUnits="userSpaceOnUse" gradientTransform="matrix(160.977,981.192,-3946.117,647.411,2015.28,1301.646)">
			<stop offset=".004" stop-color="#e38ddd"/>
			<stop offset="1" stop-color="#9571f6"/>
		</linearGradient>
		<linearGradient id="g19" x2="1" gradientUnits="userSpaceOnUse" gradientTransform="matrix(433.79,0,0,36.382,1901.407,1570.175)">
			<stop offset="0" stop-color="#ff9085"/>
			<stop offset="1" stop-color="#fb6fbb"/>
		</linearGradient>
		<linearGradient id="g20" x2="1" gradientUnits="userSpaceOnUse" gradientTransform="matrix(433.79,0,0,35.291,1901.407,1607.887)">
			<stop offset="0" stop-color="#ff9085"/>
			<stop offset="1" stop-color="#fb6fbb"/>
		</linearGradient>
		<linearGradient id="g21" x2="1" gradientUnits="userSpaceOnUse" gradientTransform="matrix(308.21,0,0,30.744,1825.203,1720.027)">
			<stop offset="0" stop-color="#ff9085"/>
			<stop offset="1" stop-color="#fb6fbb"/>
		</linearGradient>
		<linearGradient id="g22" x2="1" gradientUnits="userSpaceOnUse" gradientTransform="matrix(147.292,897.778,-3786.384,621.205,2016.791,1302.438)">
			<stop offset=".004" stop-color="#e38ddd"/>
			<stop offset="1" stop-color="#9571f6"/>
		</linearGradient>
		<linearGradient id="g23" x2="1" gradientUnits="userSpaceOnUse" gradientTransform="matrix(308.009,0,0,35.573,1724.413,1489.771)">
			<stop offset="0" stop-color="#ff9085"/>
			<stop offset="1" stop-color="#fb6fbb"/>
		</linearGradient>
		<linearGradient id="g24" x2="1" gradientUnits="userSpaceOnUse" gradientTransform="matrix(433.79,0,0,38.943,1901.407,2312.607)">
			<stop offset="0" stop-color="#ff9085"/>
			<stop offset="1" stop-color="#fb6fbb"/>
		</linearGradient>
		<linearGradient id="g25" x2="1" gradientUnits="userSpaceOnUse" gradientTransform="matrix(433.79,0,0,40.034,1901.407,2349.228)">
			<stop offset="0" stop-color="#ff9085"/>
			<stop offset="1" stop-color="#fb6fbb"/>
		</linearGradient>
		<linearGradient id="g26" x2="1" gradientUnits="userSpaceOnUse" gradientTransform="matrix(422.558,0,0,40.404,2099.57,2379.823)">
			<stop offset="0" stop-color="#ff9085"/>
			<stop offset="1" stop-color="#fb6fbb"/>
		</linearGradient>
		<linearGradient id="g27" x2="1" gradientUnits="userSpaceOnUse" gradientTransform="matrix(163.427,996.127,-5302.427,869.931,2077.106,1097.331)">
			<stop offset=".004" stop-color="#e38ddd"/>
			<stop offset="1" stop-color="#9571f6"/>
		</linearGradient>
		<linearGradient id="g28" x2="1" gradientUnits="userSpaceOnUse" gradientTransform="matrix(308.009,0,0,34.292,1724.413,2246.08)">
			<stop offset="0" stop-color="#ff9085"/>
			<stop offset="1" stop-color="#fb6fbb"/>
		</linearGradient>
		<linearGradient id="g29" x2="1" gradientUnits="userSpaceOnUse" gradientTransform="matrix(438.147,0,0,27.795,1825.203,1871.641)">
			<stop offset="0" stop-color="#ff9085"/>
			<stop offset="1" stop-color="#fb6fbb"/>
		</linearGradient>
		<linearGradient id="g30" x2="1" gradientUnits="userSpaceOnUse" gradientTransform="matrix(433.79,0,0,28.03,1901.407,1946.404)">
			<stop offset="0" stop-color="#ff9085"/>
			<stop offset="1" stop-color="#fb6fbb"/>
		</linearGradient>
		<linearGradient id="g31" x2="1" gradientUnits="userSpaceOnUse" gradientTransform="matrix(433.79,0,0,29.121,1901.407,1983.024)">
			<stop offset="0" stop-color="#ff9085"/>
			<stop offset="1" stop-color="#fb6fbb"/>
		</linearGradient>
		<linearGradient id="g32" x2="1" gradientUnits="userSpaceOnUse" gradientTransform="matrix(277.988,0,0,29.429,1725.181,2021.994)">
			<stop offset="0" stop-color="#ff9085"/>
			<stop offset="1" stop-color="#fb6fbb"/>
		</linearGradient>
		<linearGradient id="g33" x2="1" gradientUnits="userSpaceOnUse" gradientTransform="matrix(151.276,922.065,-4259.489,698.823,1954.102,1264.046)">
			<stop offset=".004" stop-color="#e38ddd"/>
			<stop offset="1" stop-color="#9571f6"/>
		</linearGradient>
		<linearGradient id="g34" x2="1" gradientUnits="userSpaceOnUse" gradientTransform="matrix(392.127,0,0,32.877,1901.407,2130.115)">
			<stop offset="0" stop-color="#ff9085"/>
			<stop offset="1" stop-color="#fb6fbb"/>
		</linearGradient>
		<linearGradient id="g35" x2="1" gradientUnits="userSpaceOnUse" gradientTransform="matrix(387.409,0,0,33.616,1993.055,2165.35)">
			<stop offset="0" stop-color="#ff9085"/>
			<stop offset="1" stop-color="#fb6fbb"/>
		</linearGradient>
		<linearGradient id="g36" x2="1" gradientUnits="userSpaceOnUse" gradientTransform="matrix(387.409,0,0,34.591,1993.055,2201.857)">
			<stop offset="0" stop-color="#ff9085"/>
			<stop offset="1" stop-color="#fb6fbb"/>
		</linearGradient>
		<linearGradient id="g37" x2="1" gradientUnits="userSpaceOnUse" gradientTransform="matrix(148.171,903.134,-3563.552,584.646,1795.742,1326.752)">
			<stop offset=".004" stop-color="#e38ddd"/>
			<stop offset="1" stop-color="#9571f6"/>
		</linearGradient>
		<linearGradient id="g38" x2="1" gradientUnits="userSpaceOnUse" gradientTransform="matrix(2593.807,0,0,269.516,903.049,2567.453)">
			<stop offset="0" stop-color="#40447e"/>
			<stop offset=".996" stop-color="#3c3b6b"/>
		</linearGradient>
		<linearGradient id="g39" x2="1" gradientUnits="userSpaceOnUse" gradientTransform="matrix(1900.466,0,0,179.081,1157.416,2591.222)">
			<stop offset="0" stop-color="#40447e"/>
			<stop offset=".996" stop-color="#3c3b6b"/>
		</linearGradient>
		<linearGradient id="g40" x2="1" gradientUnits="userSpaceOnUse" gradientTransform="matrix(15.06,3523.331,-4200.438,17.954,2890.098,-211.228)">
			<stop offset="0" stop-color="#aa80f9"/>
			<stop offset=".996" stop-color="#6165d7"/>
		</linearGradient>
		<linearGradient id="g41" x2="1" gradientUnits="userSpaceOnUse" gradientTransform="matrix(2.156,504.31,-3979.505,17.01,2669.755,1226.91)">
			<stop offset="0" stop-color="#444b8c"/>
			<stop offset=".996" stop-color="#26264f"/>
		</linearGradient>
		<linearGradient id="g42" x2="1" gradientUnits="userSpaceOnUse" gradientTransform="matrix(15.037,3518.083,-3492.505,14.928,2994.503,-208.289)">
			<stop offset="0" stop-color="#aa80f9"/>
			<stop offset=".996" stop-color="#6165d7"/>
		</linearGradient>
		<linearGradient id="g43" x2="1" gradientUnits="userSpaceOnUse" gradientTransform="matrix(317.056,0,0,405.695,2044.867,768.358)">
			<stop offset="0" stop-color="#444b8c"/>
			<stop offset=".996" stop-color="#26264f"/>
		</linearGradient>
		<linearGradient id="g44" x2="1" gradientUnits="userSpaceOnUse" gradientTransform="matrix(1115.252,0,0,913.802,2089.319,560.004)">
			<stop offset="0" stop-color="#aa80f9"/>
			<stop offset=".996" stop-color="#6165d7"/>
		</linearGradient>
		<linearGradient id="g45" x2="1" gradientUnits="userSpaceOnUse" gradientTransform="matrix(-691.28,0,0,-271.108,2854.087,926.873)">
			<stop offset="0" stop-color="#444b8c"/>
			<stop offset=".996" stop-color="#26264f"/>
		</linearGradient>
		<linearGradient id="g46" x2="1" gradientUnits="userSpaceOnUse" gradientTransform="matrix(23.607,5522.906,-4464.701,19.084,3382.546,-2088.292)">
			<stop offset="0" stop-color="#aa80f9"/>
			<stop offset=".996" stop-color="#6165d7"/>
		</linearGradient>
		<linearGradient id="g47" x2="1" gradientUnits="userSpaceOnUse" gradientTransform="matrix(317.056,0,0,405.695,2969.944,847.91)">
			<stop offset="0" stop-color="#444b8c"/>
			<stop offset=".996" stop-color="#26264f"/>
		</linearGradient>
	</defs>
	<style>
		.s0 { fill: #fae9dc } 
		.s1 { fill: #f4f7fa } 
		.s2 { fill: #739af0 } 
		.s3 { opacity: .7;fill: #ffffff } 
		.s4 { fill: url(#g1) } 
		.s5 { fill: url(#g2) } 
		.s6 { fill: url(#g3) } 
		.s7 { fill: url(#g4) } 
		.s8 { opacity: .3;fill: url(#g5) } 
		.s9 { opacity: .3;fill: url(#g6) } 
		.s10 { fill: url(#g7) } 
		.s11 { opacity: .3;fill: url(#g8) } 
		.s12 { opacity: .3;fill: url(#g9) } 
		.s13 { fill: url(#g10) } 
		.s14 { fill: url(#g11) } 
		.s15 { fill: url(#g12) } 
		.s16 { fill: url(#g13) } 
		.s17 { fill: url(#g14) } 
		.s18 { fill: url(#g15) } 
		.s19 { fill: url(#g16) } 
		.s20 { fill: url(#g17) } 
		.s21 { fill: #ffffff } 
		.s22 { opacity: .5;mix-blend-mode: soft-light;fill: #ffffff } 
		.s23 { opacity: .6;mix-blend-mode: soft-light;fill: #ffffff } 
		.s24 { opacity: .4;mix-blend-mode: soft-light;fill: #ffffff } 
		.s25 { fill: url(#g18) } 
		.s26 { opacity: .5;fill: url(#g19) } 
		.s27 { opacity: .5;fill: url(#g20) } 
		.s28 { opacity: .5;fill: url(#g21) } 
		.s29 { fill: url(#g22) } 
		.s30 { opacity: .5;fill: url(#g23) } 
		.s31 { opacity: .5;fill: url(#g24) } 
		.s32 { opacity: .5;fill: url(#g25) } 
		.s33 { opacity: .5;fill: url(#g26) } 
		.s34 { fill: url(#g27) } 
		.s35 { opacity: .5;fill: url(#g28) } 
		.s36 { opacity: .5;fill: url(#g29) } 
		.s37 { opacity: .5;fill: url(#g30) } 
		.s38 { opacity: .5;fill: url(#g31) } 
		.s39 { opacity: .5;fill: url(#g32) } 
		.s40 { fill: url(#g33) } 
		.s41 { opacity: .5;fill: url(#g34) } 
		.s42 { opacity: .5;fill: url(#g35) } 
		.s43 { opacity: .5;fill: url(#g36) } 
		.s44 { fill: url(#g37) } 
		.s45 { mix-blend-mode: soft-light;fill: #ffffff } 
		.s46 { fill: url(#g38) } 
		.s47 { opacity: .3;mix-blend-mode: multiply;fill: url(#g39) } 
		.s48 { fill: url(#g40) } 
		.s49 { fill: url(#g41) } 
		.s50 { opacity: .3;mix-blend-mode: multiply;fill: url(#g42) } 
		.s51 { fill: url(#g43) } 
		.s52 { fill: url(#g44) } 
		.s53 { fill: url(#g45) } 
		.s54 { fill: #d8dee8 } 
		.s55 { opacity: .3;mix-blend-mode: multiply;fill: url(#g46) } 
		.s56 { fill: url(#g47) } 
		.s57 { fill: #f9795a } 
		.s58 { fill: #f24b46 } 
		.s59 { fill: #ffa9a5 } 
		.s60 { fill: #ffb9b6 } 
		.s61 { fill: #1d2453 } 
		.s62 { fill: #363f78 } 
		.s63 { fill: #6b5eff } 
		.s64 { fill: #7f22ba } 
		.s65 { fill: #9e30ca } 
		.s66 { fill: #efecea } 
		.s67 { fill: #ff9e9a } 
		.s68 { fill: #542bda } 
		.s69 { fill: #fd8857 } 
		.s70 { fill: #ff7d78 } 
		.s71 { fill: #242e6c } 
	</style>
	<g id="Illustration">
		<path id="&lt;Path&gt;" class="s0" d="m3547.4 1107.8c-291.7-1066.5-1650.5-1276.3-2776.9-724-1126.5 552.4-1148.9 2654.1 745.2 2716.6 1894.2 62.5 2224-1289.8 2031.7-1992.6z"/>
		<g id="&lt;Group&gt;">
			<path id="&lt;Path&gt;" class="s1" d="m1093.1 169.9c-95.8 137.1 16.5 359.3-125.6 462.4-138.3 100.4-308.2-64.1-438.6 22.3-193.3 128.1-158 714.5 124.7 1078.8 85 109.6 156.1 152.2 187.5 276.1 67.6 266.1-169.9 424.4-124.7 556 101.8 296.3 1666.4 544.9 2294.3-345.6 293.2-415.9 337-1016.5 75.1-1472.6-473.4-824.2-1777.9-885-1992.7-577.4z"/>
			<g id="&lt;Group&gt;">
				<path id="&lt;Compound Path&gt;" fill-rule="evenodd" class="s2" d="m1326.5 1595.3v77.7c0 12.4-10 22.4-22.5 22.3l-45.1-0.2c-3.6 20.7-8.9 40.7-15.8 60l38.8 22.6c10.8 6.2 14.5 20 8.3 30.7l-38.9 67.3c-6.3 10.7-20.1 14.4-30.9 8.2l-38.8-22.4c-13.4 16-28.2 30.8-44.3 44.2l22.4 38.7c6.3 10.8 2.6 24.6-8.3 30.8l-67.9 39.1c-10.9 6.3-24.8 2.6-31.1-8.2l-22.3-38.4c-19.7 7.1-40.2 12.5-61.3 16.2v44.6c0 12.6-10.2 22.7-22.8 22.8l-79.2 0.2c-12.7 0-23-10.1-23-22.7v-44.7c-21.3-3.6-42-9-61.8-16.2l-22.7 38.8c-6.3 10.9-20.5 14.7-31.5 8.4l-69.3-39.3c-11.1-6.3-14.9-20.3-8.5-31.2l22.9-39.1c-16.4-13.6-31.6-28.6-45.3-44.8l-40 22.6c-11.1 6.3-25.3 2.5-31.8-8.4l-40.3-68.6c-6.4-11-2.6-25 8.6-31.3l40.2-22.6c-7.2-19.7-12.7-40.1-16.4-61.2l-46.8-0.3c-12.9 0-23.3-10.3-23.3-23v-79.2c0-12.7 10.4-22.9 23.3-22.8l47.2 0.4c3.8-20.9 9.3-41.1 16.6-60.5l-40.8-23.6c-11.2-6.5-15-20.5-8.6-31.4l40.3-68c6.5-10.9 20.7-14.5 31.8-8l41.2 23.9c13.7-15.8 28.7-30.4 44.9-43.5l-23.7-40.9c-6.4-11-2.6-24.9 8.5-31l69.3-38.4c11-6.1 25.2-2.1 31.5 8.9l23.7 40.8c19.5-6.7 39.9-11.7 60.8-15v-46.8c0-12.6 10.3-22.6 23-22.4l79.2 1.4c12.6 0.2 22.8 10.5 22.8 23v46.7c20.8 3.9 41 9.5 60.3 16.7l23.3-39.8c6.3-10.7 20.2-14.2 31.1-7.8l67.9 40.1c10.9 6.4 14.6 20.2 8.3 30.9l-23.2 39.7c15.9 13.5 30.6 28.3 43.9 44.2l40-22.6c10.8-6 24.6-2.2 30.9 8.7l38.9 67.8c6.2 10.8 2.5 24.5-8.3 30.6l-39.4 22.4c7 19.2 12.4 39.3 16 59.9l45.5 0.4c12.5 0.1 22.5 10.2 22.5 22.6zm-653 35.4c0 127.3 104.6 230.7 232.9 230.9 127.5 0.2 230.3-101.8 230.3-227.7 0-126-102.8-229.4-230.3-230.9-128.3-1.6-232.9 100.3-232.9 227.7z"/>
				<g id="&lt;Group&gt;">
					<path id="&lt;Compound Path&gt;" fill-rule="evenodd" class="s2" d="m1823.6 696.4v68.3c0 11-9.1 19.6-20.4 19.4l-40.8-1c-3.3 18.2-8.1 35.8-14.4 52.7l35.2 20.5c9.8 5.7 13.1 17.9 7.5 27.2l-35.3 58.8c-5.6 9.4-18.1 12.4-27.9 6.8l-35.2-20.3c-12.2 13.9-25.6 26.7-40.2 38.4l20.4 34.4c5.6 9.6 2.3 21.7-7.6 27.1l-61.7 33.7c-9.9 5.4-22.6 2-28.3-7.6l-20.3-34.3c-17.9 6.1-36.6 10.6-55.9 13.6v39.4c0 11.1-9.3 20-20.8 19.9l-72.4-0.8c-11.6-0.1-21-9.2-21-20.3v-39.7c-19.5-3.5-38.4-8.5-56.6-15.1l-20.8 34.1c-5.9 9.6-18.8 12.7-29 7l-63.6-35.8c-10.2-5.7-13.7-18.2-7.8-27.8l21.1-34.4c-15.1-12.3-29.1-25.9-41.8-40.5l-36.7 19.5c-10.3 5.5-23.4 1.9-29.3-7.9l-37.2-61.6c-6-9.9-2.4-22.3 7.9-27.7l37.1-19.5c-6.7-17.6-11.7-35.9-15.1-54.7l-43.2-1c-11.9-0.3-21.6-9.6-21.6-20.9v-70.6c0-11.2 9.7-20.1 21.6-19.8l43.5 1.2c3.5-18.5 8.6-36.5 15.3-53.6l-37.6-21.7c-10.3-6-13.9-18.5-7.9-28.1l37.2-59.8c5.9-9.5 19-12.4 29.3-6.4l37.9 22c12.5-13.7 26.4-26.4 41.3-37.8l-21.8-36.7c-5.9-9.9-2.4-22.2 7.8-27.4l63.6-32.6c10.2-5.2 23.1-1.4 29 8.5l21.7 36.7c17.9-5.5 36.5-9.6 55.7-12v-41.5c0-11.1 9.4-19.8 21-19.3l72.4 2.9c11.5 0.4 20.8 9.8 20.8 20.9v41.3c19 3.9 37.3 9.2 55 16l21.2-34.7c5.7-9.3 18.4-12.1 28.3-6.2l61.7 36.8c9.9 5.9 13.2 18.2 7.6 27.5l-21.1 34.6c14.4 12.2 27.7 25.5 39.8 39.8l36.3-19.1c9.8-5.2 22.3-1.5 27.9 8.2l35.3 60.5c5.6 9.7 2.3 21.7-7.5 26.9l-35.7 19c6.4 17.1 11.2 34.8 14.5 53.1l41.2 1.1c11.3 0.3 20.4 9.4 20.4 20.4zm-595.3 20.1c0 113.1 96 206.4 213.4 208.4 116.3 2 209.9-86.6 209.9-197.8 0-111.2-93.6-204.5-209.9-208.3-117.4-3.9-213.4 84.6-213.4 197.7z"/>
					<g id="&lt;Group&gt;">
						<path id="&lt;Compound Path&gt;" fill-rule="evenodd" class="s3" d="m2067 736.7c0 331.4-276.1 599.8-625.3 599.6-359.2-0.3-658-283.2-658-632 0-348.7 298.8-616.6 658-598.7 349.2 17.4 625.3 299.7 625.3 631.1zm-146.7-3.7c0-253.7-212-468.6-478.6-480.3-272.3-11.9-497.5 192-497.5 455.7 0 263.7 225.2 478.9 497.5 480.7 266.6 1.8 478.6-202.5 478.6-456.1z"/>
						<g id="&lt;Group&gt;">
							<path id="&lt;Path&gt;" class="s4" d="m1005.4 937.1l-138.3 73c53.9 92.3 130.9 170.4 223.2 227l78.7-128.7c-67.8-43.5-124.2-102.3-163.6-171.3z"/>
							<path id="&lt;Path&gt;" class="s5" d="m1835.3 467l128.5-67.7c-52.7-79.2-123.4-146.9-206.6-197.3l-75 122.8c61 36.5 113.2 85.2 153.1 142.2z"/>
							<path id="&lt;Path&gt;" class="s6" d="m1035.4 438.3c42.3-55.7 97.5-101.4 161.2-133.6l-78.5-132.4c-88.2 44-164 107.7-221.1 185.6z"/>
							<path id="&lt;Path&gt;" class="s7" d="m944.2 708.4c0-5.7 0.2-11.2 0.4-16.8l-160.6-4.2q-0.3 8.5-0.3 16.9c0 100.3 25 195.6 69.3 280.3l138.8-73.1c-30.5-61.9-47.6-130.8-47.6-203.1z"/>
							<path id="&lt;Path&gt;" class="s8" d="m1920.3 733c0 69.5-15.9 135.1-44.3 193.8l128 74.4c40.3-79.6 63-169.2 63-264.5q0-8.1-0.3-16.1l-146.8-3.8c0.2 5.4 0.4 10.8 0.4 16.2z"/>
							<path id="&lt;Path&gt;" class="s9" d="m1863.4 951.1c-36.9 65.7-90.2 121.4-154.8 162.5l75 126.7c86.7-53.9 158.1-127.9 207.6-215.1z"/>
							<path id="&lt;Path&gt;" class="s10" d="m1850.9 490.5c36.7 59.5 60.4 127.1 67.2 198.9l147.3 4c-7.1-97.6-37.8-189.6-86.6-270.5z"/>
							<path id="&lt;Path&gt;" class="s11" d="m1427.2 1188.7c-84.3-3-163.7-26.3-233-65.2l-78.4 128.4c92.7 51.5 198.9 81.7 311.4 84.2z"/>
							<path id="&lt;Path&gt;" class="s12" d="m1684.4 1127.9c-67 37.2-144.6 59.2-228.2 61v147.2c111.3-2.3 214.5-31.8 303.2-81.6z"/>
							<path id="&lt;Path&gt;" class="s13" d="m1222.7 292.5c62.2-26.9 131.5-41.2 204.5-40v-147.5c-101.1-2.8-197.2 17-282.9 55z"/>
							<path id="&lt;Path&gt;" class="s14" d="m946.5 663.2c7.4-74.2 33-142.8 72.3-201.8l-138.1-80.1c-53.6 80.9-87.4 175.4-95.2 277.5z"/>
							<path id="&lt;Path&gt;" class="s15" d="m1456.2 253.7c72.4 5.2 140.4 25.3 200.8 57l75.3-123.1c-82.4-45.2-176-74-276.1-81.1z"/>
						</g>
					</g>
				</g>
				<path id="&lt;Compound Path&gt;" fill-rule="evenodd" class="s16" d="m783.7 967.9v33.1c0 5.2-4.4 9.6-9.9 9.6l-19.9 0.2c-1.6 8.9-4 17.4-7 25.7l17.1 9.3c4.8 2.6 6.4 8.5 3.7 13.1l-17.2 28.9c-2.8 4.6-8.9 6.2-13.6 3.7l-17.1-9.3c-6 6.9-12.5 13.2-19.6 19.1l9.9 16.3c2.8 4.5 1.1 10.4-3.6 13.1l-30 17.1c-4.7 2.7-10.9 1.2-13.6-3.3l-9.9-16.2c-8.6 3.1-17.6 5.6-26.9 7.3v18.9c0 5.3-4.5 9.7-10.1 9.8l-34.8 0.6c-5.6 0.1-10.1-4.2-10.1-9.5v-19c-9.3-1.4-18.4-3.6-27.1-6.5l-9.9 16.6c-2.8 4.7-9 6.3-13.9 3.8l-30.3-16.3c-4.9-2.6-6.6-8.5-3.8-13.2l10.1-16.7c-7.2-5.7-13.9-11.9-19.9-18.7l-17.5 9.8c-4.8 2.8-11.1 1.3-13.9-3.3l-17.6-28.9c-2.8-4.6-1.2-10.5 3.7-13.3l17.6-9.8c-3.1-8.3-5.5-16.9-7.1-25.8l-20.5 0.2c-5.6 0-10.2-4.3-10.2-9.6v-33.6c0-5.4 4.6-9.8 10.2-9.8l20.6-0.2c1.7-8.9 4.1-17.5 7.3-25.8l-17.9-9.7c-4.9-2.6-6.5-8.5-3.7-13.2l17.6-29.1c2.8-4.7 9.1-6.3 13.9-3.7l18 9.9c6-6.8 12.6-13.1 19.7-18.8l-10.4-17.2c-2.8-4.6-1.1-10.5 3.8-13.2l30.3-16.8c4.9-2.7 11.1-1.1 13.9 3.5l10.3 17.1c8.6-3 17.5-5.3 26.7-6.9v-19.8c0-5.4 4.5-9.7 10.1-9.7l34.8-0.1c5.6 0 10.1 4.3 10.1 9.6v19.9c9.1 1.5 18 3.7 26.5 6.6l10.3-17.1c2.7-4.6 8.9-6.2 13.6-3.6l30 16.5c4.7 2.7 6.4 8.5 3.6 13.1l-10.2 17.1c7 5.6 13.5 11.8 19.3 18.4l17.7-9.8c4.7-2.7 10.8-1.2 13.6 3.4l17.2 28.6c2.7 4.5 1.1 10.4-3.7 13.1l-17.4 9.8c3.1 8.1 5.5 16.6 7.1 25.4l20.1-0.2c5.5-0.1 9.9 4.2 9.9 9.5zm-287.2 19.6c0 54 45.8 97.2 102.1 96.5 56.1-0.8 101.4-44.8 101.4-98.4 0-53.5-45.3-96.7-101.4-96.4-56.3 0.3-102.1 44.3-102.1 98.3z"/>
			</g>
		</g>
		<g id="laptop">
			<path id="&lt;Path&gt;" class="s17" d="m3496.9 2682.8l-2593.9-22.8v67.4c0 18.3 11.4 33.9 26.7 36.7l733.4 132.8c8.7 1.6 17.6 2 26.4 1.2l1779.2-151.4c15.9-1.4 28.2-17 28.2-35.8z"/>
			<g id="&lt;Group&gt;">
				<path id="&lt;Path&gt;" class="s18" d="m2555.6 2573.4l-1625.7 123.4c-29.1 2.2-52.8-21.2-52.8-52.4v-1248.3c0-31.2 23.7-56.4 52.8-56.4h1625.7c23.9 0 43.3 22.8 43.3 51v1128.4c0 28.2-19.4 52.5-43.3 54.3z"/>
				<path id="&lt;Path&gt;" class="s19" d="m2642.4 2665.3l-1746.8 132.5c-31.2 2.4-56.6-22.8-56.6-56.3v-1341.2c0-33.5 25.4-60.6 56.6-60.6h1746.8c25.7 0 46.5 24.5 46.5 54.8v1212.4c0 30.3-20.8 56.4-46.5 58.4z"/>
				<path id="&lt;Path&gt;" class="s20" d="m2530.9 2493.9l-1514.2 107.1c-23.7 1.7-42.9-17.5-42.9-43v-1092.9c0-25.4 19.2-46.1 42.9-46.2l1514.2-6.8c19.7-0.1 35.7 18.7 35.7 41.8v995.5c0 23.1-16 43.1-35.7 44.5z"/>
				<path id="&lt;Path&gt;" class="s21" d="m1826.1 1373.8c0 11.6-8.4 21-18.7 21.1-10.4 0-18.8-9.4-18.8-21 0-11.6 8.4-21.1 18.8-21.1 10.3 0 18.7 9.4 18.7 21z"/>
				<path id="&lt;Path&gt;" class="s22" d="m2126.8 2195.2c-111.7-64.6-199.6 17.3-284.4-63.5-51.4-48.9-26.2-85.4-89.5-158.6-70-81-115.6-53.8-186.1-126.7-89-92.2-44.5-164-121.2-230.2-93-80.3-193.4-5.9-281.9-83-38.2-33.2-59.2-81.5-70.1-132.8h-86.7c-15.2 0-27.5 13.2-27.5 29.5v1153.9c0 16.3 12.3 28.6 27.5 27.4l1477.5-112.6c7.2-0.6 13.6-5.1 17.8-11.7-108.2-4.3-174.6-43.2-217.1-83.5-83.1-78.7-68.7-156.4-158.3-208.2z"/>
			</g>
			<g id="&lt;Group&gt;" style="mix-blend-mode: screen">
				<path id="&lt;Path&gt;" class="s23" d="m1470.3 1521.9l-488.9-12.5v-40.5l488.9 13.7z"/>
				<path id="&lt;Path&gt;" class="s24" d="m1700.5 1516.6l-112.9-3v-27.7l112.9 3.2z"/>
				<path id="&lt;Path&gt;" class="s24" d="m1700.5 1554.8l-112.9-2.7v-27.7l112.9 2.9z"/>
				<path id="&lt;Path&gt;" class="s25" d="m2263.3 1568.2l-438.1-10.4v-27.3l438.1 11.2z"/>
				<path id="&lt;Path&gt;" class="s26" d="m2335.2 1606.6l-433.8-9.3v-27.1l433.8 10z"/>
				<path id="&lt;Path&gt;" class="s27" d="m2335.2 1643.2l-433.8-8.2v-27.1l433.8 8.9z"/>
				<path id="&lt;Path&gt;" class="s23" d="m2335.2 1679.8l-433.8-7.1v-27.1l433.8 7.8z"/>
				<path id="&lt;Path&gt;" class="s24" d="m1700.5 1593l-112.9-2.4v-27.7l112.9 2.6z"/>
				<path id="&lt;Path&gt;" class="s24" d="m1700.5 1631.3l-112.9-2.2v-27.7l112.9 2.3z"/>
				<path id="&lt;Path&gt;" class="s24" d="m1700.5 1669.5l-112.9-1.9v-27.7l112.9 2.1z"/>
				<path id="&lt;Path&gt;" class="s24" d="m1700.5 1707.7l-112.9-1.6v-27.7l112.9 1.8z"/>
				<path id="&lt;Path&gt;" class="s23" d="m2003.2 1711.9l-278-3.9v-27.4l278 4.3z"/>
				<path id="&lt;Path&gt;" class="s24" d="m1700.5 1745.9l-112.9-1.3v-27.7l112.9 1.5z"/>
				<path id="&lt;Path&gt;" class="s24" d="m1700.5 1784.1l-112.9-1v-27.7l112.9 1.2z"/>
				<path id="&lt;Path&gt;" class="s24" d="m1700.5 1822.3l-112.9-0.7v-27.7l112.9 0.9z"/>
				<path id="&lt;Path&gt;" class="s28" d="m2133.4 1750.8l-308.2-3.5v-27.3l308.2 4z"/>
				<path id="&lt;Path&gt;" class="s23" d="m2293.5 1789.3l-392.1-3.4v-27.2l392.1 4.2z"/>
				<path id="&lt;Path&gt;" class="s29" d="m2293.5 1826l-392.1-2.4v-27.2l392.1 3.2z"/>
				<path id="&lt;Path&gt;" class="s24" d="m1700.5 1860.6l-112.9-0.5v-27.7l112.9 0.7z"/>
				<path id="&lt;Path&gt;" class="s24" d="m1700.5 1898.8l-112.9-0.2v-27.7l112.9 0.4z"/>
				<path id="&lt;Path&gt;" class="s24" d="m1700.5 1937l-112.9 0.1v-27.7l112.9 0.1z"/>
				<path id="&lt;Path&gt;" class="s24" d="m1700.5 1975.2l-112.9 0.4v-27.7l112.9-0.2z"/>
				<path id="&lt;Path&gt;" class="s24" d="m1700.5 2013.4l-112.9 0.7v-27.7l112.9-0.5z"/>
				<path id="&lt;Path&gt;" class="s24" d="m1700.5 2051.6l-112.9 1v-27.7l112.9-0.8z"/>
				<path id="&lt;Path&gt;" class="s24" d="m1700.5 2089.9l-112.9 1.2v-27.7l112.9-1z"/>
				<path id="&lt;Path&gt;" class="s24" d="m1700.5 2128.1l-112.9 1.5v-27.7l112.9-1.3z"/>
				<path id="&lt;Path&gt;" class="s24" d="m1700.5 2166.3l-112.9 1.8v-27.7l112.9-1.6z"/>
				<path id="&lt;Path&gt;" class="s24" d="m1700.5 2204.5l-112.9 2.2v-27.8l112.9-1.9z"/>
				<path id="&lt;Path&gt;" class="s24" d="m1700.5 2242.7l-112.9 2.5v-27.8l112.9-2.2z"/>
				<path id="&lt;Path&gt;" class="s24" d="m1700.5 2280.9l-112.9 2.8v-27.8l112.9-2.5z"/>
				<path id="&lt;Path&gt;" class="s24" d="m1700.5 2319.2l-112.9 3v-27.8l112.9-2.7z"/>
				<path id="&lt;Path&gt;" class="s24" d="m1700.5 2357.4l-112.9 3.3v-27.8l112.9-3z"/>
				<path id="&lt;Path&gt;" class="s24" d="m1700.5 2395.6l-112.9 3.6v-27.8l112.9-3.3z"/>
				<path id="&lt;Path&gt;" class="s24" d="m1700.5 2433.8l-112.9 3.9v-27.8l112.9-3.6z"/>
				<path id="&lt;Path&gt;" class="s24" d="m1700.5 2472l-112.9 4.2v-27.8l112.9-3.9z"/>
				<path id="&lt;Path&gt;" class="s24" d="m1700.5 2510.2l-112.9 4.5v-27.8l112.9-4.2z"/>
				<path id="&lt;Path&gt;" class="s30" d="m2032.4 1525.3l-308-8.1v-27.4l308 8.6z"/>
				<path id="&lt;Path&gt;" class="s23" d="m2263.3 2304.2l-438.1 11.7v-27.3l438.1-10.8z"/>
				<path id="&lt;Path&gt;" class="s31" d="m2335.2 2339l-433.8 12.6v-27.2l433.8-11.8z"/>
				<path id="&lt;Path&gt;" class="s32" d="m2335.2 2375.6l-433.8 13.7v-27.2l433.8-12.9z"/>
				<path id="&lt;Path&gt;" class="s33" d="m2522.1 2405.8l-422.5 14.4v-26.8l422.5-13.6z"/>
				<path id="&lt;Path&gt;" class="s34" d="m2522.1 2442l-422.5 15.4v-26.7l422.5-14.7z"/>
				<path id="&lt;Path&gt;" class="s23" d="m2522.1 2478.1l-422.5 16.6v-26.8l422.5-15.8z"/>
				<path id="&lt;Path&gt;" class="s35" d="m2032.4 2273l-308 7.4v-27.5l308-6.8z"/>
				<path id="&lt;Path&gt;" class="s36" d="m2263.3 1899.4l-438.1-0.5v-27.3l438.1 1.3z"/>
				<path id="&lt;Path&gt;" class="s23" d="m2335.2 1936.1l-433.8 0.6v-27.1l433.8 0.2z"/>
				<path id="&lt;Path&gt;" class="s37" d="m2335.2 1972.8l-433.8 1.6v-27.1l433.8-0.9z"/>
				<path id="&lt;Path&gt;" class="s38" d="m2335.2 2009.4l-433.8 2.7v-27.1l433.8-2z"/>
				<path id="&lt;Path&gt;" class="s39" d="m2003.2 2049l-278 2.4v-27.4l278-2z"/>
				<path id="&lt;Path&gt;" class="s23" d="m2133.4 2084.9l-308.2 3.5v-27.2l308.2-3z"/>
				<path id="&lt;Path&gt;" class="s40" d="m2293.5 2119.8l-392.1 5.5v-27.2l392.1-4.7z"/>
				<path id="&lt;Path&gt;" class="s41" d="m2293.5 2156.5l-392.1 6.5v-27.2l392.1-5.7z"/>
				<path id="&lt;Path&gt;" class="s42" d="m2380.5 2191.6l-387.4 7.4v-27l387.4-6.6z"/>
				<path id="&lt;Path&gt;" class="s43" d="m2380.5 2228.1l-387.4 8.3v-26.9l387.4-7.6z"/>
				<path id="&lt;Path&gt;" class="s44" d="m2032.4 1861.8l-308-1.2v-27.4l308 1.7z"/>
				<path id="&lt;Path&gt;" class="s45" d="m1470.3 1583.4l-279.8-6.1v-40l279.8 6.7z"/>
				<path id="&lt;Path&gt;" class="s23" d="m1118.1 1575.7l52.7 1.2v-40.1l-52.7-1.3z"/>
				<path id="&lt;Path&gt;" class="s23" d="m1470.3 1639.9l-279.8-5v-40.1l279.8 5.8z"/>
				<path id="&lt;Path&gt;" class="s23" d="m1118.1 1633.6l52.7 0.9v-40.1l-52.7-1.1z"/>
				<path id="&lt;Path&gt;" class="s23" d="m1470.3 1696.4l-279.8-4v-40l279.8 4.7z"/>
				<path id="&lt;Path&gt;" class="s23" d="m1118.1 1691.4l52.7 0.7v-40.1l-52.7-0.9z"/>
				<path id="&lt;Path&gt;" class="s45" d="m1470.3 2097.5l-488.9 5.8v-40.6l488.9-4.5z"/>
				<path id="&lt;Path&gt;" class="s23" d="m1470.3 2159l-279.8 4.4v-40.1l279.8-3.7z"/>
				<path id="&lt;Path&gt;" class="s23" d="m1118.1 2164.5l52.7-0.8v-40.1l-52.7 0.7z"/>
				<path id="&lt;Path&gt;" class="s23" d="m1470.3 2215.5l-279.8 5.4v-40l279.8-4.7z"/>
				<path id="&lt;Path&gt;" class="s23" d="m1118.1 2222.3l52.7-1v-40.1l-52.7 0.9z"/>
				<path id="&lt;Path&gt;" class="s23" d="m1470.3 2272l-279.8 6.4v-40l279.8-5.7z"/>
				<path id="&lt;Path&gt;" class="s23" d="m1118.1 2280.1l52.7-1.2v-40.1l-52.7 1.1z"/>
				<path id="&lt;Path&gt;" class="s45" d="m1470.3 1753.3l-488.9-5.2v-40.6l488.9 6.5z"/>
				<path id="&lt;Path&gt;" class="s23" d="m1470.3 1814.7l-279.8-1.8v-40.1l279.8 2.6z"/>
				<path id="&lt;Path&gt;" class="s23" d="m1118.1 1812.4l52.7 0.3v-40l-52.7-0.5z"/>
				<path id="&lt;Path&gt;" class="s23" d="m1470.3 1871.2l-279.8-0.8v-40l279.8 1.5z"/>
				<path id="&lt;Path&gt;" class="s23" d="m1118.1 1870.2l52.7 0.1v-40l-52.7-0.3z"/>
				<path id="&lt;Path&gt;" class="s23" d="m1470.3 1985l-279.8 1.2v-40l279.8-0.5z"/>
				<path id="&lt;Path&gt;" class="s23" d="m1118.1 1986.5l52.7-0.2v-40.1l-52.7 0.1z"/>
				<path id="&lt;Path&gt;" class="s23" d="m1470.3 2041.5l-279.8 2.3v-40.1l279.8-1.5z"/>
				<path id="&lt;Path&gt;" class="s23" d="m1118.1 2044.3l52.7-0.4v-40.1l-52.7 0.3z"/>
				<path id="&lt;Path&gt;" class="s23" d="m1470.3 1927.7l-279.8 0.2v-40l279.8 0.5z"/>
				<path id="&lt;Path&gt;" class="s23" d="m1118.1 1928h52.7v-40.1l-52.7-0.1z"/>
				<path id="&lt;Path&gt;" class="s45" d="m1470.3 2328.5l-488.9 13v-40.5l488.9-11.8z"/>
				<path id="&lt;Path&gt;" class="s23" d="m1470.3 2389.9l-279.8 8.6v-40l279.8-7.9z"/>
				<path id="&lt;Path&gt;" class="s23" d="m1118.1 2400.7l52.7-1.6v-40.1l-52.7 1.5z"/>
				<path id="&lt;Path&gt;" class="s23" d="m1470.3 2446.4l-279.8 9.6v-40l279.8-8.9z"/>
				<path id="&lt;Path&gt;" class="s23" d="m1118.1 2458.5l52.7-1.8v-40.1l-52.7 1.7z"/>
				<path id="&lt;Path&gt;" class="s23" d="m1470.3 2502.9l-279.8 10.7v-40.1l279.8-9.9z"/>
				<path id="&lt;Path&gt;" class="s23" d="m1118.1 2516.3l52.7-2v-40.1l-52.7 1.9z"/>
				<path id="&lt;Path&gt;" class="s23" d="m1529.7 2500.9l-10.8 0.4v-1017.3l10.8 0.3z"/>
			</g>
			<path id="&lt;Path&gt;" class="s46" d="m2646.3 2567.8l-1743.3 129.9 760.1 137.7c8.7 1.5 17.6 2 26.4 1.2l1807.4-153.8-822.9-114.1c-9.2-1.3-18.5-1.6-27.7-0.9z"/>
			<path id="&lt;Path&gt;" class="s47" d="m1157.4 2701l1451.3-109.8 449.2 61.8-1438.8 117.3z"/>
		</g>
		<g id="&lt;Group&gt;">
			<g id="&lt;Group&gt;">
				<path id="&lt;Path&gt;" class="s48" d="m2935.9 1845.7c-97.3 192-229.6 212.4-268.7 214.4v0.1c0 0 1.2 0.1-1.7 0-2.9 0.1-1.8 0-1.8 0v-0.1c-35.5-1.6-127.6-15.8-214.9-128.9-18.4-23.8-36.7-52.1-53.7-85.5-113-223.1-30.8-338-30.8-338l299.4-0.8h1.8 1.7l127.6 0.4 172.4 0.4c0 0 81.8 114.9-31.3 338z"/>
				<path id="&lt;Path&gt;" class="s49" d="m2665.9 1550.8c-168.1 0-304-17.2-304-38.5 0-21.3 135.9-38.5 304-38.5 168.2 0 304 17.2 304 38.5 0 21.3-135.8 38.5-304 38.5z"/>
				<path id="&lt;Path&gt;" class="s50" d="m2935.9 1845.7c-97.3 192-229.6 212.4-268.7 214.4v0.1c0 0 1.2 0.1-1.7 0-2.9 0.1-1.8 0-1.8 0v-0.1c-35.5-1.6-127.6-15.8-214.9-128.9 0.5-104 242-174.7 317.4-223 95.4-61 18.6-195.9 18.6-195.9 3.7-1.7 7.3-3.4 10.9-5l171.9 0.4c0 0 81.4 114.9-31.7 338z"/>
			</g>
			<path id="&lt;Path&gt;" class="s51" d="m2203.4 1174.1c-87.7 0-158.5-90.7-158.5-202.9 0-112.2 70.8-202.8 158.5-202.8 87.7 0 158.5 90.6 158.5 202.8 0 112.2-70.8 202.9-158.5 202.9z"/>
			<path id="&lt;Path&gt;" class="s52" d="m3204.6 1016.9c0 252.4-249.7 456.9-557.7 456.9-47.3 0-93.2-4.8-137-13.9-241.7-50.1-420.6-229.4-420.6-443 0-252.3 249.7-456.9 557.6-456.9 86.6 0 168.5 16.1 241.6 45 187 73.7 316.1 230.5 316.1 411.9z"/>
			<path id="&lt;Path&gt;" class="s1" d="m2274.6 1225.5l429.9 37.5c95.1 8.3 177.1-66.1 180.4-167.1l3.5-107.9c1.6-46.3-34-85-78.7-86.2l-612.9-15.8c-35.6-0.9-64.1 31.4-64.1 72.1v94.7c0 88.8 62.6 165.7 141.9 172.7z"/>
			<path id="&lt;Path&gt;" class="s53" d="m2264.3 1163.8l460 33.9c67.9 5 126-48.7 128.3-120.5l1.4-47.6c1.5-46-33.6-84.6-77.8-85.9l-548.5-16.8c-35.9-1.1-64.8 31.2-64.8 72l-0.1 42.3c-0.1 63.7 44.9 118.4 101.5 122.6z"/>
			<path id="&lt;Path&gt;" class="s54" d="m2534 1122.6c-4.4-7.1-7-15-6.8-23.3 0.4-26.9 27.4-47.5 60.6-45.8 33.5 1.7 60.5 25.4 59.9 52.9-0.2 8.5-3.2 16.2-8 22.9z"/>
			<path id="&lt;Path&gt;" class="s54" d="m2250.9 1104.8c-4-6.8-6.5-14.3-6.4-22.2 0.1-25.6 24.2-45.2 54.2-43.7 30.3 1.5 54.9 24 54.6 50.1-0.1 8.1-2.7 15.4-6.9 21.8z"/>
			<path id="&lt;Path&gt;" class="s55" d="m3204.6 1016.9c0 252.4-249.7 456.9-557.7 456.9-47.3 0-93.2-4.8-137-13.9-43.4-136.9 201.7-287 342.7-382.7 172.6-117.2 35.9-472.2 35.9-472.2 187 73.7 316.1 230.5 316.1 411.9z"/>
			<path id="&lt;Path&gt;" class="s56" d="m3128.5 1253.6c-87.7 0-158.6-90.7-158.6-202.8 0-112.2 70.9-202.9 158.6-202.9 87.6 0 158.5 90.7 158.5 202.9 0 112.1-70.9 202.8-158.5 202.8z"/>
		</g>
		<g id="sit women">
			<path id="&lt;Path&gt;" class="s57" d="m2782.6 2937c13 54.5 109.2 86.6 214.4 105.5h392.6c94.7-52 94.5-113.9 102.1-285 15.7-353.3-150.1-523.8-224-495.7-3.1 1.2-6.2 2.5-9.4 3.9-21.5 9.7-45.6 26.8-69 67.5 0 0-73.5 137.3-133.9 219.2-19.5 26.4-37.6 47-51.5 55.5q-0.2 0.1-0.5 0.3-1.1 0.6-2.2 1.2c-32 16.4-77.2 50.9-118.4 94.3q0 0 0 0c-64 67.4-118.5 156.4-100.2 233.3z"/>
			<path id="&lt;Path&gt;" class="s58" d="m2882.8 2703.7c55 19 338.4 110.7 405 13.5 48.3-70.4 18.3-250.8-8.4-367.5-10.9-47.8-65.5-58.7-89.4-17.7q-0.3 0.6-0.7 1.2c0 0-73.5 137.3-133.9 219.2-17.5 25.9-34.8 45.8-51.5 55.5q-0.2 0.1-0.5 0.3-1.1 0.6-2.2 1.2c-32 16.4-77.2 50.9-118.4 94.3z"/>
			<g id="&lt;Group&gt;">
				<path id="&lt;Path&gt;" class="s59" d="m3093.5 2258.1c0 0-19.6 32.5-30.8 101-9.8 59.9-18.4 82.1-32.6 94.4-14.1 12.3-93 48.6-93 48.6l5.9 15.5c0 0 115.6-17.7 128.6-39.3 13-21.7 62.5-149.7 58.7-179.2-3.9-29.5-36.8-41-36.8-41z"/>
				<g id="&lt;Group&gt;">
					<path id="&lt;Path&gt;" class="s60" d="m2810.3 2973.3c1.1 12.6-14.6 15.7-32.8 16.7-18.2 1-12.7 5.2-37.6 10.3-25 5-35-2.6-36.8-6.4-1.6-3.4 10-8.6 22.4-14.5q2.3-1.1 4.6-2.3c13.9-6.8 21.7-20.8 32.6-33.8 10.2-12.2 20-51.5 20-51.5l33.9-8.1c0 0-9.6 35.3-12.9 50.4-1.9 8.9 1 18.8 3.5 26.4 1.4 4.1 2.8 8.3 3.1 12.8z"/>
					<path id="&lt;Path&gt;" class="s61" d="m2777.5 2990c-18.2 1-12.7 5.2-37.6 10.3-25 5-35-2.6-36.8-6.4-1.6-3.4 10-8.6 22.4-14.5l0.2 0.2c0 0 17.5 6.7 37.7 0.5 16.5-5 32.5-16 43.8-19.6 1.4 4.1 2.8 8.3 3.1 12.8 1.1 12.6-14.6 15.7-32.8 16.7z"/>
				</g>
				<path id="&lt;Path&gt;" class="s61" d="m3147.6 2523c0 0-225.1-19-267.4 11-42.4 30-110.4 379.2-110.4 379.2 0 0 4.2 3.7 13.6 4.9 8.7 1 27.9-4.7 27.9-4.7 0 0 97.7-156.2 104.5-195.6 6.9-39.4 5.2-74.5 20.9-75.4 15.7-1 210.9 26.6 240.5-31.7 29.5-58.4 5.1-116.1 5.1-116.1z"/>
				<g id="&lt;Group&gt;">
					<path id="&lt;Path&gt;" class="s60" d="m2896.4 3013.8c1.1 12.6-14.6 15.7-32.8 16.7-18.2 1-12.7 5.2-37.6 10.3-24.9 5-34.9-2.6-36.7-6.4-1.6-3.3 9.9-8.6 22.3-14.5q2.3-1.1 4.7-2.2c13.9-6.9 21.7-20.9 32.5-33.8 10.3-12.3 20-51.6 20-51.6l33.9-8.1c0 0-9.5 35.4-12.8 50.5-2 8.8 0.9 18.8 3.4 26.3 1.4 4.1 2.8 8.3 3.1 12.8z"/>
					<path id="&lt;Path&gt;" class="s61" d="m2863.6 3030.5c-18.2 1-12.7 5.2-37.6 10.3-24.9 5-34.9-2.6-36.7-6.4-1.6-3.3 9.9-8.6 22.3-14.5l0.2 0.2c0 0 17.5 6.7 37.7 0.6 16.5-5.1 32.5-16.1 43.8-19.7 1.4 4.1 2.8 8.3 3.1 12.8 1.1 12.6-14.6 15.7-32.8 16.7z"/>
				</g>
				<path id="&lt;Path&gt;" class="s62" d="m3191.7 2538.7c0 0-199.9 10.6-241.2 42.4-41.3 31.8-97.1 383.7-97.1 383.7 0 0 4.3 3.5 13.7 4.3 8.7 0.6 27.7-5.9 27.7-5.9 0 0 92.2-160.4 97.7-200 5.5-39.7 2.6-74.7 18.2-76.3 15.6-1.6 211.7 17.4 239.2-42.2 27.5-59.6-58.2-106-58.2-106z"/>
				<path id="&lt;Compound Path&gt;" class="s61" d="m3123.2 2240.1c-3.8-7.6-8.5-21.3-11.8-46.2 0.4 2.5 6.1 33.7 18 50.7 46.3 29.4 137.8 132 137.4 152.8 0 0 26.5-59.2 27-59.5 0 0 50.6-82.9-17.6-123.2-34.6-20.4-36.2-49.9-36.3-75.5-0.1-25.7-17.2-135-82.1-101.2 0 0-11.1-4.5-15.8-3.4 0 0 4 0.6 6.1 2.7-7.8 0.1-18.8 1.6-27.6 8.1-23.6 17.4-37.1 158.8 2.7 194.7z"/>
				<path id="&lt;Path&gt;" class="s60" d="m3200.1 2220.5c0 0-18.6-1.9-37.2 0-12.7 1.4-25.2 5.8-32.4 9.1-17.6 8.3-15.7 43.3 21.2 36.8 37-6.5 51-35.5 48.4-45.9z"/>
				<path id="&lt;Path&gt;" class="s60" d="m3132.1 2246c-0.2 0.2-5.3 30.1 18.9 28.9 15.9-0.7 50.2-22.3 47.2-37.6-1.4-7.2-13.5-26-15.9-69l-2.9 0.9-48.6 14.6c0 0 2.1 17.3 3.1 33.7 0.9 13.8 0.9 26.9-1.8 28.5z"/>
				<path id="&lt;Path&gt;" class="s59" d="m3130.8 2183.8c0 0 2.1 17.3 3.1 33.7 27.6-2.9 40.5-32.2 45.5-48.3z"/>
				<path id="&lt;Path&gt;" class="s61" d="m3184.2 2162.8c0 0 12.9-26.7 15.1-48.8 1.5-15.9-9-73.3-60.5-61 0 0-15 2.7-28.5 14.5-10.8 9.4-26 29.1-4.8 78.3l5.8 16.7z"/>
				<path id="&lt;Path&gt;" class="s60" d="m3122.5 2200c0 0 65.3-3.6 62.7-49.2-2.7-45.6 3.9-76.8-37.9-76.4-41.8 0.5-48.9 18.4-51.3 33.9-2.4 15.5 9.4 91.5 26.5 91.7z"/>
				<path id="&lt;Path&gt;" class="s61" d="m3117.5 2075.5c0 0 21.1 52.2 49 58 27.9 5.9 39.3-3.2 39.3-3.2 0 0-22.2-17.2-28.5-49.6 0 0-47.8-31.6-59.8-5.2z"/>
				<path id="&lt;Path&gt;" class="s61" d="m3122.2 2079.6c0 0-12.6 12.9-15.2 24.7-2.6 11.9-2.6 35.9-8.9 35.5 0 0-15.6-35.3-1.7-57 14.8-23 25.8-3.2 25.8-3.2z"/>
				<g id="&lt;Group&gt;">
					<path id="&lt;Path&gt;" class="s63" d="m3057.1 2526.8c5.3 7.1 21.8 9.3 39.5 12.5 13.8 2.6 28.4 5.8 38.8 12.7 23.6 15.5 100.5 67.9 123.1 65.5 8.7-0.9 7.1-19.7 1.8-44.5-8.4-39.2-25.8-93.7-25.8-117.3 0-12.9-3.8-43.5-9-78.5q-0.6-4.2-1.2-8.5c-10.2-68-24.2-148.2-24.2-148.2 0 0-15.7 38.3-46.1 38.3-30.5 0-23.5-29.2-23.5-29.2 0 0-27.8 3.7-34.3 11.6-6.6 8-23.3 42.3-26.6 51.6 0 0-0.7 12 25.6 17.6 0 0-6.4 32.3-7.1 53.9-0.6 15.9 9.6 65.7 12.6 96.7 1 11 1.2 19.6-0.4 23.5-2 5-8.6 10-16.1 14.9-14.9 9.7-33.4 19-27.1 27.4z"/>
				</g>
				<g id="&lt;Group&gt;">
					<path id="&lt;Path&gt;" class="s2" d="m3084.2 2499.4c-16.9 32.2 45.8 41.9 56.1 48.8 23.6 15.5 95.6 71.7 118.2 69.3 8.7-0.9 7.1-19.7 1.8-44.5-8.4-39.2-25.8-93.7-25.8-117.3 0-12.9-3.8-43.5-9-78.5l-27.1-29.2c0 0-29.1 84.3-56.8 98.1-14.6 7.2-29.8 12-40.9 14.9 1 11 1.2 19.6-0.4 23.5-2 5-8.6 10-16.1 14.9z"/>
				</g>
				<path id="&lt;Path&gt;" class="s60" d="m3208.4 2245.8c0 0 23.3-15.8 45.7 14.2 22.4 29.9-16 244.2-49.2 255.2-36.9 12.3-143.7-1.9-143.7-1.9l2.1-18.7c0 0 113.6-24.4 118.3-31.2 4.7-6.8 15-214.2 26.8-217.6z"/>
				<g id="&lt;Group&gt;">
					<path id="&lt;Path&gt;" class="s63" d="m3200.1 2220.5c0 0 47.7 4.9 61.5 22.4 13.9 17.6 17.9 65.2 17.9 65.2 0 0-42 38-92.6 23.3z"/>
				</g>
				<g id="&lt;Group&gt;">
					<g id="&lt;Group&gt;">
						<path id="&lt;Path&gt;" class="s64" d="m2987.1 2523.3h63v8.3h-63z"/>
					</g>
					<g id="&lt;Group&gt;">
						<path id="&lt;Path&gt;" class="s64" d="m3000.5 2530.5c-0.6-2.8-57.9-103.6-57.9-103.6h-127.4l63.9 100.9z"/>
					</g>
					<g id="&lt;Group&gt;">
						<path id="&lt;Path&gt;" class="s65" d="m2995.1 2531.6c-0.6-2.7-58-104.7-58-104.7h-121.9l60.8 104.7z"/>
					</g>
					<path id="&lt;Path&gt;" class="s66" d="m2887.7 2479.6c1.3 4.1 5.2 7.4 8.9 7.4 3.6 0 5.6-3.3 4.3-7.4-1.3-4.1-5.2-7.4-8.9-7.4-3.6 0-5.6 3.3-4.3 7.4z"/>
				</g>
				<path id="&lt;Path&gt;" class="s60" d="m3072.6 2493.5c0 0-37-8.1-41.2-6.1-4.2 2.1-27.4 25.5-25.1 30.1 2.4 4.7 12 8.1 22.7 4.1 10.8-4.1 34-6.1 38.2-12.1 4.2-6 5.4-16 5.4-16z"/>
			</g>
		</g>
		<g id="sitman">
			<g id="&lt;Group&gt;">
				<path id="&lt;Path&gt;" class="s67" d="m871.7 2481.3c0 0 33.4 7.7 54.6 2 21.2-5.8 57.6 3.7 63.5 10.7 5.9 7 3.7 9.7-6.8 12.2-10.5 2.4-47.6 16.7-72 8.4-24.4-8.3-56.2-8.6-56.2-8.6z"/>
				<g id="&lt;Group&gt;">
					<path id="&lt;Path&gt;" class="s68" d="m583.7 2219.2c0 0 37.4 240.9 99.4 262.5 30.6 10.6 165.8 34.8 205.8 37.2 0 0 9.8-7.2 7.4-36.5 0 0-141.6-47.1-161.8-72.7-29.9-38.1 18.6-155.6-19-191.4-37.5-35.8-100.8-51.2-131.8 0.9z"/>
				</g>
			</g>
			<g id="&lt;Group&gt;">
				<path id="&lt;Path&gt;" class="s69" d="m588.4 2772.5c0-4.6 3.8-8.4 8.5-8.4h34.9c4.7 0 8.4 3.8 8.4 8.4v393.4c0 4.7-3.7 8.4-8.4 8.4h-34.9c-4.7 0-8.5-3.7-8.5-8.4z"/>
			</g>
			<g id="&lt;Group&gt;">
				<path id="&lt;Path&gt;" class="s69" d="m454.5 3201.3c16.8-31.4 82-54.8 159.8-54.8 77.9 0 143.1 23.4 159.8 54.8z"/>
			</g>
			<g id="&lt;Group&gt;">
				<path id="&lt;Path&gt;" class="s69" d="m492.6 3080.6c0-1.2 1-2.3 2.3-2.3h238.9c1.3 0 2.3 1.1 2.3 2.3v12c0 1.3-1 2.3-2.3 2.3h-238.9c-1.3 0-2.3-1-2.3-2.3z"/>
			</g>
			<path id="&lt;Path&gt;" class="s61" d="m596.3 2726.7c10.9 16.8 23.5 32.5 36.6 47.4 40.2 46 84 83.9 91.6 119.7 1.6 7.2 4 14.9 7.1 23 3.2 8.2 7.1 16.8 11.7 25.8 17.1 33.5 42.6 71.2 68.1 105.4 44.1 59.1 85.5 108.4 85.5 108.4l76.1-2.9c-3.1-6.9-36.2-88.5-80.6-188.3-18-40.5-37.2-83.6-55.6-125.1q-3.7-8.4-7.4-16.6c-5.6-12.7-11.2-25.2-16.6-37.4-41.7-93.7-74.8-168.3-74.8-168.3 0 0-166.5-57-183.8-20.1-14.2 30.5-2.6 60.4 42.1 129z"/>
			<path id="&lt;Path&gt;" class="s61" d="m899.3 3143.9c0 0 3.9 56.8 16 57.6 1.7 0.1 61.6 0.1 61.6 0.1l76.5-0.4c0 0-0.5-16.7-22.9-20.2-22.3-3.5-59.8-17.8-73.3-44.5-14.3-28.2-57.9 7.4-57.9 7.4z"/>
			<path id="&lt;Path&gt;" class="s61" d="m723.3 2981.7c0 0-52.9 30.8-47.7 40.7 0.6 1.4 29.9 48.7 29.9 48.7l37.6 60.3c0 0 15.9-8.5 8.4-27.9-7.5-19.4-12-55.9 7.2-79.7 20.2-25-35.4-42.1-35.4-42.1z"/>
			<path id="&lt;Path&gt;" class="s62" d="m797.7 2592.4c0 0 206.1 116.1 229.4 195.3 23.3 79.2-277.9 248.1-277.9 248.1 0 0-33.1-26.4-38.9-45.8 0 0 136.2-147.6 165.7-180.7 18.1-20.4-268.2-70.4-303.2-119.7-35-49.2-22.5-90.7-22.5-90.7z"/>
			<g id="&lt;Group&gt;">
				<path id="&lt;Path&gt;" class="s58" d="m385 2749.8c0-4.3 3.5-7.8 7.8-7.8h443.1c4.3 0 7.8 3.5 7.8 7.8v90c0 4.3-3.5 7.8-7.8 7.8h-443.1c-4.3 0-7.8-3.5-7.8-7.8z"/>
			</g>
			<path id="&lt;Path&gt;" class="s67" d="m698.2 2177.9c20.5 11.5 31.9 26.1 31.9 26.1-50.1 11.7-133.1-30.3-133.1-30.3 0 0 32.2-19.6 44.2-62.6q0.9-3.3 1.6-6.7c1.6-7.2 2.6-15.1 2.7-23.6l23 18.7 38.3 31c0 0-0.9 12.9-5.7 35q-1.2 5.8-2.9 12.4z"/>
			<g id="&lt;Group&gt;">
				<path id="&lt;Path&gt;" class="s63" d="m544 2391.8c7.2 87.3-2.2 220 5.9 243 7 19.9 87 8.1 118.9 1.5 11.8-2.5 26.1-6 40.9-10.1 41.3-11.6 86.2-28.1 91-40.3q0.3-0.8 0.4-1.5c0.5-1.7 0.4-3.4 0-5.1-1.6-6.2-7.8-13-8.6-28.5-0.8-17.2-0.7-37.5-1.4-59.4 0-2.5-0.1-5.1-0.3-7.6l-0.1-0.9q0-0.7 0-1.4c-0.7-24.4-2.1-50-3.7-75.4-1.1-16-2.3-31.8-3.7-46.9-3.5-39.1-8.4-73.9-14.8-95.9-10.5-35.8-33.6-59.2-54.6-76.3l-15.2-11.8c-17 3.3-37.1 1.1-55.3-6.7-19.6-8.4-26.4-14.5-29.8-12.2-45.4 31.7-78 128.8-69.6 235.5z"/>
			</g>
			<g id="&lt;Group&gt;">
				<path id="&lt;Path&gt;" class="s63" d="m709.7 2626.2c41.3-11.6 86.2-28.1 91-40.3q0.3-0.8 0.4-1.5 0-2.5 0-5.1c-1.6-6.2-7.8-13-8.6-28.5-0.8-17.2-0.7-37.5-1.4-59.4 0-2.5-0.1-5.1-0.3-7.6l-0.1-0.9q0-0.7 0-1.4l-155.7-63.9c0 0-9 113.6 74.7 208.6z"/>
			</g>
			<path id="&lt;Path&gt;" class="s70" d="m706.8 2130.5c0 0-0.9 12.9-5.7 35-37.3-10.9-54.3-41.5-59.9-54.4-1.6-3.7-2.3-5.9-2.3-5.9 0 0 1.4-0.3 3.9-0.8 5.3-1 15.2-2.9 25.7-4.9z"/>
			<path id="&lt;Path&gt;" class="s67" d="m721.9 2130.1c0 0-82 8.4-87-37.9-5-46.3-18.9-76.4 33.2-83.7 52.2-7.3 64.3 9.4 70.1 24.5 5.8 15.1 4.9 93.8-16.3 97.1z"/>
			<path id="&lt;Path&gt;" class="s61" d="m635.2 2095.4c0 0 5.2-61.5 79.9-67.8 51.1-4.4 22.6-44.2 17.2-50.6 0 0-39.2 4.9-79.4 10.9-84.3 12.6-26 97.9-17.7 107.5z"/>
			<g id="&lt;Group&gt;">
				<path id="&lt;Path&gt;" class="s71" d="m1032.2 2541.7l7.2 2.1 61.1-170.2-7.2-2.1z"/>
				<path id="&lt;Path&gt;" class="s71" d="m832.3 2528.5l207.4 4-0.3 11.3-207.4-4z"/>
			</g>
			<g id="&lt;Group&gt;">
				<path id="&lt;Path&gt;" class="s67" d="m854.6 2518.3c0 0 32.2 11.1 53.9 7.4 21.8-3.6 56.9 9.5 61.9 17 5 7.5 2.5 10.1-8.2 11.4-10.7 1.4-49.4 11.9-72.6 1.3-23.3-10.7-54.9-14.2-54.9-14.2z"/>
				<g id="&lt;Group&gt;">
					<path id="&lt;Path&gt;" class="s68" d="m600.2 2229.1c0 0 7.9 243.1 66.9 270.8 29.1 13.6 160.5 51.1 200 57.5 0 0 10.6-6.2 11.8-35.5 0 0-135.1-60.9-152-88.4-25.1-40.9 37.5-152.9 4.5-192.2-33-39.3-94.1-60.9-131.2-12.2z"/>
				</g>
			</g>
		</g>
	</g>
</svg>