<svg width="40" height="33" viewBox="0 0 40 33" fill="none" xmlns="http://www.w3.org/2000/svg">
<path d="M6.69454 13.6061V2.52509C6.69454 2.06979 6.3876 1.6654 5.93629 1.60527C4.07036 1.35665 1.30527 1.76615 1 4.94349V28.1954C1.14453 29.5492 2.03294 32.3108 4.42986 32.0132C4.47871 32.0072 4.52905 32.0031 4.57827 32.0031H20.2738" stroke="#EF8208"/>
<path d="M6.69454 16.7969V23.2001C6.69454 23.9854 5.78991 24.4964 5.01139 24.3936C3.51017 24.1953 1.73462 24.8817 1 28.1951" stroke="#EF8208"/>
<path d="M6.69531 8.59136H29.3496C29.9019 8.59136 30.3496 8.14364 30.3496 7.59136V2.6109C30.3496 2.35261 30.446 2.10032 30.6443 1.93484C31.6159 1.12406 33.5032 0.319592 35.3151 1.92808C35.5082 2.09956 35.6061 2.35261 35.6061 2.6109V13.1498" stroke="#EF8208"/>
<path d="M30.3477 7.83984V24.3206C30.3477 24.4705 30.3814 24.6185 30.4463 24.7537L32.0745 28.1431C32.4377 28.8991 33.5141 28.8991 33.8773 28.1431L35.5055 24.7537C35.5705 24.6185 35.6042 24.4705 35.6042 24.3206V15.4298" stroke="#EF8208"/>
<path d="M32.9766 8.58984V21.3558" stroke="#EF8208"/>
<path d="M30.7852 5.39844H35.6036" stroke="#EF8208"/>
<path d="M35.6056 8.58984H38.1099C38.6622 8.58984 39.1099 9.03756 39.1099 9.58984V31.0025C39.1099 31.5548 38.6622 32.0025 38.1099 32.0025H22.4648" stroke="#EF8208"/>
<path d="M18.9595 17.2179L17.295 16.3712L18.9595 14.6777L20.6241 16.3712L18.9595 17.2179ZM18.9595 17.2179V18.9114M18.9595 18.9114L17.295 20.6048M18.9595 18.9114L20.6241 20.6048M17.295 20.6048L18.9595 22.2983L20.6241 20.6048M17.295 20.6048H13.1336V22.2983M20.6241 20.6048H25.6177V22.2983M13.1336 22.2983H11.469L10.6367 23.9917H12.3013M13.1336 22.2983H14.7981L13.9658 23.9917H12.3013M12.3013 23.9917V25.6851H17.295M17.295 25.6851V24.8384H20.6241V25.6851M17.295 25.6851V26.5319H20.6241V25.6851M20.6241 25.6851H25.6177V23.9917M25.6177 23.9917H23.1209L23.9532 22.2983H25.6177M25.6177 23.9917H26.45L27.2823 22.2983H25.6177" stroke="#EF8208"/>
<path d="M13.5898 14.0615L14.9592 12.9195L13.5996 11.7168" fill="white"/>
<path d="M13.5898 14.0615L14.9592 12.9195L13.5996 11.7168" stroke="#EF8208" stroke-width="0.8" stroke-linecap="round" stroke-linejoin="round"/>
<path d="M10.261 11.7168L8.88672 12.8538L10.2512 14.0615" fill="white"/>
<path d="M10.261 11.7168L8.88672 12.8538L10.2512 14.0615" stroke="#EF8208" stroke-width="0.8" stroke-linecap="round" stroke-linejoin="round"/>
<path d="M11.2773 14.7435C11.2969 14.6879 12.7543 11.0293 12.7543 11.0293" stroke="#EF8208" stroke-width="0.8" stroke-miterlimit="10" stroke-linecap="round"/>
</svg>
