<svg width="49" height="47" viewBox="0 0 49 47" fill="none" xmlns="http://www.w3.org/2000/svg">
<path d="M1.92151 3.07339L9.98469 1L17.3567 3.07339L15.7441 3.57734M1.92151 3.07339L4.22527 3.73161M1.92151 3.07339V9.29356M4.22527 3.73161L9.98469 5.37716L15.7441 3.57734M4.22527 3.73161V8.37205L9.98469 9.98469L15.7441 8.37205V3.57734M1.92151 9.29356L1 9.98469V12.2885L1.92151 11.367L2.84301 12.2885V9.98469L1.92151 9.29356Z" stroke="white" stroke-width="1.5"/>
<path d="M38.8196 11.7647C37.9625 11.7647 37.6461 12.3769 37.5951 12.683C37.7481 13.1422 37.2889 13.4483 36.9828 13.4483C36.5236 13.4483 36.4216 14.0096 36.5236 14.2136C36.646 14.9483 36.2684 15.234 36.0643 15.2851C35.3296 15.7749 35.5542 16.6116 35.7584 16.9687C36.1259 17.581 35.9115 18.4483 35.7584 18.8055C35.5135 19.4177 35.9625 19.8769 36.2176 20.03C36.8298 20.2749 36.8808 20.9483 36.8298 21.2544C36.9523 21.8667 37.4931 22.1218 37.7482 22.1728C38.4829 22.1728 38.8706 22.683 38.9727 22.9381C39.34 23.5504 40.0441 23.4993 40.3502 23.3973C40.84 23.03 41.4727 23.2442 41.7278 23.3973C41.8808 23.8565 42.8502 23.8565 42.9523 23.5504C43.1972 22.8157 43.7686 22.8361 44.0237 22.9381C44.8808 23.183 45.0951 22.632 45.0951 22.3259C45.2176 21.4687 45.8604 21.3565 46.1665 21.4075C47.0237 21.4075 47.0339 20.7953 46.9318 20.4891C46.5645 19.8769 47.0849 19.5198 47.391 19.4177C48.1257 19.0504 47.9012 18.3463 47.6972 18.0402C47.0849 17.5504 47.4421 17.0198 47.6972 16.8157C48.3094 16.081 47.8502 15.6932 47.5441 15.5912C46.9318 15.3463 46.9829 14.7749 47.0849 14.5198C47.2074 13.7851 46.6257 13.4994 46.3196 13.4483C45.5849 13.4483 45.5033 12.9381 45.5543 12.683C45.5543 11.9483 44.84 11.8667 44.4829 11.9177C43.8706 11.9177 43.6155 11.6116 43.5645 11.4585C43.0747 10.9687 42.5441 11.1524 42.34 11.3055C41.8808 11.6116 41.2148 11.2747 41.2686 11.3055C40.6563 10.9381 40.1972 11.2544 40.0441 11.4585C39.6768 11.9483 39.0747 11.8667 38.8196 11.7647Z" stroke="white" stroke-width="1.5"/>
<circle cx="41.7232" cy="17.4279" r="3.53571" stroke="white" stroke-width="1.5"/>
<path d="M39.707 23.5768V31.4096L41.1072 30.0094L42.6152 31.4096V27.7475L43.4768 26.5627L44.7693 27.7475V23.116" stroke="white" stroke-width="1.5"/>
<path d="M16.6641 4.4557H41.7751C42.6198 4.37891 44.3093 4.73216 44.3093 6.75947V10.6759" stroke="white" stroke-width="1.5"/>
<path d="M40.1588 10.6758V8.37207H17.1211" stroke="white" stroke-width="1.5"/>
<path d="M11.3672 10.9061V26.8021" stroke="white" stroke-width="1.5"/>
<path d="M11.3672 29.7971V41.3159H40.3947V32.5616" stroke="white" stroke-width="1.5"/>
<path d="M7.22125 10.9061V42.9285C6.99088 43.85 7.17518 45.693 9.7554 45.693H41.7769C42.4681 45.8466 43.9425 45.693 44.3111 43.85V29.797" stroke="white" stroke-width="1.5"/>
<path d="M42.6055 27.7237V23.8073" stroke="white" stroke-width="1.5"/>
<path d="M19.6484 33.6753C20.5923 33.498 22.5831 32.5049 22.995 29.9513C24.0247 31.902 26.2386 34.8989 26.8564 31.2813C27.7145 32.5226 30.2545 34.7393 33.5496 33.6753" stroke="white" stroke-width="1.5"/>
<path d="M35.3529 11.5972H19.1349C17.8477 11.6858 15.2734 12.7144 15.2734 16.1192V33.4093C15.2734 34.7393 16.0457 37.3994 19.1349 37.3994H36.3826" stroke="white" stroke-width="1.5"/>
<path d="M19.3945 17.1832H33.0383" stroke="white"/>
<path d="M19.6484 19.0643H32.7773" stroke="white"/>
<path d="M19.6484 20.9453H32.7773" stroke="white"/>
<path d="M19.3945 22.7122H33.0383" stroke="white"/>
<path d="M19.6484 24.5933H32.7773" stroke="white"/>
<path d="M19.6484 26.4744H32.7773" stroke="white"/>
</svg>
