<svg width="65" height="58" viewBox="0 0 65 58" fill="none" xmlns="http://www.w3.org/2000/svg">
<path d="M43.0076 27.7903L26.403 23.4805V52.6917L43.0076 56.5227V27.7903Z" fill="#FE8604" fill-opacity="0.7"/>
<path d="M60.589 23.4805L44.9611 27.7903V56.5227L61.0774 52.6917L60.589 23.4805Z" fill="#FE8604" fill-opacity="0.7"/>
<path d="M64.9844 27.7903H62.5425V54.1284L47.8914 57.4805H64.9844V27.7903Z" fill="#FE8604" fill-opacity="0.7"/>
<path d="M22.9844 27.7903H24.9379V54.1284L39.589 57.4805L22.9844 57.0016V27.7903Z" fill="#FE8604" fill-opacity="0.7"/>
<path d="M21.9844 11.0742L27.4801 17.4629V27.0459" stroke="#30347B" stroke-width="1.5"/>
<path d="M8.49219 34.5H21.9816" stroke="#30347B" stroke-width="1.5"/>
<path d="M8.49219 31.3086H17.4852" stroke="#30347B" stroke-width="1.5"/>
<path d="M12.4922 15.8652V20.1243L12.9918 21.7215L13.991 23.3187L15.4898 24.3835L17.4883 25.4482L20.4859 25.9806H23.4836L26.4813 25.4482L28.9793 24.3835L30.4781 22.7863L30.9777 21.7215L31.4774 20.1243V18.5272V15.8652" stroke="#30347B" stroke-width="1.5"/>
<path d="M25.9774 3.62175L22.4966 1.7672C22.1778 1.59732 21.7921 1.61262 21.4877 1.80723L8.3699 10.1943C7.74011 10.597 7.75864 11.5231 8.40404 11.9002L21.9672 19.8261C22.2833 20.0108 22.6752 20.008 22.9886 19.8187L36.0909 11.907C36.7254 11.5238 36.7372 10.6077 36.1127 10.2084L27.4762 4.68652" stroke="#30347B" stroke-width="1.5"/>
<path d="M9.84866 12.6719H3.98173C3.43648 12.6719 2.99173 13.1087 2.98189 13.6538L2.51837 39.3381C2.50828 39.8973 2.95886 40.3561 3.51821 40.3561H40.4696C41.0218 40.3561 41.4696 39.9084 41.4696 39.3561V13.6719C41.4696 13.1196 41.0218 12.6719 40.4696 12.6719H34.7039" stroke="#30347B" stroke-width="1.5"/>
<path d="M14.9926 15.8652H6.5C5.94771 15.8652 5.5 16.3129 5.5 16.8652V36.6932C5.5 37.2455 5.94772 37.6932 6.5 37.6932H9.49688" stroke="#30347B" stroke-width="1.5"/>
<path d="M29.4781 15.8652H37.4711C38.0234 15.8652 38.4711 16.3129 38.4711 16.8652V36.6932C38.4711 37.2455 38.0234 37.6932 37.4711 37.6932H11.4922" stroke="#30347B" stroke-width="1.5"/>
<path d="M41.9805 40.8767L2.99844 40.3574H2C1.44772 40.3574 1 40.8051 1 41.3574V45.2137C1 45.766 1.44772 46.2137 2 46.2137H41.9672C42.5195 46.2137 42.9672 45.766 42.9672 45.2137V41.8766C42.9672 41.3295 42.5276 40.884 41.9805 40.8767Z" stroke="#30347B" stroke-width="1.5"/>
<path d="M17.4844 40.8887L17.984 42.4858L19.9824 43.5506H21.9809H24.4789L25.9777 43.0182L26.977 40.8887" stroke="#30347B" stroke-width="1.5"/>
<path d="M28.9813 29.7096C28.9813 30.64 28.2809 31.3392 27.4828 31.3392C26.6847 31.3392 25.9844 30.64 25.9844 29.7096C25.9844 28.7792 26.6847 28.0801 27.4828 28.0801C28.2809 28.0801 28.9813 28.7792 28.9813 29.7096Z" stroke="#30347B"/>
</svg>
