<svg width="63" height="46" viewBox="0 0 63 46" fill="none" xmlns="http://www.w3.org/2000/svg">
<path d="M34.2569 3.06628H8.4515C7.16123 3.06628 4.5807 3.84045 4.5807 6.93709V37.9035H2.64529C1.78511 37.6885 0.32281 37.7745 1.35502 39.8389C2.00016 41.1292 3.28821 44.4839 5.86875 45H56.1892C57.6945 44.785 60.9632 43.4517 61.9954 39.8389C62.2105 39.1938 61.8664 37.9035 58.7698 37.9035H57.4795V8.87249" stroke="white" stroke-width="1.5"/>
<path d="M4.57812 37.9033H21.3516M57.4791 37.9033H40.7057M40.7057 37.9033V39.8387C40.7057 40.4838 40.3186 41.7741 38.7703 41.7741C37.2219 41.7741 28.6631 41.7741 24.5773 41.7741C23.5021 41.9891 21.3516 41.9031 21.3516 39.8387V37.9033M40.7057 37.9033H21.3516M29.0932 6.93682H11.6746C10.8144 6.72178 9.09407 7.06585 9.09407 10.1625V31.452C8.87902 32.5272 9.09407 34.5486 11.6746 34.0325H51.0278C51.888 34.0325 53.6083 33.5164 53.6083 31.452V17.9041" stroke="white" stroke-width="1.5"/>
<path d="M33.6094 23.5791H37.5113" stroke="white"/>
<path d="M39.4609 23.5791H45.3138" stroke="white"/>
<path d="M47.2656 23.5791H51.1676" stroke="white"/>
<path d="M33.6094 25.809H35.5603" stroke="white"/>
<path d="M37.5156 25.809H45.3195" stroke="white"/>
<path d="M47.2656 25.809H51.1676" stroke="white"/>
<path d="M33.6094 28.0389H39.4623" stroke="white"/>
<path d="M41.418 28.0389H47.2709" stroke="white"/>
<path d="M49.2188 28.0389H51.1697" stroke="white"/>
<path d="M33.6094 30.2688H41.4132" stroke="white"/>
<path d="M43.3672 30.2688H45.3182" stroke="white"/>
<path d="M47.2656 30.2688H51.1676" stroke="white"/>
<path d="M42.5855 16.8423L40.3047 18.3628L42.5855 19.8833" stroke="white" stroke-width="1.5"/>
<path d="M46.3867 16.8423L48.6675 18.3628L46.3867 19.8833" stroke="white" stroke-width="1.5"/>
<path d="M45.3258 16.2104L43.6363 20.5151" stroke="white" stroke-width="1.5"/>
<path d="M50.8644 10.6099V8.07711C48.6823 5.42746 38.3952 5.93403 37.2262 8.07711V10.0254M50.8644 10.6099V12.1685C50.9294 12.4932 50.8254 13.1426 49.8903 13.1426H38.3952C38.0056 13.1426 37.2262 12.9478 37.2262 12.1685V10.6099M50.8644 10.6099H37.2262M37.2262 10.6099V10.0254M53.0079 9.24611L56.5149 7.68749C56.9045 7.42772 57.4501 6.83025 56.5149 6.51852C55.5797 6.2068 48.3322 2.88174 44.8254 1.25818C44.5007 1.06335 43.7343 0.790592 43.2667 1.25818L31.7717 6.3237C31.3171 6.45359 30.6417 6.90819 31.5769 7.6875L34.8723 9.05129M37.2262 10.0254L34.8723 9.05129M34.8723 9.05129V16.2599M34.8723 16.2599C35.3325 16.4547 36.2528 17.0782 36.2528 18.0134V19.9616H33.5252V18.0134C33.644 17.4289 34.0797 16.2599 34.8723 16.2599Z" stroke="white" stroke-width="1.5"/>
<path d="M28.1951 15.4288L26.6128 13.6803L25.3821 14.8862C24.9132 14.2109 23.3113 13.8009 22.569 13.6803V11.8715H19.4043V13.6803C18.3728 13.6803 17.06 14.4842 16.5326 14.8862L15.3604 13.6803L13.3092 15.7303L14.4814 16.9965C13.7312 17.913 13.3874 19.348 13.3092 19.9509H11.4925V22.9054H13.3092C13.3092 23.5185 13.4593 24.1308 13.6609 24.6693M28.1951 15.4288L29.1328 14.5244L27.9021 13.3185H31.9459L31.7115 17.2377L30.305 15.7303L28.1951 18.0818M28.1951 15.4288L26.2231 17.4789M28.1951 18.0818L28.664 19.9509H30.305V23.2069H28.664C28.5272 23.85 28.0896 25.3534 27.4333 26.2216L28.664 27.4275L26.6128 29.4172L25.3821 28.2113C24.9523 28.6133 23.788 29.4172 22.569 29.4172V31.1055H19.4043V29.4172C18.7205 29.2765 17.1889 28.8384 16.5326 28.2113L15.3604 29.4172L13.6609 27.4275M28.1951 18.0818L26.9058 19.3116M13.6609 27.4275L14.4814 26.2216C14.2619 25.9281 13.9192 25.3593 13.6609 24.6693M13.6609 27.4275L11.4925 29.6584L10.2031 28.2113L13.6609 24.6693M16.5326 21.8804L19.4043 18.9259L22.569 21.2774L25.089 18.6578M16.9428 23.7495L19.4043 21.2774L22.569 23.448L25.6165 20.5413M25.089 18.6578C22.9206 14.8862 15.6886 15.863 16.0637 22.1819C16.0637 23.7495 18.1735 26.9934 21.6899 26.4628C23.2527 26.374 26.226 25.0654 25.6165 20.5413M25.089 18.6578L26.2231 17.4789M25.6165 20.5413L26.9058 19.3116M26.2231 17.4789C23.9755 13.6803 17.7281 13.7888 15.3604 17.8406C13.3092 20.5413 14.1883 27.126 19.8145 28.2113C25.9974 28.8143 28.5284 23.7495 26.9058 19.3116" stroke="white"/>
</svg>
