<svg width="56" height="50" viewBox="0 0 56 50" fill="none" xmlns="http://www.w3.org/2000/svg">
<path d="M49.0469 11.4076L50.4864 7.68449C50.5853 7.42874 50.9472 7.42874 51.0461 7.68449L52.4856 11.4076M49.0469 11.4076L52.4856 11.4076M49.0469 11.4076L49.0469 26.2374M52.4856 11.4076L52.6234 26.2374M52.6234 28.0832L52.6234 30.6026C52.6234 30.6573 52.6076 30.7127 52.5786 30.7591C51.1926 32.976 49.7085 31.7275 49.0905 30.7567C49.0613 30.7107 49.0469 30.6573 49.0469 30.6028L49.0469 28.0832M52.6234 28.0832L49.0469 28.0832M52.6234 28.0832L52.6234 26.2374M49.0469 28.0832L49.0469 26.2374M49.0469 26.2374L50.7663 26.2374M52.6234 26.2374L50.7663 26.2374M50.7663 26.2374L50.7663 15.1155" stroke="white"/>
<path d="M26.4735 17.0212L25.1562 17.8994L26.4735 18.7775" stroke="white" stroke-width="0.9"/>
<path d="M28.6719 17.0212L29.9891 17.8994L28.6719 18.7775" stroke="white" stroke-width="0.9"/>
<path d="M28.0624 16.6562L27.0866 19.1424" stroke="white" stroke-width="0.9"/>
<path d="M46.3786 7.44863H5.58821C1.50908 7.44863 0.847116 10.4901 1.02603 12.0108V44.7512C1.02603 48.8303 4.60421 49.3134 6.3933 49.045H51.4775C55.5896 48.8737 54.9663 44.7512 54.9663 41.7992M46.3786 7.44863V1.00791C49.6884 0.828998 54.7516 3.69156 54.9663 9.05884V41.7992M46.3786 7.44863V36.1635C49.1223 35.5374 53.5358 36.0026 54.9663 41.7992" stroke="white" stroke-width="1.5"/>
<path d="M18.6251 37.6184V36.5591C18.7946 34.0167 16.7183 33.0986 15.659 32.9573H10.3623C7.14196 32.7878 6.19562 35.2879 6.125 36.5591V42.2795H8.24367M18.6251 37.6184C18.272 38.0422 17.5658 39.1015 17.5658 39.949V42.2795M18.6251 37.6184C18.9076 37.2653 19.8116 36.5591 21.1675 36.5591H27.0998C27.6526 36.7065 28.5053 37.0692 29.2185 37.6714M17.5658 42.2795H17.3539H16.5065M17.5658 42.2795V45.8812H19.8963M30.4897 42.0676V39.949C30.4086 38.9763 29.8721 38.2233 29.2185 37.6714M30.4897 42.0676V45.8812H27.9473M30.4897 42.0676H31.549M29.2185 37.6714V36.5591C29.2185 34.1861 31.4784 33.1692 32.6083 32.9574H38.5406C40.8711 33.3812 42.1423 35.0761 42.1423 36.5591V42.0676H39.8118M8.24367 37.1948V42.2795M8.24367 42.2795H16.5065M16.5065 36.9829V42.2795M19.8963 40.5846V45.8812M19.8963 45.8812H27.9473M27.9473 40.5846V45.8812M31.549 36.9829V42.0676M31.549 42.0676H39.8118M39.8118 36.9829V42.0676M11.2098 24.059V13.2538C11.2804 12.2651 12.2691 10.2029 15.659 9.86395H32.6083C34.0208 9.93457 36.8033 10.7962 36.6338 13.6776V23.8472" stroke="white" stroke-width="1.5"/>
<circle cx="12.4795" cy="27.8726" r="3.48733" stroke="white" stroke-width="1.5"/>
<circle cx="23.917" cy="31.2625" r="3.48733" stroke="white" stroke-width="1.5"/>
<circle cx="35.3623" cy="27.8726" r="3.48733" stroke="white" stroke-width="1.5"/>
<path d="M15.6562 30.627H19.8936" stroke="white" stroke-width="1.5"/>
<path d="M28.1602 30.627H31.9738" stroke="white" stroke-width="1.5"/>
<path d="M24.1662 22.9863V14.8697M24.1662 22.9863V23.8188M24.1662 22.9863C23.9997 22.3203 23.2644 22.2926 22.9175 22.362H17.4023M24.1662 22.9863C24.3327 22.3203 25.1374 22.2926 25.519 22.362H30.826M24.1662 14.8697C24.1662 14.4534 24.4368 13.621 25.519 13.621H30.826V22.362M24.1662 14.8697C24.1662 14.0372 23.6112 13.6903 23.3337 13.621H17.4023V22.362M24.1662 23.8188H30.826V22.362M24.1662 23.8188H17.4023V22.362M18.8592 15.494H22.6053" stroke="white"/>
<path d="M18.8594 16.8467H22.5015" stroke="white"/>
<path d="M18.8594 18.0956H22.5015" stroke="white"/>
<path d="M18.8594 19.3442H22.5015" stroke="white"/>
<path d="M18.8594 20.5929H22.5015" stroke="white"/>
</svg>
