<svg width="182" height="31" viewBox="0 0 182 31" fill="none" xmlns="http://www.w3.org/2000/svg">
<path d="M26.5865 23.331C26.4891 23.3621 26.409 23.4082 26.3436 23.4647C25.8994 23.848 26.3076 24.525 26.6992 24.9618L28.7651 27.2662C29.6534 27.776 30.3205 27.4786 30.543 27.2662L33.203 23.8674C33.3808 23.6974 33.4149 23.4425 33.6475 23.6549L36.7659 27.6911C37.2993 28.7107 36.3955 29.1073 35.8769 29.1781H32.3946C31.7763 29.1781 30.9481 29.4931 31.1198 30.0871C31.219 30.4304 31.6166 30.4522 31.9739 30.4555C33.7465 30.472 36.6845 30.5494 36.9882 30.4526C37.6549 30.2402 38.3147 30.0278 38.7592 29.1781C39.356 28.0372 38.3421 26.7122 37.5594 25.6899L32.0988 18.5566L30.543 19.6188C30.9875 20.1853 32.1432 21.5731 32.321 21.7431C32.4988 21.913 32.3951 22.0971 32.321 22.1679L29.8329 25.3544C29.4773 25.6942 29.5695 25.7084 29.4214 25.5668L28.3527 24.2818C27.8957 23.7323 27.2674 23.1135 26.5865 23.331Z" fill="#003F7D"/>
<path d="M14.9531 11.5465L16.7311 12.8211L20.287 8.3601C20.9982 7.85027 21.5725 8.14767 21.8688 8.3601L25.0985 12.082C25.522 12.5701 26.0379 13.1357 26.6779 13.0462C26.8033 13.0286 26.9088 12.9855 26.9969 12.9247C27.5687 12.5302 27.1552 11.6802 26.7093 11.1475L24.214 8.16607C23.3806 7.17033 22.3904 6.14481 21.0927 6.09974C20.9225 6.09383 20.7598 6.10071 20.6057 6.11752C19.581 6.22932 18.8369 7.05276 18.1629 7.83264L14.9531 11.5465Z" fill="#003F7D"/>
<path d="M14.5353 12.3963C14.265 12.2855 14.0427 12.2463 13.8618 12.2585C12.831 12.328 13.5369 13.9059 14.3974 14.4777C15.8022 15.4112 17.746 16.0891 19.1019 16.4542C19.6091 16.5908 20.1944 16.6308 20.5939 16.2897C20.7999 16.1138 20.8528 15.9249 20.8141 15.7422C20.6641 15.0337 19.7307 14.8952 19.0299 14.7122C16.4317 14.0339 15.9189 12.9631 14.5353 12.3963Z" fill="#FF8E01"/>
<path d="M10.6209 11.7581C11.0046 11.8382 11.2734 12.0781 11.2045 12.603C11.1535 12.9922 10.8916 13.3133 10.6079 13.5845C10.1676 14.0053 9.81619 14.5806 9.96656 15.1707C10.0888 15.6504 10.4129 16.2194 11.2013 16.7846C11.3495 16.8554 11.5715 16.9546 11.9271 16.7846L12.1027 16.6618C12.4039 16.4512 12.673 16.1787 13.036 16.2361C13.4615 16.3034 13.7603 16.7661 13.9365 17.1592L14.1495 17.6344C14.2236 17.776 14.5065 17.9193 15.5263 18.0592H18.01C18.6949 18.0592 19.6502 18.0799 19.705 18.7626C19.7111 18.8376 19.7017 18.9149 19.6727 18.9928C19.4742 19.5252 18.7451 19.5462 18.1769 19.5462H15.9275C15.8534 19.5462 15.6462 19.6269 15.8642 20.0436C16.0107 20.3236 17.3234 22.0161 18.237 23.1978C18.5816 23.6434 19.0188 23.8449 19.479 23.5201C19.5618 23.4617 19.6516 23.4001 19.7487 23.3383C20.6785 22.6975 22.4437 21.5158 23.4206 20.8933L28.9699 17.9193L29.8429 17.283C30.4899 16.8114 31.0687 16.2527 31.563 15.6229C31.9394 15.1431 32.1392 14.5154 31.8867 13.9603C31.6767 13.4988 31.3351 13.0598 30.818 12.9609C29.9291 12.791 29.7068 13.0317 29.7068 13.1733C29.5603 14.2933 29.2777 15.4476 28.5182 16.2836C28.1635 16.6739 27.6895 17.077 27.0398 17.4219C25.4397 18.2716 23.558 18.7673 22.8172 18.9089C22.197 19.0275 21.0369 18.9475 21.304 18.0886C21.4352 17.6667 21.8711 17.4378 22.3007 17.3341C22.6438 17.2513 22.895 17.0464 22.7096 16.746C22.6773 16.6937 22.6394 16.6359 22.5949 16.5722C22.2827 16.1245 20.9193 14.4428 20.0398 13.3683C19.821 13.1009 19.6218 12.7617 19.7549 12.4429C19.8443 12.2287 20.0392 12.0488 20.4127 12.0284C20.8246 12.006 21.1802 12.2819 21.4428 12.5999L24.3729 16.1473C24.5951 16.3598 24.8174 16.8696 25.7064 16.3598C26.218 16.0663 26.7052 15.6884 27.0406 15.38C27.3723 15.0751 27.6195 14.6838 27.7658 14.2577C27.9235 13.7984 28.0408 13.1785 27.9288 12.5361C27.7066 11.828 27.0398 10.1144 26.1509 8.92478C25.6367 8.23675 25.0978 7.6103 24.663 7.13586C24.2006 6.63118 23.7175 5.85807 24.2291 5.40329C24.3957 5.25517 24.6416 5.16093 24.995 5.17496C25.4688 5.19377 25.868 5.50656 26.1723 5.87013C26.4536 6.20632 26.7011 6.56945 26.9112 6.95425L29.2623 11.2615C29.3364 11.3323 30.0491 11.1991 30.5784 11.2615C31.1931 11.334 32.3314 11.721 32.755 12.1837C33.2735 12.7502 34.0629 13.9381 33.7073 15.2976C33.3517 16.6572 31.2625 18.4133 30.3736 18.9089L25.4841 21.6705L23.9284 22.5202L22.0629 23.6549L19.928 25.2818L18.3836 26.9219C18.0801 27.2443 17.8006 27.5884 17.5473 27.9515C17.2128 28.431 16.7655 28.8878 16.1809 28.8802C15.8042 28.8753 15.4535 28.7318 15.3926 28.3031C15.3281 27.8489 15.6395 27.4408 15.9426 27.0965L17.5405 25.2818C17.6146 25.1402 17.661 24.9844 17.4832 24.6445L15.483 22.0954C15.4089 22.0246 15.2163 21.9254 15.0385 22.0954C14.8607 22.2653 12.1493 25.9899 10.8158 27.8309H8.81562L14.1495 20.8208C14.2236 20.5375 14.0606 19.8011 12.8161 19.1214L10.9267 18.4083C10.8136 18.3656 10.704 18.3142 10.5989 18.2545C9.71964 17.7553 8.91106 17.0866 8.4423 16.1908C8.21566 15.7577 8.09007 15.336 8.08984 14.7329C8.08964 14.186 8.31588 13.6086 8.57721 13.0987C8.98073 12.3114 9.75488 11.5773 10.6209 11.7581Z" fill="#FF8E01"/>
<path d="M9.28943 20.3406C9.20724 20.2695 9.11416 20.2149 9.01438 20.1752C8.43934 19.9461 7.88041 20.4302 7.50668 20.9236L4.5582 24.8163C3.83797 25.7671 3.00279 26.9231 3.00001 28.116C2.9965 29.618 4.2289 30.2911 4.96958 30.3619H10.2962C11.1787 30.3619 12.6494 30.008 12.1942 29.2519C11.9185 28.794 11.3641 28.8103 10.8295 28.8103H8.7779H5.88895C4.8082 28.7456 4.77779 27.9675 5.00004 27.5427L9.05495 22.0199C9.43294 21.5051 9.77245 20.7585 9.28943 20.3406Z" fill="#003F7D"/>
<ellipse cx="20.7461" cy="2.4121" rx="2.00004" ry="1.91186" fill="#003F7D"/>
<ellipse cx="30.9505" cy="8.99747" rx="1.33336" ry="1.27457" fill="#FF8E01"/>
<ellipse cx="13.1715" cy="8.99733" rx="2.22227" ry="2.12428" fill="#FF8E01"/>
<path d="M46.18 26V25.865L51.4675 8.45H57.385L62.695 25.865V26H58.825L54.5725 11.375H54.0325L49.735 26H46.18ZM50.5675 21.6125L51.355 18.7775H57.25L58.0375 21.6125H50.5675ZM64.585 26V8.45H71.92C74.17 8.45 75.8125 8.93 76.8475 9.89C77.8825 10.835 78.4 12.11 78.4 13.715C78.4 15.32 77.8825 16.6025 76.8475 17.5625C75.8275 18.5225 74.185 19.0025 71.92 19.0025H68.32V26H64.585ZM68.32 16.1675H71.3575C72.3775 16.1675 73.1725 15.995 73.7425 15.65C74.3275 15.29 74.62 14.6525 74.62 13.7375C74.62 12.8375 74.3275 12.2075 73.7425 11.8475C73.1725 11.4725 72.3775 11.285 71.3575 11.285H68.32V16.1675ZM80.7745 26V8.45H92.7445V11.42H84.5095V15.29H90.8545V18.035H84.5095V23.03H92.8795V26H80.7745ZM94.2692 26V25.865L99.4442 16.685L95.0117 8.585V8.45H99.0392L102.212 14.3225H102.752L105.834 8.45H109.704V8.585L105.294 16.685L110.424 25.865V26H106.239L102.549 19.0475H102.009L98.2742 26H94.2692Z" fill="#003F7D"/>
<path d="M119.563 26.727C118.141 26.727 117.151 26.349 116.593 25.593C116.035 24.837 115.756 23.721 115.756 22.245C115.756 20.265 116.332 18.321 117.484 16.413C116.152 15.567 115.486 14.316 115.486 12.66C115.486 10.662 116.368 8.889 118.132 7.341C120.112 5.595 122.668 4.722 125.8 4.722C126.79 4.722 127.663 4.785 128.419 4.911C129.175 5.019 129.895 5.19 130.579 5.424C131.281 5.658 132.028 5.955 132.82 6.315C133.612 6.675 134.548 7.107 135.628 7.611C138.256 8.799 140.182 9.393 141.406 9.393C142 9.393 142.513 9.258 142.945 8.988C143.377 8.7 143.593 8.349 143.593 7.935C143.593 7.665 143.476 7.422 143.242 7.206C143.116 7.026 143.053 6.9 143.053 6.828C143.053 6.792 143.071 6.774 143.107 6.774C143.251 6.774 143.449 6.927 143.701 7.233C143.953 7.539 144.079 7.872 144.079 8.232C144.079 8.628 143.926 8.97 143.62 9.258C143.332 9.546 142.954 9.771 142.486 9.933C142.036 10.077 141.568 10.149 141.082 10.149C139.732 10.149 137.743 9.546 135.115 8.34C134.143 7.89 133.306 7.512 132.604 7.206C131.902 6.882 131.254 6.621 130.66 6.423C130.066 6.207 129.472 6.054 128.878 5.964C128.302 5.856 127.654 5.802 126.934 5.802C123.208 5.802 120.274 7.008 118.132 9.42C117.898 9.672 117.673 10.041 117.457 10.527C117.241 10.995 117.061 11.49 116.917 12.012C116.791 12.534 116.728 13.002 116.728 13.416C116.728 14.46 117.097 15.27 117.835 15.846C118.411 15 119.077 14.244 119.833 13.578C120.607 12.894 121.435 12.354 122.317 11.958C123.199 11.562 124.108 11.364 125.044 11.364C126.664 11.364 127.474 11.994 127.474 13.254C127.474 14.766 126.583 16.413 124.801 18.195C123.037 19.959 121.399 20.841 119.887 20.841C118.915 20.841 118.429 20.427 118.429 19.599C118.429 19.311 118.501 19.059 118.645 18.843C118.807 18.627 118.996 18.546 119.212 18.6C119.212 18.69 119.203 18.807 119.185 18.951C119.167 19.077 119.158 19.167 119.158 19.221C119.158 19.491 119.572 19.626 120.4 19.626C121.624 19.626 122.938 18.978 124.342 17.682C125.026 17.034 125.611 16.314 126.097 15.522C126.601 14.73 126.853 13.992 126.853 13.308C126.853 12.498 126.331 12.093 125.287 12.093C124.531 12.093 123.766 12.3 122.992 12.714C122.236 13.128 121.516 13.668 120.832 14.334C120.148 14.982 119.527 15.675 118.969 16.413C119.059 16.449 119.176 16.485 119.32 16.521C119.464 16.557 119.626 16.593 119.806 16.629L121.426 16.683C122.218 16.719 122.614 16.809 122.614 16.953C122.614 17.205 122.254 17.331 121.534 17.331C121.21 17.331 120.895 17.322 120.589 17.304C120.301 17.286 120.022 17.259 119.752 17.223C119.554 17.187 119.356 17.151 119.158 17.115C118.978 17.061 118.798 16.998 118.618 16.926C117.232 19.05 116.539 21.003 116.539 22.785C116.539 25.089 117.43 26.241 119.212 26.241C121.228 26.241 123.325 24.837 125.503 22.029L130.795 14.145C132.721 11.283 134.44 9.807 135.952 9.717L136.978 9.96C137.302 10.122 137.464 10.446 137.464 10.932C137.464 11.184 137.374 11.31 137.194 11.31C137.14 11.31 137.005 11.292 136.789 11.256C136.591 11.202 136.438 11.175 136.33 11.175C135.052 11.175 133.459 12.516 131.551 15.198L126.178 22.704C123.874 25.386 121.669 26.727 119.563 26.727ZM134.66 24.135C134.228 24.135 133.796 23.982 133.364 23.676C132.932 23.37 132.689 23.01 132.635 22.596C132.455 21.21 133.328 19.563 135.254 17.655C137.162 15.747 138.881 14.793 140.411 14.793C140.825 14.793 141.149 14.892 141.383 15.09C141.509 15.216 141.599 15.387 141.653 15.603C141.725 15.819 141.779 15.927 141.815 15.927C141.887 15.927 141.95 15.918 142.004 15.9C142.058 15.864 142.121 15.846 142.193 15.846C142.409 15.846 142.598 15.927 142.76 16.089C142.922 16.251 143.012 16.395 143.03 16.521C143.048 16.557 142.472 17.448 141.302 19.194C140.132 20.904 139.601 22.065 139.709 22.677C139.799 23.091 139.997 23.298 140.303 23.298C141.239 23.298 142.949 21.75 145.433 18.654C145.487 18.582 145.541 18.546 145.595 18.546C145.685 18.546 145.73 18.609 145.73 18.735C145.73 18.879 145.649 19.059 145.487 19.275C143.201 22.353 141.446 23.892 140.222 23.892C140.06 23.892 139.907 23.865 139.763 23.811C138.971 23.505 138.575 22.911 138.575 22.029C138.575 21.723 138.611 21.417 138.683 21.111L137.009 22.731C136.505 23.235 136.046 23.595 135.632 23.811C135.236 24.027 134.912 24.135 134.66 24.135ZM134.417 23.541C135.461 23.541 136.883 22.398 138.683 20.112L141.545 16.17C141.401 15.918 141.167 15.792 140.843 15.792C139.745 15.792 138.26 16.674 136.388 18.438C134.444 20.238 133.571 21.723 133.769 22.893C133.859 23.325 134.075 23.541 134.417 23.541ZM150.863 24.054C150.377 24.054 150.035 23.919 149.837 23.649C149.639 23.361 149.54 23.01 149.54 22.596C149.54 21.552 149.9 20.436 150.62 19.248L152.348 16.44C151.124 17.34 149.909 18.465 148.703 19.815C148.379 20.175 148.01 20.598 147.596 21.084C147.2 21.57 146.759 22.128 146.273 22.758C145.625 23.604 145.238 24.027 145.112 24.027C144.86 24.027 144.653 23.919 144.491 23.703C144.329 23.469 144.248 23.262 144.248 23.082C144.248 22.938 144.293 22.677 144.383 22.299C144.473 21.903 144.581 21.561 144.707 21.273C144.833 20.967 144.959 20.67 145.085 20.382C145.229 20.076 145.364 19.779 145.49 19.491L143.87 21.192C143.834 21.228 143.726 21.336 143.546 21.516C143.366 21.696 143.222 21.786 143.114 21.786C143.024 21.786 142.979 21.723 142.979 21.597C142.979 21.561 142.997 21.516 143.033 21.462C143.051 21.39 143.105 21.309 143.195 21.219C143.465 20.949 143.744 20.661 144.032 20.355C144.32 20.049 144.617 19.698 144.923 19.302C145.085 19.104 145.328 18.807 145.652 18.411C145.976 17.997 146.327 17.556 146.705 17.088C147.101 16.62 147.47 16.188 147.812 15.792C147.902 15.666 148.001 15.585 148.109 15.549C148.217 15.495 148.289 15.468 148.325 15.468C148.811 15.468 149.054 15.657 149.054 16.035C149.054 16.143 149.027 16.251 148.973 16.359C147.353 18.591 146.381 20.292 146.057 21.462C148.145 19.374 149.819 17.808 151.079 16.764C152.357 15.702 153.266 15.171 153.806 15.171C154.094 15.171 154.31 15.216 154.454 15.306C154.616 15.396 154.697 15.567 154.697 15.819C154.697 15.909 154.688 15.981 154.67 16.035C154.616 16.161 154.247 16.665 153.563 17.547C153.149 18.051 152.78 18.51 152.456 18.924C152.15 19.338 151.898 19.698 151.7 20.004C151.376 20.508 151.133 20.985 150.971 21.435C150.809 21.867 150.728 22.236 150.728 22.542C150.728 22.668 150.746 22.821 150.782 23.001C150.818 23.181 150.926 23.271 151.106 23.271C151.52 23.271 152.168 22.911 153.05 22.191C153.464 21.831 153.851 21.471 154.211 21.111C154.571 20.733 154.913 20.364 155.237 20.004C155.309 19.932 155.426 19.797 155.588 19.599C155.75 19.383 155.849 19.275 155.885 19.275C155.957 19.275 155.993 19.347 155.993 19.491C155.993 19.563 155.948 19.689 155.858 19.869C155.786 20.031 155.705 20.157 155.615 20.247C155.417 20.481 155.12 20.805 154.724 21.219C154.346 21.633 153.914 22.056 153.428 22.488C152.96 22.92 152.501 23.289 152.051 23.595C151.601 23.901 151.205 24.054 150.863 24.054ZM154.57 29.535C154.03 29.535 153.571 29.31 153.193 28.86C152.815 28.41 152.617 27.924 152.599 27.402C152.653 27.186 152.734 27.078 152.842 27.078C152.95 27.078 153.013 27.213 153.031 27.483C153.049 27.771 153.193 28.05 153.463 28.32C153.733 28.59 153.994 28.725 154.246 28.725C155.29 28.725 156.388 28.05 157.54 26.7C157.954 26.214 158.377 25.638 158.809 24.972C159.259 24.324 159.691 23.586 160.105 22.758L161.455 20.085L159.43 22.137C158.8 22.767 158.251 23.235 157.783 23.541C157.333 23.847 156.982 24 156.73 24C156.298 24 155.866 23.847 155.434 23.541C155.002 23.217 154.759 22.848 154.705 22.434C154.525 21.048 155.398 19.401 157.324 17.493C159.25 15.603 160.969 14.658 162.481 14.658C162.895 14.658 163.219 14.757 163.453 14.955C163.579 15.063 163.669 15.225 163.723 15.441C163.795 15.657 163.849 15.765 163.885 15.765C163.957 15.765 164.02 15.756 164.074 15.738C164.128 15.702 164.191 15.684 164.263 15.684C164.497 15.684 164.686 15.765 164.83 15.927C164.992 16.089 165.046 16.251 164.992 16.413C164.974 16.575 164.713 17.061 164.209 17.871C163.885 18.411 163.516 19.068 163.102 19.842C162.688 20.598 162.247 21.39 161.779 22.218C161.329 23.028 160.888 23.784 160.456 24.486C160.024 25.206 159.637 25.791 159.295 26.241C157.639 28.437 156.064 29.535 154.57 29.535ZM156.487 23.379C157.531 23.379 158.953 22.236 160.753 19.95L163.615 16.008C163.507 15.756 163.282 15.63 162.94 15.63C161.824 15.63 160.33 16.512 158.458 18.276C156.514 20.112 155.641 21.597 155.839 22.731C155.929 23.163 156.145 23.379 156.487 23.379ZM166.021 24.054C165.571 24.054 165.22 23.847 164.968 23.433C164.716 23.001 164.59 22.587 164.59 22.191C164.59 21.111 165.373 19.599 166.939 17.655C168.523 15.693 169.801 14.712 170.773 14.712C171.691 14.712 172.15 15.198 172.15 16.17C172.15 16.314 172.132 16.467 172.096 16.629C172.078 16.791 172.051 16.962 172.015 17.142C172.051 17.196 172.141 17.223 172.285 17.223C172.771 17.223 173.347 17.052 174.013 16.71C173.995 17.016 173.284 17.457 171.88 18.033C172.078 18.627 171.484 19.761 170.098 21.435C168.676 23.181 167.461 24.054 166.453 24.054H166.021ZM166.507 23.244C167.281 23.244 168.271 22.533 169.477 21.111C170.647 19.725 171.232 18.726 171.232 18.114C170.944 17.952 170.584 17.538 170.152 16.872C169.54 16.872 168.658 17.61 167.506 19.086C166.372 20.526 165.823 21.633 165.859 22.407C165.877 22.965 166.093 23.244 166.507 23.244Z" fill="#FF8E01"/>
</svg>
